<?xml version="1.0" encoding="utf-8"?>
<!-- Generator: Adobe Illustrator 13.0.0, SVG Export Plug-In . SVG Version: 6.00 Build 14948)  -->
<!DOCTYPE svg PUBLIC "-//W3C//DTD SVG 1.1//EN" "http://www.w3.org/Graphics/SVG/1.1/DTD/svg11.dtd">
<svg version="1.1" id="Layer_1" xmlns="http://www.w3.org/2000/svg" xmlns:xlink="http://www.w3.org/1999/xlink" x="0px" y="0px"
	 width="732.385px" height="233.553px" viewBox="0 0 732.385 233.553" enable-background="new 0 0 732.385 233.553"
	 xml:space="preserve">
<polygon id="polygon1580" fill="none" points="140.727,181.945 113.604,201.662 123.969,233.553 157.504,233.545 167.859,201.65 "/>
<polygon id="polygon1582" fill="none" points="167.859,31.906 157.504,0.01 123.969,0 113.604,31.893 140.727,51.609 "/>
<polygon id="polygon1584" fill="none" points="51.607,116.926 31.911,89.787 0.012,100.129 0,133.666 31.884,144.045 "/>
<polygon id="polygon1586" fill="none" points="249.577,144.045 281.463,133.666 281.449,100.129 249.55,89.787 229.854,116.926 "/>
<polygon id="polygon1588" opacity="0.6" fill="#ED2224" enable-background="new    " points="185.05,103.57 175.396,116.854 
	182.633,139.115 185.06,146.588 "/>
<polygon id="polygon1590" opacity="0.8" fill="#ED2224" enable-background="new    " points="168.724,96.314 168.724,96.316 
	184.348,101.391 176.425,90.488 159.045,66.561 168.718,96.313 "/>
<polygon id="polygon1592" opacity="0.8" fill="#ED2224" enable-background="new    " points="186.05,102.623 185.995,102.602 
	185.926,102.625 185.937,146.479 195.581,116.795 190.488,101.141 186.029,102.592 "/>
<polygon id="polygon1594" opacity="0.4" fill="#ED2224" enable-background="new    " points="174.654,116.363 184.761,102.447 
	168.514,97.17 142.098,116.373 "/>
<polygon id="polygon1596" opacity="0.4" fill="#ED2224" enable-background="new    " points="185.495,101.471 185.925,100.877 
	185.926,101.705 190.217,100.309 190.217,100.309 190.218,100.309 185.101,84.573 179.89,80.789 159.935,66.297 177.133,89.971 "/>
<polygon id="polygon1598" opacity="0.4" fill="#ED2224" enable-background="new    " points="185.969,149.066 213.1,168.77 
	240.223,149.055 229.854,117.166 227.758,117.166 221.799,117.172 215.428,117.172 196.326,117.174 "/>
<polygon id="polygon1600" opacity="0.8" fill="#ED2224" enable-background="new    " points="212.561,63.982 202.195,32.092 
	168.664,32.1 158.307,63.994 166.938,70.26 185.438,83.698 "/>
<polygon id="polygon1602" opacity="0.8" fill="#ED2224" enable-background="new    " points="124.225,63.732 136.852,63.73 
	156.977,63.725 140.436,40.971 113.715,32.283 119.645,50.523 123.852,63.461 124.455,63.023 "/>
<polygon id="polygon1604" opacity="0.4" fill="#ED2224" enable-background="new    " points="158.555,169.326 159.162,169.764 
	158.416,169.764 158.932,171.363 168.51,200.822 185.039,178.098 185.027,150.084 173.912,158.166 "/>
<polygon id="polygon1606" opacity="0.6" fill="#ED2224" enable-background="new    " points="123.963,169.77 113.604,201.662 
	140.285,221.041 140.295,169.768 "/>
<polygon id="polygon1608" opacity="0.4" fill="#ED2224" enable-background="new    " points="68.336,64.725 41.213,84.436 
	51.555,116.254 51.607,116.33 85.111,116.322 95.466,84.426 90.563,80.867 "/>
<polygon id="polygon1610" opacity="0.6" fill="#ED2224" enable-background="new    " points="190.873,80.838 185.967,84.398 
	196.326,116.293 229.828,116.301 229.879,116.227 240.223,84.41 213.1,64.698 "/>
<polygon id="polygon1612" opacity="0.4" fill="#ED2224" enable-background="new    " points="51.438,117.637 41.221,149.098 
	67.943,168.502 67.941,140.336 "/>
<polygon id="polygon1614" opacity="0.4" fill="#ED2224" enable-background="new    " points="141.494,40.934 157.654,63.166 
	167.672,32.316 141.455,40.846 141.512,40.928 "/>
<polygon id="polygon1616" opacity="0.4" fill="#ED2224" enable-background="new    " points="123.104,64.004 118.811,50.795 
	112.682,31.936 112.55,31.893 79.643,31.9 109.928,73.58 "/>
<polygon id="polygon1618" opacity="0.6" fill="#ED2224" enable-background="new    " points="185.966,177.617 185.966,177.684 
	212.158,169.168 185.906,150.104 185.916,177.633 "/>
<polygon id="polygon1620" opacity="0.6" fill="#ED2224" enable-background="new    " points="68.877,140.846 68.816,140.826 
	68.818,168.463 95.125,149.344 68.877,140.82 "/>
<polygon id="polygon1622" opacity="0.6" fill="#ED2224" enable-background="new    " points="52.209,117.203 68.389,139.461 
	84.566,117.197 "/>
<polygon id="polygon1624" opacity="0.6" fill="#ED2224" enable-background="new    " points="140.695,12.127 114.086,31.471 
	140.752,40.15 167.365,31.496 "/>
<polygon id="polygon1626" opacity="0.6" fill="#ED2224" enable-background="new    " points="79.055,32.582 68.85,64.014 
	91.502,80.461 95.982,83.717 109.221,74.092 "/>
<polygon id="polygon1628" opacity="0.8" fill="#ED2224" enable-background="new    " points="169.201,201.379 202.227,201.375 
	212.412,170.01 185.688,178.695 185.102,179.5 "/>
<polygon id="polygon1630" opacity="0.8" fill="#ED2224" enable-background="new    " points="141.193,169.766 141.186,221.039 
	167.857,201.654 157.494,169.764 "/>
<polygon id="polygon1632" opacity="0.8" fill="#ED2224" enable-background="new    " points="95.277,148.475 85.277,117.709 
	69.102,139.973 "/>
<polygon id="polygon1634" opacity="0.8" fill="#ED2224" enable-background="new    " points="95.994,149.793 68.871,169.51 
	79.236,201.404 112.768,201.393 123.125,169.498 "/>
<polygon id="polygon1636" fill="#010101" points="129.844,148.811 140.203,116.916 113.066,97.211 85.943,116.926 96.311,148.816 
	104.373,148.813 "/>
<polygon id="polygon1638" opacity="0.8" fill="#ED2224" enable-background="new    " points="122.789,65.316 96.354,84.529 
	85.997,115.613 112.695,96.398 "/>
<polygon id="polygon1640" opacity="0.4" fill="#ED2224" enable-background="new    " points="156.461,168.889 130.018,149.686 
	97.33,149.686 123.785,168.893 "/>
<polygon id="polygon1642" opacity="0.6" fill="#ED2224" enable-background="new    " points="123.941,64.607 113.586,96.5 
	140.716,116.207 167.762,96.461 157.471,64.602 "/>
<polygon id="polygon1644" opacity="0.8" fill="#ED2224" enable-background="new    " points="157.809,168.785 130.678,149.082 
	141.037,117.186 174.725,117.18 184.934,149.072 "/>
<rect id="rect1648" x="0.008" y="0.004" fill="none" width="281.446" height="233.541"/>
<g id="g1716">
	<g id="g1666">
		<path id="path1650" fill="#010101" d="M303.803,82.27c-13.222,0-23.222-9.319-23.222-25.471c0-16.226,10-25.473,23.222-25.473
			c13.146,0,23.22,9.247,23.22,25.473C327.022,73.02,316.952,82.27,303.803,82.27z M303.803,40.6
			c-7.628,0-12.592,5.689-12.592,16.199c0,10.508,4.964,16.197,12.592,16.197c7.604,0,12.591-5.689,12.591-16.197
			C316.394,46.289,311.406,40.6,303.803,40.6z"/>
		<path id="path1652" fill="#010101" d="M358.428,44.4h10.313v37.191h-9.899v-6.756h-0.391c-1.67,4.358-5.688,7.24-11.282,7.24
			c-7.479,0-12.565-5.306-12.591-13.996V44.398h10.313V66.24c0.022,4.384,2.543,7.117,6.44,7.117c3.701,0,7.115-2.612,7.095-7.604
			L358.428,44.4L358.428,44.4z"/>
		<path id="path1654" fill="#010101" d="M396.758,52.148h-6.996v18.017c0,2.854,1.429,3.633,3.486,3.633
			c0.969,0,2.058-0.242,2.564-0.34l1.621,7.676c-1.041,0.34-2.93,0.873-5.593,0.969c-7.48,0.316-12.446-3.291-12.396-10.578V52.152
			h-5.084v-7.748h5.084v-8.909h10.314v8.909h6.996L396.758,52.148L396.758,52.148z"/>
		<path id="path1656" fill="#010101" d="M404.435,32.004h10.313v18.645h0.313c1.38-3.024,4.356-6.729,10.581-6.729
			c8.158,0,15.062,6.344,15.062,19.129c0,12.445-6.608,19.152-15.085,19.152c-6.004,0-9.129-3.464-10.558-6.564h-0.461v5.957
			h-10.168L404.435,32.004L404.435,32.004z M422.352,73.99c5.063,0,7.82-4.506,7.82-10.991c0-6.441-2.711-10.871-7.82-10.871
			c-5.013,0-7.818,4.233-7.818,10.871C414.532,69.633,417.389,73.99,422.352,73.99z"/>
		<path id="path1658" fill="#010101" d="M447.559,44.4h9.999v6.488h0.388c1.356-4.6,4.771-7.02,8.938-7.02
			c1.04,0,2.322,0.145,3.243,0.36v9.15c-0.969-0.313-2.93-0.558-4.356-0.558c-4.553,0-7.896,3.146-7.896,7.726V81.59h-10.313
			L447.559,44.4L447.559,44.4z"/>
		<path id="path1660" fill="#010101" d="M472.185,63.166c0-11.478,7.097-19.25,18.038-19.25c9.83,0,17.482,6.248,17.482,18.887
			v2.834h-25.326v0.023c0,5.545,3.27,8.959,8.425,8.959c3.438,0,6.104-1.479,7.146-4.312l9.541,0.629
			c-1.454,6.902-7.651,11.381-16.854,11.381C479.183,82.32,472.185,74.959,472.185,63.166z M497.998,59.244
			c-0.025-4.433-3.123-7.627-7.604-7.627c-4.576,0-7.797,3.391-8.015,7.627H497.998z"/>
		<path id="path1662" fill="#010101" d="M512.695,71.205c0-8.308,6.607-10.773,13.972-11.451c6.466-0.631,9.008-0.945,9.008-3.344
			v-0.146c0-3.051-2.01-4.818-5.521-4.818c-3.705,0-5.905,1.816-6.607,4.285l-9.539-0.772c1.429-6.779,7.287-11.041,16.196-11.041
			c8.278,0,15.787,3.729,15.787,12.59v25.086h-9.78v-5.158h-0.291c-1.815,3.465-5.376,5.859-10.871,5.859
			C517.95,82.295,512.695,78.566,512.695,71.205z M535.747,68.299v-3.947c-1.235,0.824-4.916,1.357-7.168,1.672
			c-3.633,0.513-6.028,1.939-6.028,4.847c0,2.832,2.272,4.311,5.447,4.311C532.525,75.176,535.747,72.198,535.747,68.299z"/>
		<path id="path1664" fill="#010101" d="M554.005,32.004h10.313v26.514h0.558l11.913-14.113h11.842l-13.802,16.103l14.502,21.09
			h-12.082l-10.146-14.988l-2.784,3.175v11.813h-10.313L554.005,32.004L554.005,32.004z"/>
	</g>
	<g id="g1692">
		<path id="path1668" fill="#010101" d="M281.455,141.492V91.904h17.724c14.964,0,24.118,9.298,24.118,24.744
			c0,15.496-9.154,24.845-24.263,24.845H281.455z M298.597,132.51c9.321,0,14.237-4.797,14.237-15.861
			c0-11.018-4.916-15.764-14.214-15.764h-6.686v31.625H298.597z"/>
		<path id="path1670" fill="#010101" d="M329.107,131.104c0-8.305,6.61-10.772,13.973-11.453c6.466-0.629,9.007-0.942,9.007-3.34
			v-0.146c0-3.052-2.01-4.818-5.521-4.818c-3.705,0-5.908,1.816-6.611,4.285l-9.538-0.775c1.429-6.774,7.287-11.037,16.196-11.037
			c8.281,0,15.787,3.729,15.787,12.593v25.084h-9.782v-5.156h-0.289c-1.816,3.463-5.376,5.856-10.873,5.856
			C334.363,142.195,329.107,138.465,329.107,131.104z M352.159,128.198v-3.946c-1.235,0.824-4.917,1.354-7.168,1.672
			c-3.633,0.508-6.028,1.938-6.028,4.842c0,2.834,2.274,4.313,5.448,4.313C348.938,135.076,352.159,132.096,352.159,128.198z"/>
		<path id="path1672" fill="#010101" d="M390.198,112.047H383.2v18.016c0,2.857,1.429,3.635,3.485,3.635
			c0.97,0,2.061-0.241,2.566-0.342l1.621,7.681c-1.041,0.338-2.93,0.868-5.596,0.969c-7.479,0.313-12.442-3.293-12.396-10.582
			v-19.371h-5.085v-7.748h5.085v-8.91h10.313v8.91h6.998v7.746h0.004v-0.003H390.198z"/>
		<path id="path1674" fill="#010101" d="M395.162,131.104c0-8.305,6.61-10.772,13.972-11.453c6.466-0.629,9.007-0.942,9.007-3.34
			v-0.146c0-3.052-2.009-4.818-5.521-4.818c-3.703,0-5.906,1.816-6.608,4.285l-9.54-0.775c1.43-6.774,7.287-11.037,16.199-11.037
			c8.28,0,15.785,3.729,15.785,12.593v25.084h-9.78v-5.156h-0.292c-1.814,3.463-5.375,5.856-10.871,5.856
			C400.418,142.195,395.162,138.465,395.162,131.104z M418.215,128.198v-3.946c-1.235,0.824-4.916,1.354-7.168,1.672
			c-3.633,0.508-6.028,1.938-6.028,4.842c0,2.834,2.276,4.313,5.446,4.313C414.993,135.076,418.215,132.096,418.215,128.198z"/>
		<path id="path1676" fill="#010101" d="M449.788,141.492l17.119-49.589h13.513l17.094,49.589H486.28l-3.681-11.31h-17.895
			l-3.682,11.31H449.788z M479.959,122l-6.104-18.769h-0.387L467.365,122H479.959z"/>
		<path id="path1678" fill="#010101" d="M513.59,141.492h-10.313v-37.191h9.83v6.563h0.437c1.672-4.334,5.666-7.049,11.188-7.049
			c7.748,0,12.834,5.326,12.834,13.996v23.683h-10.313v-21.841c0.021-4.555-2.472-7.266-6.61-7.266
			c-4.164,0-7.021,2.812-7.048,7.605v21.5L513.59,141.492L513.59,141.492L513.59,141.492z"/>
		<path id="path1680" fill="#010101" d="M543.929,131.104c0-8.305,6.609-10.772,13.971-11.453c6.468-0.629,9.011-0.942,9.011-3.34
			v-0.146c0-3.052-2.011-4.818-5.521-4.818c-3.704,0-5.906,1.816-6.607,4.285l-9.539-0.775c1.429-6.774,7.287-11.037,16.197-11.037
			c8.279,0,15.784,3.729,15.784,12.593v25.084h-9.78v-5.156h-0.291c-1.813,3.463-5.375,5.856-10.873,5.856
			C549.184,142.195,543.929,138.465,543.929,131.104z M566.982,128.198v-3.946c-1.233,0.824-4.916,1.354-7.168,1.672
			c-3.633,0.508-6.029,1.938-6.029,4.842c0,2.834,2.277,4.313,5.449,4.313C563.761,135.076,566.982,132.096,566.982,128.198z"/>
		<path id="path1682" fill="#010101" d="M595.553,141.492H585.24V91.904h10.313V141.492z"/>
		<path id="path1684" fill="#010101" d="M603.668,154.373l2.321-7.699c3.634,1.113,6.227,0.945,7.58-2.541l0.604-1.574
			l-13.342-38.258h10.849l7.699,27.313h0.387l7.772-27.313h10.922l-14.457,41.211c-2.104,6.004-6.173,9.928-13.853,9.928
			C607.541,155.438,605.143,155.002,603.668,154.373z"/>
		<path id="path1686" fill="#010101" d="M665.241,115.486c-0.511-2.396-2.641-4.356-6.226-4.356c-3.196,0-5.714,1.453-5.688,3.68
			c-0.022,1.793,1.26,2.98,4.724,3.73l6.729,1.354c7.217,1.478,10.729,4.697,10.751,10.072c-0.021,7.338-6.926,12.252-16.562,12.252
			c-9.854,0-15.908-4.383-16.877-11.502l10.145-0.531c0.63,3.025,3.076,4.601,6.758,4.601c3.607,0,6.006-1.572,6.055-3.775
			c-0.048-1.865-1.525-3.051-4.771-3.705l-6.439-1.283c-7.265-1.449-10.773-5.063-10.749-10.631
			c-0.024-7.166,6.245-11.57,15.763-11.57c9.396,0,14.915,4.234,15.836,11.091L665.241,115.486z"/>
		<path id="path1688" fill="#010101" d="M681.659,94.275c0-2.854,2.519-5.207,5.568-5.207c3.072,0,5.594,2.353,5.594,5.207
			c0,2.884-2.521,5.23-5.594,5.23C684.176,99.506,681.659,97.158,681.659,94.275z M682.048,104.299h10.313v37.19h-10.313V104.299z"
			/>
		<path id="path1690" fill="#010101" d="M722.093,115.486c-0.509-2.396-2.639-4.356-6.223-4.356c-3.196,0-5.717,1.453-5.69,3.68
			c-0.021,1.793,1.262,2.98,4.725,3.73l6.73,1.354c7.215,1.478,10.729,4.697,10.75,10.072c-0.021,7.338-6.926,12.252-16.563,12.252
			c-9.854,0-15.905-4.383-16.877-11.502l10.146-0.531c0.63,3.025,3.075,4.601,6.757,4.601c3.606,0,6.004-1.572,6.055-3.775
			c-0.051-1.865-1.525-3.051-4.771-3.705l-6.44-1.283c-7.263-1.449-10.772-5.063-10.75-10.631
			c-0.022-7.166,6.248-11.57,15.764-11.57c9.396,0,14.915,4.234,15.836,11.091L722.093,115.486z"/>
	</g>
	<g id="g1710">
		<path id="path1694" fill="#010101" d="M281.455,151.807h19.563c11.26,0,17.771,6.949,17.771,16.805
			c0,9.902-6.636,16.707-18.037,16.707h-8.814v16.078h-10.481L281.455,151.807L281.455,151.807z M299.057,176.916
			c6.005,0,8.937-3.392,8.937-8.308c0-4.938-2.931-8.231-8.982-8.231h-7.07v16.539H299.057L299.057,176.916z"/>
		<path id="path1696" fill="#010101" d="M335.742,201.396h-10.313v-49.59h10.313V201.396z"/>
		<path id="path1698" fill="#010101" d="M342.232,191.008c0-8.305,6.608-10.775,13.971-11.453c6.467-0.629,9.007-0.941,9.007-3.342
			v-0.146c0-3.049-2.009-4.813-5.521-4.813c-3.705,0-5.907,1.813-6.609,4.285l-9.541-0.773c1.431-6.781,7.289-11.043,16.199-11.043
			c8.281,0,15.787,3.73,15.787,12.592V201.4h-9.783v-5.157h-0.29c-1.814,3.463-5.375,5.858-10.871,5.858
			C347.486,202.098,342.232,198.371,342.232,191.008z M365.282,188.102v-3.945c-1.233,0.822-4.916,1.355-7.168,1.671
			c-3.633,0.51-6.026,1.938-6.026,4.844c0,2.834,2.272,4.313,5.446,4.313C362.062,194.979,365.282,192,365.282,188.102z"/>
		<path id="path1700" fill="#010101" d="M403.322,171.953h-6.998v18.014c0,2.857,1.43,3.633,3.486,3.633
			c0.971,0,2.06-0.24,2.565-0.338l1.623,7.674c-1.043,0.34-2.932,0.873-5.596,0.974c-7.479,0.313-12.442-3.293-12.396-10.582
			v-19.371h-5.086v-7.748h5.086v-8.91h10.313v8.91h6.996v7.748h0.004v-0.003H403.322z"/>
		<path id="path1702" fill="#010101" d="M430.029,171.953h-7.387v29.442h-10.313v-29.442h-5.255v-7.748h5.255v-2.689
			c0-8.086,5.205-12.031,12.203-12.031c3.172,0,6.006,0.631,7.289,1.019l-1.815,7.748c-0.823-0.269-2.082-0.531-3.316-0.531
			c-3.026,0-4.045,1.475-4.045,3.994v2.494h7.387L430.029,171.953L430.029,171.953z"/>
		<path id="path1704" fill="#010101" d="M433.516,182.945c0-11.524,7.021-19.227,18.309-19.227c11.281,0,18.306,7.701,18.306,19.227
			c0,11.451-7.021,19.179-18.306,19.179C440.538,202.123,433.516,194.396,433.516,182.945z M459.643,182.873
			c0-6.488-2.662-11.283-7.771-11.283c-5.205,0-7.868,4.795-7.868,11.283c0,6.489,2.663,11.26,7.868,11.26
			C456.982,194.131,459.643,189.363,459.643,182.873z"/>
		<path id="path1706" fill="#010101" d="M476.861,164.205h10v6.487h0.387c1.354-4.602,4.771-7.021,8.937-7.021
			c1.04,0,2.323,0.146,3.244,0.363v9.149c-0.969-0.313-2.93-0.557-4.357-0.557c-4.553,0-7.895,3.147-7.895,7.725v21.043h-10.314
			L476.861,164.205L476.861,164.205z"/>
		<path id="path1708" fill="#010101" d="M504.729,164.205h9.832v6.561h0.438c1.55-4.381,5.353-7.045,10.361-7.045
			c5.109,0,8.91,2.736,10.1,7.045h0.387c1.525-4.26,5.765-7.045,11.212-7.045c6.924,0,11.719,4.602,11.719,12.664v25.012h-10.291
			v-22.979c0-4.142-2.469-6.197-5.763-6.197c-3.752,0-5.956,2.615-5.956,6.463v22.713h-10v-23.194c0-3.654-2.277-5.98-5.666-5.98
			c-3.438,0-6.054,2.734-6.054,6.854v22.321H504.73L504.729,164.205L504.729,164.205z"/>
	</g>
	<path id="path1712" fill="none" d="M259.576,151.807v-10.313h49.587v10.313H259.576z"/>
	<path id="path1714" fill="none" d="M259.574,91.908V81.594h232.264v10.314H259.574z"/>
</g>
</svg>
