<svg xmlns="http://www.w3.org/2000/svg" viewBox="0 0 1211.18 273.64"><defs><style>.cls-1{fill:#e10043;}.cls-2{fill:#4d4d4d;}.cls-3{fill:none;stroke:#e10043;stroke-miterlimit:10;stroke-width:4px;}</style></defs><g id="Layer_2" data-name="Layer 2"><g id="Layer_1-2" data-name="Layer 1"><path class="cls-1" d="M143.77,60.42a88.47,88.47,0,0,1,34.16,32.4q12.42,20.6,12.43,46.21,0,25.86-12.43,46.71a89.65,89.65,0,0,1-34.16,32.9q-21.72,12-48.59,12.05t-48.6-11.93a88.33,88.33,0,0,1-34.15-32.9Q0,164.9,0,139q0-25.62,12.43-46.21a88.45,88.45,0,0,1,34.15-32.4q21.72-11.79,48.6-11.8T143.77,60.42ZM71.45,94.33A48.86,48.86,0,0,0,53.74,113a56,56,0,0,0,.13,52.73,51,51,0,0,0,17.7,18.84,44.57,44.57,0,0,0,24.11,6.9,43.94,43.94,0,0,0,24-6.9,48.5,48.5,0,0,0,17.21-18.84,58.57,58.57,0,0,0,0-52.73,47.65,47.65,0,0,0-17.21-18.71,44.6,44.6,0,0,0-24-6.78A45.83,45.83,0,0,0,71.45,94.33Z"/><path class="cls-1" d="M322.83,62.43a81,81,0,0,1,33,31q11.81,20,11.8,45.83t-11.93,46a80.79,80.79,0,0,1-33.65,31.14q-21.72,11.06-49.85,11.05H198.14v-176H274Q301.61,51.38,322.83,62.43ZM298.84,184a42.69,42.69,0,0,0,16.08-17.83,58.31,58.31,0,0,0,5.77-26.37q0-15.06-6.15-26.62a45,45,0,0,0-17-18A47.34,47.34,0,0,0,273,88.8H244.1V190.26h31.14A44.37,44.37,0,0,0,298.84,184Z"/><path class="cls-1" d="M495,227.43l-12.06-31.14H406.83l-12.31,31.14H347.31l75.59-176h47.21L544,227.43Zm-74.34-66.3h48.72L445.25,98.34Z"/><path class="cls-1" d="M679.31,67.58q18.57,16.2,18.58,45.58,0,31.14-18.58,48.34t-52.24,17.21H595.68v48.72h-46v-176h77.35Q660.71,51.38,679.31,67.58ZM646.53,135q7.66-7,7.66-20.34,0-12.81-7.66-19.72t-21.72-6.9H595.68v54h29.13Q638.87,142,646.53,135Z"/><path class="cls-2" d="M807,57.33a23.35,23.35,0,0,1,0,41,26.61,26.61,0,0,1-24.93,0,23.2,23.2,0,0,1-8.84-8.49,23.32,23.32,0,0,1,8.81-32.47,27,27,0,0,1,25,0ZM787.65,65.2a14,14,0,0,0-5.16,5.25,15.11,15.11,0,0,0,0,14.69,14.76,14.76,0,0,0,5.16,5.28,13.24,13.24,0,0,0,7,2,13.07,13.07,0,0,0,6.95-1.93,13.94,13.94,0,0,0,5-5.28,15,15,0,0,0,1.86-7.41,14.75,14.75,0,0,0-1.86-7.31,14,14,0,0,0-5-5.25,13.16,13.16,0,0,0-6.95-1.93A13.64,13.64,0,0,0,787.65,65.2Z"/><path class="cls-2" d="M859,65.56v35.11h-10v-6.2q-3.6,6.59-11.75,6.59a12.11,12.11,0,0,1-9.23-3.62q-3.44-3.63-3.43-9.82V65.56H834.7V84.74A7.42,7.42,0,0,0,836.46,90a6.3,6.3,0,0,0,4.83,1.89A7.23,7.23,0,0,0,847,89.31a9.58,9.58,0,0,0,2.09-6.39V65.56Z"/><path class="cls-2" d="M890.5,98.71a16.59,16.59,0,0,1-4.34,1.79,18.71,18.71,0,0,1-4.8.62,11.33,11.33,0,0,1-8-2.8q-3.07-2.8-3.07-8V74h-4.89V67.12h4.89V57.47h10v9.65h9.52v7h-9.52V88.59q0,4.05,3.19,4a11.33,11.33,0,0,0,4.9-1.3Z"/><path class="cls-2" d="M926.68,67.48a15.08,15.08,0,0,1,5.81,6.37,20.87,20.87,0,0,1,2.06,9.46,20.41,20.41,0,0,1-2,9.3,15,15,0,0,1-5.71,6.23,16.27,16.27,0,0,1-8.58,2.22,14.51,14.51,0,0,1-6.49-1.4,13.21,13.21,0,0,1-4.8-4.08v5.09H896.89V52.24h10.05V70.71a12.61,12.61,0,0,1,4.73-4.08,14.29,14.29,0,0,1,6.37-1.4A16.46,16.46,0,0,1,926.68,67.48ZM922,90a10.17,10.17,0,0,0,2.42-7A10.06,10.06,0,0,0,922,76a8,8,0,0,0-6.26-2.71,8.12,8.12,0,0,0-6.3,2.71,10,10,0,0,0-2.45,7,10,10,0,0,0,2.45,7,8.16,8.16,0,0,0,6.3,2.68A8,8,0,0,0,922,90Z"/><path class="cls-2" d="M956,66.93a13.88,13.88,0,0,1,6.85-1.76v9.46a14.42,14.42,0,0,0-1.57-.07A10.35,10.35,0,0,0,954,77.08a8.65,8.65,0,0,0-2.71,6.68v16.91h-10V65.56h10v6.33A12.74,12.74,0,0,1,956,66.93Z"/><path class="cls-2" d="M996.31,70.13q4.41,4.89,4.41,13.63c0,1,0,1.85-.07,2.42H975.46a8.93,8.93,0,0,0,9.07,7,12.38,12.38,0,0,0,4.77-1,12.59,12.59,0,0,0,4.11-2.77l5.29,5.35a17.86,17.86,0,0,1-6.5,4.6,21.73,21.73,0,0,1-8.51,1.6A20.21,20.21,0,0,1,974,98.84a15.57,15.57,0,0,1-6.4-6.26,20.58,20.58,0,0,1,0-18.77,16,16,0,0,1,6.4-6.33,19.23,19.23,0,0,1,9.39-2.25Q991.91,65.23,996.31,70.13Zm-5,10.11A8,8,0,0,0,989,74.69a7.51,7.51,0,0,0-5.55-2.08,7.64,7.64,0,0,0-5.45,2,9.52,9.52,0,0,0-2.77,5.58Z"/><path class="cls-2" d="M1027.67,100.67V96.56a11.2,11.2,0,0,1-4.57,3.39,16.66,16.66,0,0,1-6.46,1.17c-3.7,0-6.63-1-8.81-3a10.34,10.34,0,0,1-3.26-7.93,9.3,9.3,0,0,1,3.49-7.73q3.5-2.78,9.89-2.84h9.65v-.65a5.31,5.31,0,0,0-1.86-4.34,8.32,8.32,0,0,0-5.44-1.54,21.78,21.78,0,0,0-10.45,3.07l-3.13-6.92a42.71,42.71,0,0,1,7.83-3.07,31.12,31.12,0,0,1,8-1q7,0,10.93,3.32a11.72,11.72,0,0,1,4,9.27l.06,22.91Zm-2.81-8.23a5.82,5.82,0,0,0,2.74-3.78V85.53h-7.89a7.88,7.88,0,0,0-4.34.94,3.4,3.4,0,0,0-1.41,3,4,4,0,0,0,1.47,3.23,6.18,6.18,0,0,0,4,1.21A9.54,9.54,0,0,0,1024.86,92.44Z"/><path class="cls-2" d="M1069.57,100.67l-8.49-14.29-4.5,4.76v9.53h-10V52.24h10V78.87l12.86-13.25h11.42L1068,79.13l13.44,21.54Z"/><path class="cls-2" d="M805.14,119.51a21.1,21.1,0,0,1,8.51,8.1,24.39,24.39,0,0,1-.06,23.69,21.51,21.51,0,0,1-8.65,8.09,27,27,0,0,1-12.66,2.9h-19V116.61h19.38A26.31,26.31,0,0,1,805.14,119.51Zm-5.39,32.31a12.39,12.39,0,0,0,4.73-5,16.31,16.31,0,0,0-.09-14.68,13,13,0,0,0-4.9-5.06,13.77,13.77,0,0,0-7-1.79H783.6v28.32h9.33A13.18,13.18,0,0,0,799.75,151.82Z"/><path class="cls-2" d="M843.64,162.29v-4.11a11.2,11.2,0,0,1-4.57,3.39,16.47,16.47,0,0,1-6.46,1.18c-3.7,0-6.63-1-8.81-3a10.33,10.33,0,0,1-3.26-7.93,9.32,9.32,0,0,1,3.49-7.73q3.5-2.78,9.89-2.84h9.66v-.65a5.28,5.28,0,0,0-1.87-4.34,8.36,8.36,0,0,0-5.44-1.53,21.76,21.76,0,0,0-10.45,3.06l-3.13-6.91a41.58,41.58,0,0,1,7.83-3.07,31.1,31.1,0,0,1,8-1q7.05,0,10.93,3.33a11.72,11.72,0,0,1,3.95,9.27l.07,22.9Zm-2.81-8.22a5.86,5.86,0,0,0,2.75-3.79v-3.13h-7.9a7.87,7.87,0,0,0-4.34.95,3.38,3.38,0,0,0-1.4,3,4,4,0,0,0,1.46,3.23,6.12,6.12,0,0,0,4,1.21A9.61,9.61,0,0,0,840.83,154.07Z"/><path class="cls-2" d="M883.91,160.33a16.27,16.27,0,0,1-4.34,1.8,19.16,19.16,0,0,1-4.8.62,11.33,11.33,0,0,1-8-2.81q-3.07-2.81-3.07-8V135.67h-4.89v-6.92h4.89v-9.66h10v9.66h9.53v7h-9.53v14.49c0,2.7,1.07,4,3.2,4a11.33,11.33,0,0,0,4.9-1.3Z"/><path class="cls-2" d="M910.34,162.29v-4.11a11.27,11.27,0,0,1-4.57,3.39,16.51,16.51,0,0,1-6.46,1.18q-5.55,0-8.81-3a10.3,10.3,0,0,1-3.27-7.93,9.32,9.32,0,0,1,3.5-7.73q3.48-2.78,9.88-2.84h9.66v-.65a5.31,5.31,0,0,0-1.86-4.34,8.41,8.41,0,0,0-5.45-1.53,21.76,21.76,0,0,0-10.44,3.06l-3.13-6.91a41.06,41.06,0,0,1,7.83-3.07,31,31,0,0,1,8-1q7,0,10.93,3.33a11.75,11.75,0,0,1,3.94,9.27l.07,22.9Zm-2.81-8.22a5.84,5.84,0,0,0,2.74-3.79v-3.13h-7.9a7.91,7.91,0,0,0-4.34.95,3.4,3.4,0,0,0-1.4,3,4,4,0,0,0,1.47,3.23,6.11,6.11,0,0,0,4,1.21A9.64,9.64,0,0,0,907.53,154.07Z"/><path class="cls-2" d="M978.08,162.29l-3.59-8.87H953.34l-3.59,8.87H939.12L959,116.61h10.64l19.51,45.68Zm-21.34-17.16h14.42L964,127.38Z"/><path class="cls-2" d="M1025.22,130.44q3.49,3.66,3.5,9.79v22.06h-10.05V143.17a7.23,7.23,0,0,0-1.86-5.25,6.69,6.69,0,0,0-5.06-1.93,7.51,7.51,0,0,0-5.87,2.58,9.51,9.51,0,0,0-2.16,6.43v17.29H993.67V127.18h10.05v6.14q3.66-6.4,12.14-6.53A12.34,12.34,0,0,1,1025.22,130.44Z"/><path class="cls-2" d="M1057.76,162.29v-4.11a11.27,11.27,0,0,1-4.57,3.39,16.51,16.51,0,0,1-6.46,1.18q-5.55,0-8.81-3a10.3,10.3,0,0,1-3.27-7.93,9.32,9.32,0,0,1,3.5-7.73q3.48-2.78,9.88-2.84h9.66v-.65a5.31,5.31,0,0,0-1.86-4.34,8.41,8.41,0,0,0-5.45-1.53,21.76,21.76,0,0,0-10.44,3.06l-3.13-6.91a41.06,41.06,0,0,1,7.83-3.07,31,31,0,0,1,8-1q7,0,10.93,3.33a11.75,11.75,0,0,1,3.94,9.27l.07,22.9Zm-2.81-8.22a5.84,5.84,0,0,0,2.74-3.79v-3.13h-7.9a7.91,7.91,0,0,0-4.34.95,3.4,3.4,0,0,0-1.4,3,4,4,0,0,0,1.47,3.23,6.11,6.11,0,0,0,4,1.21A9.64,9.64,0,0,0,1055,154.07Z"/><path class="cls-2" d="M1076.62,113.87h10.05v48.42h-10.05Z"/><path class="cls-2" d="M1100.89,175.41a14.11,14.11,0,0,1-9.53-3.4l4.25-7.24a7.16,7.16,0,0,0,4.56,1.89,4.82,4.82,0,0,0,4.64-3.13l1-2-14.56-34.39h10.38l9.2,24.15,8.29-24.15h10.05l-15.4,39Q1110.09,175.41,1100.89,175.41Z"/><path class="cls-2" d="M1149.51,135a16.92,16.92,0,0,0-5-.88,5.82,5.82,0,0,0-2.94.65,2.14,2.14,0,0,0-1.11,2,2.42,2.42,0,0,0,1.5,2.22,28.71,28.71,0,0,0,4.89,1.76,50.76,50.76,0,0,1,6.14,2.19,11.43,11.43,0,0,1,4.18,3.19,8.49,8.49,0,0,1,1.76,5.58,9.45,9.45,0,0,1-4,8.13,17,17,0,0,1-10.27,2.9,27,27,0,0,1-8.29-1.27,21.48,21.48,0,0,1-6.92-3.62l3.26-6.79a20.69,20.69,0,0,0,6,3.23,19,19,0,0,0,6.23,1.14,6.51,6.51,0,0,0,3.23-.68,2.23,2.23,0,0,0,1.21-2.06,2.62,2.62,0,0,0-1.54-2.35,25.71,25.71,0,0,0-4.93-1.82,52,52,0,0,1-6-2.09,10.69,10.69,0,0,1-4.08-3.17,8.55,8.55,0,0,1-1.69-5.51,9.44,9.44,0,0,1,3.91-8.09,16.31,16.31,0,0,1,9.92-2.88,26.16,26.16,0,0,1,7.18,1,24,24,0,0,1,6.53,2.9l-3.46,6.85A30.09,30.09,0,0,0,1149.51,135Z"/><path class="cls-2" d="M1174.54,113.15a6.11,6.11,0,0,1,0,8.09,5.27,5.27,0,0,1-4,1.57,5.12,5.12,0,0,1-3.88-1.6,6,6,0,0,1,0-8.06,5.21,5.21,0,0,1,3.88-1.57A5.3,5.3,0,0,1,1174.54,113.15Zm-8.91,14h10v35.11h-10Z"/><path class="cls-2" d="M1201.78,135a16.86,16.86,0,0,0-5-.88,5.82,5.82,0,0,0-2.94.65,2.14,2.14,0,0,0-1.11,2,2.42,2.42,0,0,0,1.5,2.22,28.56,28.56,0,0,0,4.9,1.76,51.16,51.16,0,0,1,6.13,2.19,11.43,11.43,0,0,1,4.18,3.19,8.49,8.49,0,0,1,1.76,5.58,9.47,9.47,0,0,1-4,8.13,17.08,17.08,0,0,1-10.28,2.9,27,27,0,0,1-8.29-1.27,21.59,21.59,0,0,1-6.92-3.62L1185,151a20.51,20.51,0,0,0,6,3.23,19,19,0,0,0,6.23,1.14,6.49,6.49,0,0,0,3.23-.68,2.23,2.23,0,0,0,1.21-2.06,2.6,2.6,0,0,0-1.54-2.35,25.82,25.82,0,0,0-4.92-1.82,50.61,50.61,0,0,1-6-2.09,10.62,10.62,0,0,1-4.08-3.17,8.55,8.55,0,0,1-1.7-5.51,9.45,9.45,0,0,1,3.92-8.09,16.28,16.28,0,0,1,9.91-2.88,26.11,26.11,0,0,1,7.18,1,23.83,23.83,0,0,1,6.53,2.9l-3.46,6.85A29.81,29.81,0,0,0,1201.78,135Z"/><path class="cls-2" d="M806.18,182.38q4.77,4.14,4.77,11.71,0,8-4.8,12.37t-13.48,4.4H783.6v13.06H773.29V178.23h19.38Q801.42,178.23,806.18,182.38Zm-7.34,17.88a7.29,7.29,0,0,0,2.32-5.84,7,7,0,0,0-2.32-5.71c-1.55-1.28-3.77-1.93-6.69-1.93H783.6v15.47h8.55C795.07,202.25,797.29,201.59,798.84,200.26Z"/><path class="cls-2" d="M817.67,175.49h10.05v48.43H817.67Z"/><path class="cls-2" d="M858.13,223.92v-4.11a11.36,11.36,0,0,1-4.57,3.39,16.66,16.66,0,0,1-6.46,1.17q-5.55,0-8.81-3a10.31,10.31,0,0,1-3.26-7.93,9.3,9.3,0,0,1,3.49-7.73q3.48-2.77,9.88-2.84h9.66v-.66a5.29,5.29,0,0,0-1.86-4.33,8.33,8.33,0,0,0-5.45-1.54,21.67,21.67,0,0,0-10.44,3.07l-3.13-6.92a42.43,42.43,0,0,1,7.83-3.07,31.12,31.12,0,0,1,8-1q7.05,0,10.93,3.32t3.95,9.27l.06,22.91Zm-2.81-8.23a5.85,5.85,0,0,0,2.74-3.78v-3.13h-7.89a7.88,7.88,0,0,0-4.34.94,3.39,3.39,0,0,0-1.41,3,4,4,0,0,0,1.47,3.23,6.18,6.18,0,0,0,4,1.2A9.63,9.63,0,0,0,855.32,215.69Z"/><path class="cls-2" d="M898.39,222a16.31,16.31,0,0,1-4.34,1.79,18.63,18.63,0,0,1-4.79.62,11.35,11.35,0,0,1-8-2.8q-3.06-2.81-3.06-8V197.29h-4.9v-6.92h4.9v-9.66h10v9.66h9.53v7h-9.53v14.48q0,4,3.2,4a11.14,11.14,0,0,0,4.89-1.31Z"/><path class="cls-2" d="M917.51,184.37a3.91,3.91,0,0,0-1.17,3.07v2.93h8.29v7h-8.29v26.56h-10V197.36h-4.69v-7h4.69V187a11.84,11.84,0,0,1,1.73-6.49,11.21,11.21,0,0,1,4.67-4.11,15,15,0,0,1,6.53-1.4,18.35,18.35,0,0,1,6.91,1.43l-1.5,7.83a17.06,17.06,0,0,0-2.09-.68,8,8,0,0,0-2.08-.3A4.36,4.36,0,0,0,917.51,184.37Z"/><path class="cls-2" d="M954.29,190.7a16.06,16.06,0,0,1,6.62,6.26,19.92,19.92,0,0,1,0,18.77,16.16,16.16,0,0,1-6.62,6.33,22.71,22.71,0,0,1-19.71,0,16.1,16.1,0,0,1-6.62-6.33A19.92,19.92,0,0,1,928,197a16,16,0,0,1,6.62-6.26,23,23,0,0,1,19.71,0Zm-16.19,8.81a11.2,11.2,0,0,0,0,14,8.22,8.22,0,0,0,6.37,2.68,8.12,8.12,0,0,0,6.29-2.68,11.17,11.17,0,0,0,0-14,8.16,8.16,0,0,0-6.29-2.68A8.25,8.25,0,0,0,938.1,199.51Z"/><path class="cls-2" d="M984.73,190.18a13.9,13.9,0,0,1,6.85-1.76v9.46a14.35,14.35,0,0,0-1.56-.07,10.38,10.38,0,0,0-7.34,2.51A8.69,8.69,0,0,0,980,207v16.91H969.92V188.81H980v6.33A12.65,12.65,0,0,1,984.73,190.18Z"/><path class="cls-2" d="M1052.76,192q3.43,3.61,3.43,9.82v22.06h-10V204.8a7.28,7.28,0,0,0-1.83-5.29,6.58,6.58,0,0,0-5-1.89,7.22,7.22,0,0,0-5.68,2.54,9.63,9.63,0,0,0-2.09,6.4v17.36h-10V204.8a7.41,7.41,0,0,0-1.8-5.26,6.4,6.4,0,0,0-4.92-1.92,7.29,7.29,0,0,0-5.71,2.54,9.49,9.49,0,0,0-2.13,6.4v17.36H997.06V188.81h10.05v6.07q3.66-6.33,11.88-6.46a12.85,12.85,0,0,1,7.51,2.12,11.5,11.5,0,0,1,4.37,6,12.67,12.67,0,0,1,4.93-6,14.72,14.72,0,0,1,7.73-2.08A12.07,12.07,0,0,1,1052.76,192Z"/><line class="cls-3" x1="731.34" x2="731.34" y2="273.64"/></g></g></svg>