<svg xmlns="http://www.w3.org/2000/svg" viewBox="0 0 1245.07 171.27"><defs><style>.cls-1{fill:#aac8c8;}.cls-2{fill:#40494f;}</style></defs><g id="Layer_2" data-name="Layer 2"><g id="Layer_1-2" data-name="Layer 1"><path class="cls-1" d="M69.15,0Q89.69,0,105.3,9a61.23,61.23,0,0,1,24.2,25.88q8.59,16.88,8.59,41,0,23.46-8.8,41.07a67,67,0,0,1-24.52,27.45q-15.7,9.85-35.83,9.85-20.74,0-36.25-9a61.2,61.2,0,0,1-24.1-26Q0,102.27,0,78.37,0,54.91,8.91,37.3A68.13,68.13,0,0,1,33.32,9.85Q48.82,0,69.15,0Zm-.84,3.77A31.33,31.33,0,0,0,45.68,13.2Q36,22.64,30.8,39.19T25.56,77.53q0,22.22,5.87,38.66t15.93,25.36q10.05,8.91,22.42,8.91A31,31,0,0,0,92.31,141q9.52-9.43,14.87-26.09t5.35-38.25q0-22.41-6-38.76T90.63,12.68Q80.67,3.77,68.31,3.77Z"/><path class="cls-1" d="M204.1,2.93q38.76,0,57.62,18.76t18.86,53.75q0,22.85-9.22,39.92a64.31,64.31,0,0,1-26.71,26.5q-17.51,9.44-42.44,9.43-3.14,0-8.48-.21c-3.57-.13-7.23-.24-11-.31s-7.19-.11-10.26-.11q-8,0-15.61.11t-12.47.52V147.1a42,42,0,0,0,10.68-1.67,7.28,7.28,0,0,0,4.72-5q1.16-3.78,1.15-11.32V25.15q0-7.75-1.15-11.42a7.55,7.55,0,0,0-4.82-5,35.12,35.12,0,0,0-10.58-1.58V2.93q4.81.23,12.47.53t15.19.1q7.54-.21,16.87-.42C195.12,3,200.19,2.93,204.1,2.93Zm-3.56,3.78q-9.64,0-12.58,3.56c-2,2.38-2.93,7.19-2.93,14.46V129.5c0,7.27,1,12.08,3,14.46s6.25,3.56,12.68,3.56q21.15,0,32.89-8.28T250.2,115Q255,99.13,255,76.28q0-23.47-5.24-38.88t-17.08-23Q220.87,6.72,200.54,6.71Z"/><path class="cls-1" d="M346.8,2.1l51.13,131.59c2,5.17,4.22,8.66,6.81,10.48A14.35,14.35,0,0,0,412,147.1v4.19q-5-.42-11.84-.52t-13.72-.11q-8.81,0-16.35.11t-12.15.52V147.1q10.68-.42,13.51-3.67t-1.36-13.93L332.34,27.66l3.36-3.77-34.79,90.94q-3.77,9.44-4.5,15.72c-.5,4.19-.14,7.47,1,9.85a10.11,10.11,0,0,0,6.19,5,39.09,39.09,0,0,0,10.89,1.67v4.19q-6.28-.42-12.68-.52t-12-.11q-5,0-8.91.11a67.12,67.12,0,0,0-7,.52V147.1a19.6,19.6,0,0,0,8.8-5.24q4.4-4.19,8.38-14.25L339.68,2.1h7.12Zm22,88.84v4.19H306.36l2.09-4.19Z"/><path class="cls-1" d="M418.68,2.93q4.81.23,12.47.42t15.19.21q10.05,0,19.17-.21c6.08-.13,10.37-.21,12.89-.21q26.61,0,39.81,11.53t13.2,29.75a52.36,52.36,0,0,1-2.62,15.83,40.24,40.24,0,0,1-9.11,15.29q-6.49,7-17.6,11.42t-28.29,4.4H453.25V87.17h18.44q14,0,21.48-5.66a27.66,27.66,0,0,0,10.06-14.87,72.89,72.89,0,0,0,2.62-19.91q0-19.9-7.13-29.76T474,7.12q-9,0-11.84,3.57t-2.83,14.46V128.66q0,7.76,1.68,11.63a8.93,8.93,0,0,0,6.28,5.14,61.25,61.25,0,0,0,13.62,1.46v4.4q-5.66-.42-14.67-.52t-18.64-.11q-8.39,0-16,.11t-12.88.52V147.1a41.87,41.87,0,0,0,10.68-1.67,7.28,7.28,0,0,0,4.72-5q1.16-3.78,1.15-11.32V25.15q0-7.75-1.15-11.42a7.55,7.55,0,0,0-4.82-5,35.12,35.12,0,0,0-10.58-1.58Z"/><path class="cls-2" d="M594,62.63a27,27,0,0,1-9.87-1.84,25.12,25.12,0,0,1-8.48-5.51,26,26,0,0,1-5.92-9.11,34.18,34.18,0,0,1-2.19-12.77,33.91,33.91,0,0,1,2.19-12.68,25.63,25.63,0,0,1,6-9.11A26.21,26.21,0,0,1,594,4.17,27.58,27.58,0,0,1,603.91,6a24.39,24.39,0,0,1,8.48,5.46,26,26,0,0,1,5.92,9.15A34.51,34.51,0,0,1,620.5,33.4,34,34,0,0,1,618.31,46a26,26,0,0,1-5.92,9.16,25.51,25.51,0,0,1-8.48,5.54A26.41,26.41,0,0,1,594,62.63Zm0-1.76a11,11,0,0,0,7.48-2.48q2.85-2.47,4.15-8.48A81.54,81.54,0,0,0,607,33.4a82.15,82.15,0,0,0-1.31-16.59q-1.3-6-4.15-8.48A11,11,0,0,0,594,5.85a10.88,10.88,0,0,0-7.39,2.48q-2.86,2.47-4.16,8.48a82.27,82.27,0,0,0-1.3,16.59,81.66,81.66,0,0,0,1.3,16.51q1.31,6,4.16,8.48A10.88,10.88,0,0,0,594,60.87Z"/><path class="cls-2" d="M639.06,62.38a14.19,14.19,0,0,1-6-1.26,9.29,9.29,0,0,1-4.28-4.07,14.84,14.84,0,0,1-1.47-7.44L627.55,28a4.45,4.45,0,0,0-.67-2.77,3.65,3.65,0,0,0-2.1-1.18l-1-.34V22.9l15-2.94.84.84-.42,11.93V53a4.79,4.79,0,0,0,1.55,4,6,6,0,0,0,3.91,1.26,12.22,12.22,0,0,0,4.2-.67,15,15,0,0,0,3.69-2l.34-27.38a4.78,4.78,0,0,0-.59-2.73,3.49,3.49,0,0,0-2.18-1.13l-.84-.25v-.84L664,20l.84.84-.26,11.93V55.49a6.45,6.45,0,0,0,.51,2.86A3.9,3.9,0,0,0,667.28,60l.84.25v.84l-14.7.84-.75-5a30.13,30.13,0,0,1-6,3.82A17.44,17.44,0,0,1,639.06,62.38Z"/><path class="cls-2" d="M687.44,62.38q-5.37,0-8.36-2.69t-3-8.56V22.4h-5.8v-.84l2-.34a15.79,15.79,0,0,0,4.49-1.68,17.69,17.69,0,0,0,3.74-2.94L687.44,9h.84L688,20.72h9.4V22.4h-9.49V52.64a6.64,6.64,0,0,0,1.31,4.45,4.16,4.16,0,0,0,3.31,1.51,5.52,5.52,0,0,0,3.11-.88,14.09,14.09,0,0,0,2.69-2.39l.84.84a12.4,12.4,0,0,1-4.62,4.53A14.18,14.18,0,0,1,687.44,62.38Z"/><path class="cls-2" d="M716.16,62.21,702,61.12v-.84l.84-.17a3.87,3.87,0,0,0,3.27-4.2V11a5.41,5.41,0,0,0-.54-2.69A3.13,3.13,0,0,0,703.31,7l-1.17-.34V5.85l15-3.61,1,.76-.34,11.84v8.48a20.83,20.83,0,0,1,6-2.89,23.08,23.08,0,0,1,6.63-1,16.11,16.11,0,0,1,8.49,2.23,15,15,0,0,1,5.83,6.88,28.78,28.78,0,0,1,2.15,12,27.2,27.2,0,0,1-2.4,12.14A17.15,17.15,0,0,1,738.13,60a16.57,16.57,0,0,1-8.78,2.43,24.23,24.23,0,0,1-6.26-.84,20.42,20.42,0,0,1-5.58-2.35Zm9-2.68a7.16,7.16,0,0,0,4.71-1.68q2-1.68,3.19-5.76a42.3,42.3,0,0,0,1.17-11.21,42.52,42.52,0,0,0-1.09-11Q732,26,730.07,24.5A7.58,7.58,0,0,0,725.32,23,13.2,13.2,0,0,0,718,25.17V57.43A14.6,14.6,0,0,0,721.29,59,12.57,12.57,0,0,0,725.15,59.53Z"/><path class="cls-2" d="M750.6,61.12v-.84l1.26-.33a3.89,3.89,0,0,0,2.31-1.52,4.84,4.84,0,0,0,.63-2.6V29.54a4.74,4.74,0,0,0-.63-2.73,3.59,3.59,0,0,0-2.31-1.22l-1.26-.33v-.84l14.45-4.88.84.84.75,7.23v.67A17.88,17.88,0,0,1,769.71,24a17.33,17.33,0,0,1,4.2-3.23,9.51,9.51,0,0,1,4.58-1.26,6.44,6.44,0,0,1,4.87,1.76A6.21,6.21,0,0,1,785,25.68a5.81,5.81,0,0,1-1.64,4.41,5.49,5.49,0,0,1-3.9,1.55q-3.54,0-6.22-3.53l-.17-.17a2.81,2.81,0,0,0-1.93-1.3,2.26,2.26,0,0,0-2,1.05,6.35,6.35,0,0,0-1.38,1.81,20.07,20.07,0,0,0-1,2.39V55.33q0,3.36,2.94,4.2l2.69.75v.84Z"/><path class="cls-2" d="M807.38,19.46a18.29,18.29,0,0,1,9.32,2.23,15.24,15.24,0,0,1,5.93,6,18.09,18.09,0,0,1,2,8.7c0,.61,0,1.24-.08,1.89a7.59,7.59,0,0,1-.34,1.72h-25q.09,9.08,3.24,13.06t9.36,4a15,15,0,0,0,6.81-1.34,16.85,16.85,0,0,0,4.87-4l.84.75a19.43,19.43,0,0,1-6.93,7.23A19.82,19.82,0,0,1,807,62.38a21.44,21.44,0,0,1-10.58-2.56,18.06,18.06,0,0,1-7.22-7.35,23.52,23.52,0,0,1-2.61-11.42,21.63,21.63,0,0,1,3-11.72A20.26,20.26,0,0,1,797.43,22,20.92,20.92,0,0,1,807.38,19.46Zm-.25,1.68A6.19,6.19,0,0,0,803,22.61c-1.15,1-2,2.72-2.69,5.21a47.13,47.13,0,0,0-1,10.54H813.6q.84-9.15-.68-13.19A5.69,5.69,0,0,0,807.13,21.14Z"/><path class="cls-2" d="M840.81,62.38a12.32,12.32,0,0,1-8.19-2.77q-3.32-2.78-3.32-8c0-2.63,1.35-5.05,4-7.27s6.92-3.87,12.69-5l3-.55c1.12-.2,2.3-.4,3.53-.63V31.56c0-3.81-.46-6.48-1.39-8a4.67,4.67,0,0,0-4.32-2.31,4.07,4.07,0,0,0-3.19,1.31A8,8,0,0,0,842.15,27l-.16.92q-.18,3.61-1.77,5.3a5.22,5.22,0,0,1-4,1.68,5.05,5.05,0,0,1-3.61-1.35A4.72,4.72,0,0,1,831.23,30a7.8,7.8,0,0,1,2.4-5.8A15,15,0,0,1,840,20.64a29.69,29.69,0,0,1,8.57-1.18q7.47,0,11.55,3.65T864.16,35V53.56q0,3.78,3.53,3.78h1.85l.75.67a12.28,12.28,0,0,1-3.48,3.11,10.75,10.75,0,0,1-5.34,1.09,9.07,9.07,0,0,1-5.84-1.72,8.09,8.09,0,0,1-2.81-4.58,34.77,34.77,0,0,1-5.16,4.58A11.53,11.53,0,0,1,840.81,62.38Zm5.12-5.12a6.53,6.53,0,0,0,3.15-.8A22.68,22.68,0,0,0,852.57,54V39.87l-1.68.34c-.56.11-1.21.22-1.93.33a12.9,12.9,0,0,0-6.18,3.4,8.88,8.88,0,0,0-2.31,6.43,7.39,7.39,0,0,0,1.6,5.17A5.09,5.09,0,0,0,845.93,57.26Z"/><path class="cls-2" d="M872.22,61.12v-.84l1.26-.42a3.89,3.89,0,0,0,2.86-4.11V10.81a4,4,0,0,0-.67-2.52A4.65,4.65,0,0,0,873.31,7l-1.09-.26V5.85l15.37-3.61,1,.76-.25,11.76v41q0,3.36,2.77,4.2l1.18.33v.84Zm31.16,0-15-21L904,25.76a3.91,3.91,0,0,0,1.3-2.14c.14-.76-.35-1.3-1.47-1.64l-1.42-.42v-.84h12.51v.84l-2.52.67a11.06,11.06,0,0,0-3,1.39,29.9,29.9,0,0,0-2.73,2.22l-9.41,8.82,15,20.92a16.2,16.2,0,0,0,2.52,2.85,9.34,9.34,0,0,0,3,1.68l.34.17v.84Z"/><path class="cls-2" d="M939.41,61.12v-.84l1.77-.67a4.2,4.2,0,0,0,2.69-4.28V11.48q0-3.36-2.69-4.28l-1.77-.67V5.69h22.18A33.09,33.09,0,0,1,976.92,9a23.63,23.63,0,0,1,9.91,9.49,29.76,29.76,0,0,1,3.48,14.83,28.29,28.29,0,0,1-3.78,15A24.53,24.53,0,0,1,976,57.85a36.15,36.15,0,0,1-15.91,3.27Zm17.06-1.68h3.61q6,0,9.74-2.39T975.24,49Q977,43.31,977,33.4t-1.72-15.58q-1.72-5.67-5.34-8.06c-2.4-1.6-5.57-2.39-9.49-2.39h-3.94Z"/><path class="cls-2" d="M1005,62.38a12.32,12.32,0,0,1-8.19-2.77c-2.22-1.85-3.32-4.51-3.32-8q0-3.94,4-7.27t12.68-5l3-.55,3.52-.63V31.56c0-3.81-.46-6.48-1.38-8a4.7,4.7,0,0,0-4.33-2.31,4.08,4.08,0,0,0-3.19,1.31,8,8,0,0,0-1.51,4.49l-.17.92q-.16,3.61-1.76,5.3a5.24,5.24,0,0,1-3.95,1.68,5,5,0,0,1-3.61-1.35A4.69,4.69,0,0,1,995.44,30a7.83,7.83,0,0,1,2.39-5.8,15,15,0,0,1,6.34-3.52,29.74,29.74,0,0,1,8.57-1.18c5,0,8.83,1.22,11.55,3.65s4.07,6.4,4.07,11.89V53.56q0,3.78,3.53,3.78h1.85l.76.67a12.45,12.45,0,0,1-3.49,3.11,10.73,10.73,0,0,1-5.33,1.09,9,9,0,0,1-5.84-1.72,8,8,0,0,1-2.81-4.58,34.83,34.83,0,0,1-5.17,4.58A11.5,11.5,0,0,1,1005,62.38Zm5.12-5.12a6.53,6.53,0,0,0,3.15-.8,22.19,22.19,0,0,0,3.48-2.48V39.87l-1.68.34c-.56.11-1.2.22-1.93.33a12.91,12.91,0,0,0-6.17,3.4,8.88,8.88,0,0,0-2.31,6.43,7.39,7.39,0,0,0,1.59,5.17A5.13,5.13,0,0,0,1010.14,57.26Z"/><path class="cls-2" d="M1052.22,62.38c-3.59,0-6.37-.9-8.36-2.69s-3-4.64-3-8.56V22.4h-5.8v-.84l2-.34a15.91,15.91,0,0,0,4.49-1.68,17.69,17.69,0,0,0,3.74-2.94L1052.22,9h.84l-.25,11.76h9.4V22.4h-9.49V52.64a6.64,6.64,0,0,0,1.3,4.45,4.19,4.19,0,0,0,3.32,1.51,5.52,5.52,0,0,0,3.11-.88,14.4,14.4,0,0,0,2.69-2.39l.84.84a12.4,12.4,0,0,1-4.62,4.53A14.18,14.18,0,0,1,1052.22,62.38Z"/><path class="cls-2" d="M1078.84,62.38a12.36,12.36,0,0,1-8.19-2.77q-3.32-2.78-3.31-8,0-3.94,4-7.27t12.68-5l3-.55c1.12-.2,2.3-.4,3.53-.63V31.56c0-3.81-.46-6.48-1.38-8a4.7,4.7,0,0,0-4.33-2.31,4.08,4.08,0,0,0-3.19,1.31,7.89,7.89,0,0,0-1.51,4.49l-.17.92q-.16,3.61-1.76,5.3a5.24,5.24,0,0,1-4,1.68,5,5,0,0,1-3.61-1.35,4.69,4.69,0,0,1-1.43-3.61,7.83,7.83,0,0,1,2.39-5.8,15,15,0,0,1,6.34-3.52,29.74,29.74,0,0,1,8.57-1.18q7.47,0,11.55,3.65T1102.19,35V53.56q0,3.78,3.53,3.78h1.85l.76.67a12.45,12.45,0,0,1-3.49,3.11,10.73,10.73,0,0,1-5.33,1.09,9,9,0,0,1-5.84-1.72,8,8,0,0,1-2.82-4.58,34.28,34.28,0,0,1-5.16,4.58A11.51,11.51,0,0,1,1078.84,62.38Zm5.13-5.12a6.53,6.53,0,0,0,3.15-.8A22.19,22.19,0,0,0,1090.6,54V39.87l-1.68.34c-.56.11-1.2.22-1.93.33a12.87,12.87,0,0,0-6.17,3.4,8.88,8.88,0,0,0-2.31,6.43,7.39,7.39,0,0,0,1.59,5.17A5.13,5.13,0,0,0,1084,57.26Z"/><path class="cls-2" d="M566.57,151.11v-.84l2.1-.75a7.45,7.45,0,0,0,2.61-1.64,7.18,7.18,0,0,0,1.51-2.73l17.3-49.64h7.14l17,50a9,9,0,0,0,1.51,2.81,6.48,6.48,0,0,0,2.61,1.64l1,.33v.84H598.07v-.84l1.26-.42a3.15,3.15,0,0,0,2.14-1.89,4.91,4.91,0,0,0-.12-2.89l-4-12.1H578.75l-4,11.84a6.33,6.33,0,0,0-.38,2.94q.21,1.09,2,1.77l1.85.75v.84Zm12.77-19.82H596.9l-8.49-26.12Z"/><path class="cls-2" d="M622.18,151.11v-.84l1.17-.33a3.83,3.83,0,0,0,2.94-4.12V119.53a5,5,0,0,0-.58-2.73,3.43,3.43,0,0,0-2.27-1.22l-1.26-.33v-.84l14.36-4.87.84.84.67,5a26.27,26.27,0,0,1,6.64-4.29,17.55,17.55,0,0,1,7.31-1.68q5.54,0,8.52,3t3,9.24v24.19a3.88,3.88,0,0,0,3.19,4.11l.76.25v.84H647.63v-.84l1.09-.33a3.92,3.92,0,0,0,2.94-4.12V119c0-3.58-1.79-5.38-5.38-5.38q-3.69,0-8.06,3.7v28.56a3.83,3.83,0,0,0,2.94,4.11l.76.25v.84Z"/><path class="cls-2" d="M682.48,152.37a12.36,12.36,0,0,1-8.19-2.77q-3.31-2.78-3.31-8,0-3.94,4-7.26t12.68-5l3-.55,3.52-.63v-6.63q0-5.72-1.38-8a4.7,4.7,0,0,0-4.33-2.31,4.07,4.07,0,0,0-3.19,1.3,7.92,7.92,0,0,0-1.51,4.49l-.17.93c-.11,2.4-.7,4.17-1.76,5.29a5.24,5.24,0,0,1-3.95,1.68,5,5,0,0,1-3.61-1.35,4.69,4.69,0,0,1-1.43-3.61,7.81,7.81,0,0,1,2.39-5.79,14.92,14.92,0,0,1,6.34-3.53,29.74,29.74,0,0,1,8.57-1.18q7.47,0,11.55,3.66T705.83,125v18.56q0,3.78,3.53,3.78h1.85l.76.68a12.4,12.4,0,0,1-3.49,3.1,10.72,10.72,0,0,1-5.33,1.1,9.05,9.05,0,0,1-5.84-1.73,8,8,0,0,1-2.81-4.57,35.84,35.84,0,0,1-5.17,4.57A11.51,11.51,0,0,1,682.48,152.37Zm5.13-5.12a6.53,6.53,0,0,0,3.15-.8,22.19,22.19,0,0,0,3.48-2.48V129.86l-1.68.34c-.56.11-1.2.22-1.93.34a12.83,12.83,0,0,0-6.17,3.4,8.84,8.84,0,0,0-2.31,6.42,7.39,7.39,0,0,0,1.59,5.17A5.09,5.09,0,0,0,687.61,147.25Z"/><path class="cls-2" d="M714,151.11v-.84l1-.33a4.06,4.06,0,0,0,3-4.2V100.8a4.16,4.16,0,0,0-.67-2.56,4.09,4.09,0,0,0-2.35-1.3l-1.09-.25v-.84l15.37-3.62,1,.76-.34,11.76v28.72c0,2.08,0,4.13,0,6.18s0,4.07,0,6.09a5,5,0,0,0,.68,2.73A3.92,3.92,0,0,0,733,150l1.1.25v.84Z"/><path class="cls-2" d="M744.64,171.27a7.94,7.94,0,0,1-5.33-1.68,5.37,5.37,0,0,1-2-4.28,4.71,4.71,0,0,1,1.68-3.78,5.7,5.7,0,0,1,3.78-1.43,6.58,6.58,0,0,1,3.53.88,8.22,8.22,0,0,1,2.52,2.56l.59.68q1.85,2.52,3.69-.09a34.66,34.66,0,0,0,1.72-3.32q1-2.06,2.23-5.5l-16.3-39a11.74,11.74,0,0,0-1.25-2.56,5.09,5.09,0,0,0-2.19-1.64l-1.51-.59v-.84h20.91v.76l-1.68.67q-1.84.58-1.89,1.89a9.63,9.63,0,0,0,.63,3.23l8.74,22.68L770.84,117a7.31,7.31,0,0,0,.51-3.23c-.11-.87-.81-1.47-2.1-1.81l-1.77-.42v-.84h11.68v.84l-1.85.59a4.85,4.85,0,0,0-2.69,1.68,12.79,12.79,0,0,0-1.42,3l-13.53,36.88q-3.27,8.82-6.55,13.18A10.14,10.14,0,0,1,744.64,171.27Z"/><path class="cls-2" d="M795.12,152.37a26.21,26.21,0,0,1-7.39-1,34.21,34.21,0,0,1-6.05-2.4l.08-10h.84l2.86,5a15.23,15.23,0,0,0,4.07,5,9.35,9.35,0,0,0,5.67,1.63,10.82,10.82,0,0,0,6.51-1.8,5.7,5.7,0,0,0,2.48-4.83,6.17,6.17,0,0,0-1.76-4.54c-1.18-1.17-3.36-2.24-6.55-3.19l-3.53-1.09a17.43,17.43,0,0,1-8.07-4.7,11.13,11.13,0,0,1-2.94-7.82,12.09,12.09,0,0,1,4.37-9.4q4.37-3.87,12.52-3.87a25.51,25.51,0,0,1,6.17.72,24.23,24.23,0,0,1,5.59,2.14l-.51,9.07h-.84l-2.94-5.21a12.32,12.32,0,0,0-3.15-3.9,7.85,7.85,0,0,0-4.66-1.14,9.88,9.88,0,0,0-5.37,1.6,5.06,5.06,0,0,0-2.52,4.53,5.46,5.46,0,0,0,2.14,4.54,21.67,21.67,0,0,0,6.34,3.11l3.78,1.09q6,1.84,8.65,5.08a12,12,0,0,1,2.6,7.77,11.77,11.77,0,0,1-4.83,9.83Q803.85,152.37,795.12,152.37Z"/><path class="cls-2" d="M817.12,151.11v-.84l1.18-.33a3.93,3.93,0,0,0,2.31-1.51,5.05,5.05,0,0,0,.63-2.69V119.45a4.56,4.56,0,0,0-.63-2.65,3.59,3.59,0,0,0-2.31-1.22l-1.18-.25v-.84l15.38-4.95.84.84-.26,11.92v23.52a5,5,0,0,0,.63,2.69,3.86,3.86,0,0,0,2.23,1.51l.84.25v.84Zm9.92-46a6.89,6.89,0,0,1-4.83-1.8,6.33,6.33,0,0,1,0-9.2A7,7,0,0,1,827,92.32a6.83,6.83,0,0,1,4.78,1.76,6.42,6.42,0,0,1,0,9.2A6.73,6.73,0,0,1,827,105.08Z"/><path class="cls-2" d="M855,152.37a26.34,26.34,0,0,1-7.4-1,34.41,34.41,0,0,1-6-2.4l.08-10h.84l2.86,5a15.23,15.23,0,0,0,4.07,5,9.31,9.31,0,0,0,5.67,1.63,10.82,10.82,0,0,0,6.51-1.8,5.7,5.7,0,0,0,2.48-4.83,6.14,6.14,0,0,0-1.77-4.54c-1.17-1.17-3.36-2.24-6.55-3.19l-3.53-1.09a17.44,17.44,0,0,1-8.06-4.7,11.13,11.13,0,0,1-2.94-7.82,12.09,12.09,0,0,1,4.37-9.4q4.36-3.87,12.51-3.87a25.54,25.54,0,0,1,6.18.72,24,24,0,0,1,5.58,2.14l-.5,9.07h-.84l-2.94-5.21a12.46,12.46,0,0,0-3.15-3.9,7.87,7.87,0,0,0-4.66-1.14,9.91,9.91,0,0,0-5.38,1.6,5.06,5.06,0,0,0-2.52,4.53A5.48,5.48,0,0,0,852,121.8a21.88,21.88,0,0,0,6.35,3.11l3.78,1.09q6,1.84,8.65,5.08a12,12,0,0,1,2.6,7.77,11.77,11.77,0,0,1-4.83,9.83Q863.74,152.37,855,152.37Z"/><path class="cls-2" d="M895.57,151.11v-.84l1.68-.58a3.54,3.54,0,0,0,2.23-1.52,5.67,5.67,0,0,0,.54-2.68v-44a5.3,5.3,0,0,0-.58-2.68,4,4,0,0,0-2.27-1.6l-1.6-.67v-.84H916q12.53,0,18.1,4.57a14.84,14.84,0,0,1,5.59,12.06,17.22,17.22,0,0,1-2.31,8.78,15.8,15.8,0,0,1-7.6,6.34q-5.29,2.35-14.28,2.35h-2.86v15.45a4.16,4.16,0,0,0,3.28,4.29l2.52.75v.84Zm17-23h3.19a14.55,14.55,0,0,0,6.72-1.35,8.22,8.22,0,0,0,3.87-4.7,27.42,27.42,0,0,0,1.26-9.32,25.33,25.33,0,0,0-1.39-9.41,8.47,8.47,0,0,0-4.07-4.66,15.33,15.33,0,0,0-6.72-1.3h-2.86Z"/><path class="cls-2" d="M942.19,151.11v-.84l1-.33a4.06,4.06,0,0,0,3-4.2V100.8a4.16,4.16,0,0,0-.67-2.56,4.09,4.09,0,0,0-2.35-1.3l-1.1-.25v-.84l15.38-3.62,1,.76-.33,11.76v28.72c0,2.08,0,4.13,0,6.18s0,4.07,0,6.09a5,5,0,0,0,.67,2.73,4,4,0,0,0,2.27,1.55l1.09.25v.84Z"/><path class="cls-2" d="M977.38,152.37a12.32,12.32,0,0,1-8.19-2.77q-3.32-2.78-3.32-8,0-3.94,4-7.26t12.68-5l3-.55c1.12-.19,2.3-.4,3.53-.63v-6.63q0-5.72-1.38-8a4.7,4.7,0,0,0-4.33-2.31,4.07,4.07,0,0,0-3.19,1.3,7.92,7.92,0,0,0-1.51,4.49l-.17.93c-.12,2.4-.7,4.17-1.77,5.29a5.22,5.22,0,0,1-3.94,1.68,5.07,5.07,0,0,1-3.62-1.35,4.72,4.72,0,0,1-1.42-3.61,7.77,7.77,0,0,1,2.39-5.79,14.92,14.92,0,0,1,6.34-3.53,29.69,29.69,0,0,1,8.57-1.18q7.47,0,11.55,3.66t4.07,11.88v18.56q0,3.78,3.53,3.78h1.85l.75.68a12.24,12.24,0,0,1-3.48,3.1,10.74,10.74,0,0,1-5.34,1.1,9,9,0,0,1-5.83-1.73,8,8,0,0,1-2.82-4.57,35.26,35.26,0,0,1-5.16,4.57A11.53,11.53,0,0,1,977.38,152.37Zm5.13-5.12a6.49,6.49,0,0,0,3.14-.8,22.2,22.2,0,0,0,3.49-2.48V129.86l-1.68.34c-.56.11-1.2.22-1.93.34a12.78,12.78,0,0,0-6.17,3.4,8.79,8.79,0,0,0-2.31,6.42,7.39,7.39,0,0,0,1.59,5.17A5.06,5.06,0,0,0,982.51,147.25Z"/><path class="cls-2" d="M1024.59,152.37c-3.59,0-6.37-.89-8.36-2.68s-3-4.65-3-8.57V112.39h-5.8v-.84l2-.33a16.22,16.22,0,0,0,4.49-1.68,18.37,18.37,0,0,0,3.74-2.94l6.89-7.65h.84l-.26,11.76h9.41v1.68h-9.49v30.24a6.64,6.64,0,0,0,1.3,4.45,4.18,4.18,0,0,0,3.32,1.51,5.52,5.52,0,0,0,3.11-.88,13.72,13.72,0,0,0,2.68-2.39l.84.84a12.45,12.45,0,0,1-4.61,4.53A14.23,14.23,0,0,1,1024.59,152.37Z"/><path class="cls-2" d="M1039.12,151.11v-.84l1.09-.25a5,5,0,0,0,2.52-1.47,4,4,0,0,0,.92-2.73q0-3.1,0-6.17c0-2.05,0-4.1,0-6.18V112.39H1039v-.92l1.85-.34a3.3,3.3,0,0,0,2.44-1.17,6.87,6.87,0,0,0,1.09-2.78,18.63,18.63,0,0,1,2.48-5.75,29.28,29.28,0,0,1,3.73-4.58,18.65,18.65,0,0,1,6.76-4.24,21.71,21.71,0,0,1,7-1.22,13.57,13.57,0,0,1,6.13,1.39,5.27,5.27,0,0,1,1.43,8.15,5.21,5.21,0,0,1-3.78,1.3,6.62,6.62,0,0,1-3.7-1.09,11.12,11.12,0,0,1-3.27-3.87L1060,95.85a2.34,2.34,0,0,0-1.85-1.14c-.61,0-1.06.49-1.34,1.39A56.3,56.3,0,0,0,1056,103q-.3,3.95-.3,7.72h9.41v1.68h-9.41v33.26q0,3.19,3.36,4.12l2.1.5v.84Z"/><path class="cls-2" d="M1088,152.37a22.3,22.3,0,0,1-11.09-2.64,18.09,18.09,0,0,1-7.26-7.52,24.2,24.2,0,0,1-2.56-11.42,22.51,22.51,0,0,1,2.73-11.34,18.89,18.89,0,0,1,7.47-7.39,23.4,23.4,0,0,1,21.38,0,18.82,18.82,0,0,1,7.43,7.35,22.72,22.72,0,0,1,2.73,11.43,24.11,24.11,0,0,1-2.56,11.46,18.33,18.33,0,0,1-7.22,7.48A22.09,22.09,0,0,1,1088,152.37Zm0-1.68a6.52,6.52,0,0,0,4.7-1.68c1.18-1.12,2-3.1,2.57-6a70.48,70.48,0,0,0,.79-12.09,71,71,0,0,0-.79-12.18c-.54-2.86-1.39-4.85-2.57-6a6.52,6.52,0,0,0-4.7-1.68,6.71,6.71,0,0,0-4.75,1.68q-1.8,1.68-2.6,6a70.83,70.83,0,0,0-.8,12.18,70.29,70.29,0,0,0,.8,12.09c.53,2.86,1.4,4.84,2.6,6A6.71,6.71,0,0,0,1088,150.69Z"/><path class="cls-2" d="M1112.53,151.11v-.84l1.26-.33a3.93,3.93,0,0,0,2.31-1.51,4.87,4.87,0,0,0,.63-2.61V119.53a4.74,4.74,0,0,0-.63-2.73,3.59,3.59,0,0,0-2.31-1.22l-1.26-.33v-.84l14.44-4.87.84.84.76,7.22v.67a17.52,17.52,0,0,1,3.06-4.32,17.12,17.12,0,0,1,4.2-3.24,9.51,9.51,0,0,1,4.58-1.26,6.39,6.39,0,0,1,4.87,1.77,6.19,6.19,0,0,1,1.68,4.45,5.8,5.8,0,0,1-1.63,4.41,5.53,5.53,0,0,1-3.91,1.55c-2.35,0-4.42-1.17-6.22-3.53l-.16-.16a2.82,2.82,0,0,0-1.94-1.31,2.24,2.24,0,0,0-2,1.05,6.57,6.57,0,0,0-1.39,1.81,23.94,23.94,0,0,0-1,2.39v23.44q0,3.36,2.94,4.2l2.69.75v.84Z"/><path class="cls-2" d="M1149.57,151.11v-.84l1.17-.33a3.54,3.54,0,0,0,2.23-1.43,5.5,5.5,0,0,0,.71-2.69V119.53a5,5,0,0,0-.58-2.73,3.43,3.43,0,0,0-2.27-1.22l-1.26-.33v-.84l14.36-4.87.84.84.67,5.71a27.3,27.3,0,0,1,6.34-4.71,15.51,15.51,0,0,1,7.44-1.93,11.41,11.41,0,0,1,6.46,1.64,10,10,0,0,1,3.7,5.08,27,27,0,0,1,7.1-4.91,17.21,17.21,0,0,1,7.43-1.81c4,0,6.9,1,8.78,2.86s2.81,4.9,2.81,9v24.61a3.84,3.84,0,0,0,3,4.11l.92.25v.84h-19.4v-.84l.84-.25a3.84,3.84,0,0,0,2.22-1.51,5,5,0,0,0,.63-2.69v-25.7q0-3.53-1.26-4.83a5.39,5.39,0,0,0-4-1.3,9.9,9.9,0,0,0-4.24,1,20.18,20.18,0,0,0-4.33,2.9,13.22,13.22,0,0,1,.55,2.94c.08,1.07.13,2.19.13,3.36v21.76a3.94,3.94,0,0,0,3,4.11l.76.25v.84h-19.49v-.84l1.17-.33a4,4,0,0,0,2.23-1.47,4.83,4.83,0,0,0,.63-2.65V120.2c0-2.24-.41-3.83-1.22-4.78s-2.2-1.43-4.15-1.43a8.64,8.64,0,0,0-3.87,1,19.56,19.56,0,0,0-4,2.82v28.14a3.83,3.83,0,0,0,2.94,4.11l.76.25v.84Z"/><path class="cls-1" d="M1237.84,152.37a7,7,0,0,1-5.12-2.1,6.87,6.87,0,0,1-2.1-5,7.15,7.15,0,0,1,2.1-5.12,7.11,7.11,0,0,1,10.25,0,7.15,7.15,0,0,1,2.1,5.12,6.87,6.87,0,0,1-2.1,5A7,7,0,0,1,1237.84,152.37Z"/></g></g></svg>