<svg xmlns="http://www.w3.org/2000/svg" viewBox="0 0 971.25 270.37"><defs><style>.cls-1{fill:#89a0be;}.cls-2{fill:#414042;}</style></defs><g id="Layer_2" data-name="Layer 2"><g id="Layer_1-2" data-name="Layer 1"><rect class="cls-1" width="971.25" height="7"/><rect class="cls-1" y="263.37" width="971.25" height="7"/><path class="cls-2" d="M40.24,119.2a36.63,36.63,0,0,1-15.3-3.14A35.12,35.12,0,0,1,13,107.24,40,40,0,0,1,5.36,93.88,50.67,50.67,0,0,1,2.68,77.06V75.81A50.44,50.44,0,0,1,5.36,59.05,40.6,40.6,0,0,1,13,45.66a34.59,34.59,0,0,1,11.88-8.85,36.56,36.56,0,0,1,15.3-3.14A37.11,37.11,0,0,1,55.6,36.81a35,35,0,0,1,12,8.85,40.45,40.45,0,0,1,7.74,13.39A50.18,50.18,0,0,1,78,75.81v1.25a50.41,50.41,0,0,1-2.71,16.82,40.11,40.11,0,0,1-7.74,13.36,35.35,35.35,0,0,1-12,8.82A36.92,36.92,0,0,1,40.24,119.2Zm0-13A18.51,18.51,0,0,0,52,102.58a22.06,22.06,0,0,0,7.06-10.22,45.21,45.21,0,0,0,2.36-15.3V75.69A43.9,43.9,0,0,0,59,60.53a22.25,22.25,0,0,0-7.11-10.19,18.59,18.59,0,0,0-11.73-3.65A18.23,18.23,0,0,0,28.6,50.31a21.7,21.7,0,0,0-6.94,10.14,45.57,45.57,0,0,0-2.31,15.24v1.37a46,46,0,0,0,2.31,15.3,21.76,21.76,0,0,0,7,10.22A18.24,18.24,0,0,0,40.24,106.24Z"/><path class="cls-2" d="M109,119.2q-9.75,0-15.32-6.2T88.09,93.73V68l-6.8-1.71v-10h23.47V93.85q0,6.62,2.31,9.5t7,2.89a14.24,14.24,0,0,0,6.56-1.46,12.42,12.42,0,0,0,4.68-4.14V68L118,66.27v-10h24v50.07l7.43,1.72v10h-22l-1.14-7.82a20.12,20.12,0,0,1-7.31,6.68A20.81,20.81,0,0,1,109,119.2Z"/><path class="cls-2" d="M177.5,119.2q-8.62,0-13.28-4.74t-4.65-15V67.93h-8.51V56.22h8.51V41.09h16.61V56.22h11.36V67.93H176.18V99.39c0,2.39.51,4.11,1.52,5.13a5.49,5.49,0,0,0,4.13,1.54,24.43,24.43,0,0,0,3-.19c1.07-.14,2-.28,2.74-.43l1.43,12a45.76,45.76,0,0,1-5.56,1.23A37.39,37.39,0,0,1,177.5,119.2Z"/><path class="cls-2" d="M229,119.2a19.85,19.85,0,0,1-9.77-2.26,19,19,0,0,1-6.79-6.54l-1.2,7.6H196.85V40.69L188,39v-10h25.47V62.79a18.2,18.2,0,0,1,6.59-5.71,19.79,19.79,0,0,1,9.11-2,20.15,20.15,0,0,1,12.7,4,24.86,24.86,0,0,1,8,11.33,48.8,48.8,0,0,1,2.74,17.18v1.2a42.78,42.78,0,0,1-2.74,16,23.28,23.28,0,0,1-8,10.59A21.46,21.46,0,0,1,229,119.2Zm-5-13q6.39,0,9.19-4.54T236,88.82v-1.2a38.83,38.83,0,0,0-1.23-10.42,14.2,14.2,0,0,0-3.82-6.76,9.58,9.58,0,0,0-6.77-2.4,11.45,11.45,0,0,0-6.45,1.77,12.23,12.23,0,0,0-4.22,4.8v25.8a11.7,11.7,0,0,0,4.36,4.34A12.38,12.38,0,0,0,224,106.24Z"/><path class="cls-2" d="M259.2,118V108l8-1.72V68l-8.85-1.71v-10h24.38l.63,7.65.11,1.37a19.36,19.36,0,0,1,5.66-7.59,12.88,12.88,0,0,1,8.05-2.57,23.06,23.06,0,0,1,3.25.26,23.94,23.94,0,0,1,3.14.65l-1.77,15.36-8.28-.45a9.71,9.71,0,0,0-5.74,1.2A13.07,13.07,0,0,0,283.86,76v30.26l8,1.72v10Z"/><path class="cls-2" d="M334.62,119.2a29.91,29.91,0,0,1-15.47-3.91,26.84,26.84,0,0,1-10.25-10.77,32.87,32.87,0,0,1-3.63-15.64V86.6a37.15,37.15,0,0,1,3.43-16.3,27,27,0,0,1,9.68-11.19,26,26,0,0,1,14.75-4q8.4,0,14.11,3.31a21.41,21.41,0,0,1,8.68,9.54,34.91,34.91,0,0,1,3,15.07v9.08H322.57l-.11.34a18.45,18.45,0,0,0,2,7.22,12.38,12.38,0,0,0,4.76,5,14.61,14.61,0,0,0,7.48,1.8,30.08,30.08,0,0,0,8.54-1.17,32.54,32.54,0,0,0,7.73-3.46l4.51,10.28a31.87,31.87,0,0,1-9.62,5.11A40.09,40.09,0,0,1,334.62,119.2ZM322.69,81.06H343.3V79.57a18.94,18.94,0,0,0-1-6.48,8.43,8.43,0,0,0-3.2-4.19,9.94,9.94,0,0,0-5.68-1.49,8.94,8.94,0,0,0-5.59,1.74,11.41,11.41,0,0,0-3.57,4.77,24.82,24.82,0,0,0-1.74,6.85Z"/><path class="cls-2" d="M384.92,119.2q-9.19,0-14.62-4.94t-5.42-13.45a17,17,0,0,1,3.17-10.22,20.72,20.72,0,0,1,9.36-6.9,40.65,40.65,0,0,1,15.27-2.52h8.17V76.61a10.16,10.16,0,0,0-2.6-7.23c-1.73-1.84-4.33-2.77-7.79-2.77a16.4,16.4,0,0,0-4.83.66,13.74,13.74,0,0,0-3.85,1.86l-1.31,8.16h-12l-.23-16a52.22,52.22,0,0,1,10.5-4.46,43.53,43.53,0,0,1,12.62-1.71q12.11,0,19.13,5.62t7,16.08v25.46c0,.84,0,1.67,0,2.48a18,18,0,0,0,.2,2.37l6.45.92v10H403.53c-.42-1.07-.84-2.21-1.25-3.43a21.22,21.22,0,0,1-.92-3.65,23.44,23.44,0,0,1-7,6A19,19,0,0,1,384.92,119.2Zm4.45-12.34a14.63,14.63,0,0,0,6.63-1.57,12.15,12.15,0,0,0,4.85-4.14V91.39h-8.22q-5.49,0-8.31,2.51a7.86,7.86,0,0,0-2.83,6.06,6.4,6.4,0,0,0,2.09,5.11A8.57,8.57,0,0,0,389.37,106.86Z"/><path class="cls-2" d="M426.88,118V108l8.05-1.72V40.69L426,39v-10h25.52v77.36l7.19,1.72v10Zm22.9-16.9-8-9.31,26.83-24.55.11-.17-6.34-.91V56.22h32.15v10l-8,2ZM466.22,118v-9.48l4.68-1.08-.11-.23L458.57,90.59l10.62-10.9,20.27,26.55,7.65,1.77v10Z"/><path class="cls-2" d="M526.51,118V108l9-1.89V46.86l-9-1.94V34.87H563a36.67,36.67,0,0,1,19.63,5.23,35.85,35.85,0,0,1,13.28,14.44,45.39,45.39,0,0,1,4.76,21.15v1.54a45.58,45.58,0,0,1-4.7,21,35.85,35.85,0,0,1-13.16,14.47A36.28,36.28,0,0,1,563.22,118Zm25.64-12.73h10.22a18.84,18.84,0,0,0,11.7-3.63,22.83,22.83,0,0,0,7.34-10A38.67,38.67,0,0,0,584,77.23v-1.6a38.68,38.68,0,0,0-2.54-14.52,22.4,22.4,0,0,0-7.34-9.88,19.05,19.05,0,0,0-11.7-3.57H552.15Z"/><path class="cls-2" d="M626.65,119.2q-9.18,0-14.61-4.94t-5.42-13.45a17,17,0,0,1,3.16-10.22,20.81,20.81,0,0,1,9.37-6.9,40.65,40.65,0,0,1,15.27-2.52h8.16V76.61A10.16,10.16,0,0,0,640,69.38c-1.74-1.84-4.33-2.77-7.8-2.77a16.33,16.33,0,0,0-4.82.66,13.81,13.81,0,0,0-3.86,1.86l-1.31,8.16h-12l-.23-16a52.31,52.31,0,0,1,10.51-4.46,43.48,43.48,0,0,1,12.62-1.71q12.09,0,19.12,5.62t7,16.08v25.46c0,.84,0,1.67,0,2.48a19.92,19.92,0,0,0,.2,2.37l6.45.92v10H645.27c-.42-1.07-.84-2.21-1.26-3.43a21.18,21.18,0,0,1-.91-3.65,23.35,23.35,0,0,1-7,6A19,19,0,0,1,626.65,119.2Zm4.46-12.34a14.56,14.56,0,0,0,6.62-1.57,12.15,12.15,0,0,0,4.85-4.14V91.39h-8.22q-5.48,0-8.31,2.51a7.85,7.85,0,0,0-2.82,6.06,6.39,6.39,0,0,0,2.08,5.11A8.58,8.58,0,0,0,631.11,106.86Z"/><path class="cls-2" d="M691.74,119.2q-8.62,0-13.27-4.74t-4.66-15V67.93h-8.5V56.22h8.5V41.09h16.62V56.22h11.36V67.93H690.43V99.39c0,2.39.5,4.11,1.51,5.13a5.53,5.53,0,0,0,4.14,1.54,24.68,24.68,0,0,0,3-.19c1.06-.14,2-.28,2.74-.43l1.43,12a45.93,45.93,0,0,1-5.57,1.23A37.39,37.39,0,0,1,691.74,119.2Z"/><path class="cls-2" d="M727.77,119.2q-9.19,0-14.62-4.94t-5.42-13.45a17,17,0,0,1,3.17-10.22,20.72,20.72,0,0,1,9.36-6.9,40.65,40.65,0,0,1,15.27-2.52h8.17V76.61a10.16,10.16,0,0,0-2.6-7.23c-1.73-1.84-4.33-2.77-7.8-2.77a16.38,16.38,0,0,0-4.82.66,13.61,13.61,0,0,0-3.85,1.86l-1.32,8.16h-12l-.23-16a52,52,0,0,1,10.5-4.46,43.48,43.48,0,0,1,12.62-1.71q12.1,0,19.12,5.62t7,16.08v25.46c0,.84,0,1.67,0,2.48a18.05,18.05,0,0,0,.19,2.37l6.46.92v10H746.38c-.42-1.07-.84-2.21-1.26-3.43a21.18,21.18,0,0,1-.91-3.65,23.44,23.44,0,0,1-7,6A19.09,19.09,0,0,1,727.77,119.2Zm4.45-12.34a14.56,14.56,0,0,0,6.62-1.57,12.18,12.18,0,0,0,4.86-4.14V91.39h-8.23q-5.47,0-8.3,2.51a7.83,7.83,0,0,0-2.83,6.06,6.4,6.4,0,0,0,2.09,5.11A8.56,8.56,0,0,0,732.22,106.86Z"/><path class="cls-2" d="M1.31,226.31v-10l5.94-.86,26.43-72.28H50.75L77,215.46l5.94.86v10H54.63v-10l5.77-1-3.66-11.42H27.51l-3.65,11.42,5.76,1v10Zm30.14-34.72H52.8l-9.7-28.48-.8-2.52H42l-.86,2.69Z"/><path class="cls-2" d="M84.78,226.31v-10l8-1.72V176.29l-8.85-1.71V164.53H108.3l.74,8.85a22.56,22.56,0,0,1,7.62-7.36A20.34,20.34,0,0,1,127,163.39q9.18,0,14.38,5.88t5.2,18.44V214.6l8,1.72v10H122.74v-10l7.14-1.72V187.77q0-6.22-2.46-8.82c-1.63-1.73-4.07-2.6-7.3-2.6a12.49,12.49,0,0,0-6.25,1.51,12.66,12.66,0,0,0-4.43,4.31V214.6l6.74,1.72v10Z"/><path class="cls-2" d="M178.35,227.51q-9.19,0-14.61-4.94t-5.43-13.45a17,17,0,0,1,3.17-10.22,20.84,20.84,0,0,1,9.37-6.91,40.82,40.82,0,0,1,15.27-2.51h8.16v-4.57a10.11,10.11,0,0,0-2.6-7.22c-1.73-1.84-4.33-2.77-7.79-2.77a16.28,16.28,0,0,0-4.82.66,13.81,13.81,0,0,0-3.86,1.86l-1.31,8.16h-12l-.23-16a52.31,52.31,0,0,1,10.51-4.46,43.46,43.46,0,0,1,12.61-1.71q12.1,0,19.13,5.62t7,16.08v25.46c0,.84,0,1.67,0,2.48a19.92,19.92,0,0,0,.2,2.37l6.45.92v10H197c-.42-1.07-.84-2.21-1.26-3.43a21.18,21.18,0,0,1-.91-3.65,23.35,23.35,0,0,1-7,6A19,19,0,0,1,178.35,227.51Zm4.46-12.34a14.56,14.56,0,0,0,6.62-1.57,12.15,12.15,0,0,0,4.85-4.14V199.7h-8.22q-5.48,0-8.31,2.51a7.85,7.85,0,0,0-2.82,6.06,6.39,6.39,0,0,0,2.08,5.11A8.64,8.64,0,0,0,182.81,215.17Z"/><path class="cls-2" d="M220.32,226.31v-10l8.05-1.72V149l-8.91-1.71v-10H245V214.6l8.05,1.72v10Z"/><path class="cls-2" d="M273.3,251.26a30,30,0,0,1-4.59-.38,36.19,36.19,0,0,1-4.6-1L266,237.67a21.65,21.65,0,0,0,2.4.34c.88.08,1.64.11,2.28.11a10.38,10.38,0,0,0,6.23-1.88,10.64,10.64,0,0,0,3.82-5.42l1.37-3.83-20.66-51.32-7.6-1.09V164.53H286.6v10.05l-7.53,1.14,9.7,27.24,1.2,3.36h.34l11.48-30.71-7.37-1V164.53H325v10.05l-7,1L294.42,235.5a34.65,34.65,0,0,1-4.36,7.85,20,20,0,0,1-6.74,5.74A21.21,21.21,0,0,1,273.3,251.26Z"/><path class="cls-2" d="M353.69,227.51a59.59,59.59,0,0,1-12.88-1.32,59,59,0,0,1-11.44-3.76L329.2,205h11.59l2.22,8.91a20.23,20.23,0,0,0,4.26,1.54,22.13,22.13,0,0,0,5.28.57q5.59,0,7.87-1.82a5.61,5.61,0,0,0,2.29-4.57,5.75,5.75,0,0,0-2.43-4.54q-2.43-2-9.67-3.45-11-2.29-16.16-7.08a16,16,0,0,1-5.2-12.28,17.55,17.55,0,0,1,2.6-9.36,18.32,18.32,0,0,1,7.94-6.8q5.32-2.56,13.67-2.56a56.28,56.28,0,0,1,12.76,1.34,37.63,37.63,0,0,1,9.73,3.51l.17,16.9H364.59l-1.77-8.11a10.83,10.83,0,0,0-3.62-1.71,17.88,17.88,0,0,0-4.71-.57q-4.39,0-6.74,1.77a5.47,5.47,0,0,0-2.34,4.56,5.64,5.64,0,0,0,.83,3,7.55,7.55,0,0,0,3.28,2.57,35.54,35.54,0,0,0,7.14,2.29q11.47,2.63,16.72,7t5.26,12.25a17.42,17.42,0,0,1-6.25,13.93Q366.14,227.51,353.69,227.51Z"/><path class="cls-2" d="M383.38,226.31v-10l8.05-1.72V176.29l-8.91-1.71V164.53H408.1V214.6l8,1.72v10Zm7.48-74.85V137.24H408.1v14.22Z"/><path class="cls-2" d="M445.78,227.51a59.49,59.49,0,0,1-12.87-1.32,58.83,58.83,0,0,1-11.45-3.76L421.29,205h11.59l2.22,8.91a20.44,20.44,0,0,0,4.26,1.54,22.13,22.13,0,0,0,5.28.57q5.6,0,7.88-1.82a5.63,5.63,0,0,0,2.28-4.57,5.77,5.77,0,0,0-2.42-4.54q-2.43-2-9.68-3.45-11-2.29-16.16-7.08a16,16,0,0,1-5.19-12.28,17.55,17.55,0,0,1,2.59-9.36,18.32,18.32,0,0,1,7.94-6.8q5.34-2.56,13.67-2.56a56.22,56.22,0,0,1,12.76,1.34,37.85,37.85,0,0,1,9.74,3.51l.17,16.9H456.69l-1.77-8.11a10.88,10.88,0,0,0-3.63-1.71,17.88,17.88,0,0,0-4.71-.57q-4.4,0-6.74,1.77a5.47,5.47,0,0,0-2.34,4.56,5.64,5.64,0,0,0,.83,3,7.61,7.61,0,0,0,3.28,2.57,35.54,35.54,0,0,0,7.14,2.29q11.47,2.63,16.73,7t5.25,12.25a17.39,17.39,0,0,1-6.25,13.93Q458.23,227.51,445.78,227.51Z"/><path class="cls-2" d="M501.91,226.31v-10l8.85-1.72V154.94l-8.85-1.71v-10h39.56a37.35,37.35,0,0,1,16.44,3.34,24.88,24.88,0,0,1,10.62,9.31,27.89,27.89,0,0,1,0,27.8,24.5,24.5,0,0,1-10.62,9.25,37.93,37.93,0,0,1-16.44,3.28h-14V214.6l8.9,1.72v10Zm25.52-43h14c4.64,0,8.16-1.27,10.53-3.8a13.57,13.57,0,0,0,3.57-9.68,14.11,14.11,0,0,0-3.57-9.9c-2.37-2.61-5.89-3.91-10.53-3.91h-14Z"/><path class="cls-2" d="M574.7,226.31v-10l8-1.72V149l-8.91-1.71v-10h25.58V214.6l8.05,1.72v10Z"/><path class="cls-2" d="M631.22,227.51q-9.19,0-14.61-4.94t-5.43-13.45a17,17,0,0,1,3.17-10.22,20.84,20.84,0,0,1,9.37-6.91A40.82,40.82,0,0,1,639,189.48h8.16v-4.57a10.11,10.11,0,0,0-2.6-7.22c-1.73-1.84-4.33-2.77-7.79-2.77a16.28,16.28,0,0,0-4.82.66,13.81,13.81,0,0,0-3.86,1.86l-1.31,8.16h-12l-.23-16a52.31,52.31,0,0,1,10.51-4.46,43.46,43.46,0,0,1,12.61-1.71q12.11,0,19.13,5.62t7,16.08v25.46c0,.84,0,1.67,0,2.48a19.92,19.92,0,0,0,.2,2.37l6.45.92v10H649.83c-.41-1.07-.83-2.21-1.25-3.43a21.18,21.18,0,0,1-.91-3.65,23.35,23.35,0,0,1-7,6A19,19,0,0,1,631.22,227.51Zm4.46-12.34a14.56,14.56,0,0,0,6.62-1.57,12.15,12.15,0,0,0,4.85-4.14V199.7h-8.22q-5.48,0-8.31,2.51a7.85,7.85,0,0,0-2.82,6.06,6.39,6.39,0,0,0,2.08,5.11A8.64,8.64,0,0,0,635.68,215.17Z"/><path class="cls-2" d="M696.31,227.51q-8.62,0-13.27-4.74t-4.66-15V176.24h-8.5V164.53h8.5V149.4H695v15.13h11.36v11.71H695v31.45c0,2.4.5,4.12,1.51,5.14a5.53,5.53,0,0,0,4.14,1.54,24.68,24.68,0,0,0,3-.19c1.06-.14,2-.28,2.74-.43l1.43,12a45.93,45.93,0,0,1-5.57,1.23A37.39,37.39,0,0,1,696.31,227.51Z"/><path class="cls-2" d="M712.58,226.31v-10l8-1.72V176.24h-9.19V164.53h9.19v-6.85q0-10.4,6-16T743.3,136a40.44,40.44,0,0,1,5.65.43,44.8,44.8,0,0,1,5.08,1l-1.43,12.39a18.08,18.08,0,0,0-3.14-.6,32.8,32.8,0,0,0-3.59-.2q-4.35,0-6.45,2.23a8.91,8.91,0,0,0-2.12,6.39v6.85h14v11.71h-14V214.6l10.91,1.72v10Z"/><path class="cls-2" d="M784.41,227.51a29.64,29.64,0,0,1-15.7-4,26.14,26.14,0,0,1-10.05-11.11,36.58,36.58,0,0,1-3.49-16.35v-1.2a36.48,36.48,0,0,1,3.49-16.3,26.37,26.37,0,0,1,10-11.13,32.42,32.42,0,0,1,31.31,0,26.47,26.47,0,0,1,10,11.1,36.56,36.56,0,0,1,3.49,16.33v1.2A36.71,36.71,0,0,1,810,212.4a26.26,26.26,0,0,1-10,11.11A29.24,29.24,0,0,1,784.41,227.51Zm0-12.79a10.53,10.53,0,0,0,7.08-2.34,13.82,13.82,0,0,0,4-6.54,33.06,33.06,0,0,0,1.31-9.79v-1.2a32.62,32.62,0,0,0-1.31-9.68,13.87,13.87,0,0,0-4.08-6.56,11.89,11.89,0,0,0-14.25,0,13.57,13.57,0,0,0-4.08,6.56,33,33,0,0,0-1.28,9.68v1.2a33.75,33.75,0,0,0,1.28,9.82,13.2,13.2,0,0,0,4.08,6.53A10.89,10.89,0,0,0,784.41,214.72Z"/><path class="cls-2" d="M819.8,226.31v-10l8-1.72V176.29L819,174.58V164.53h24.38l.63,7.65.11,1.37a19.27,19.27,0,0,1,5.65-7.59,12.92,12.92,0,0,1,8-2.57,23.08,23.08,0,0,1,3.26.26,24.29,24.29,0,0,1,3.14.65l-1.77,15.36-8.28-.45a9.77,9.77,0,0,0-5.74,1.19,13.11,13.11,0,0,0-3.91,3.94V214.6l8,1.72v10Z"/><path class="cls-2" d="M866.57,226.31v-10l8-1.72V176.29l-8.91-1.71V164.53h24.38l.68,8.17a20.75,20.75,0,0,1,7.45-6.88,21.43,21.43,0,0,1,10.36-2.43,19.07,19.07,0,0,1,10.2,2.63,15.86,15.86,0,0,1,6.36,7.93,21.38,21.38,0,0,1,7.42-7.76,20.13,20.13,0,0,1,10.74-2.8q9.13,0,14.41,6.22t5.28,19v26l8,1.72v10H939.13v-10l7.19-1.72V188.51c0-4.57-.75-7.73-2.25-9.5a8.12,8.12,0,0,0-6.54-2.66,10,10,0,0,0-6.57,2.2,12.38,12.38,0,0,0-3.88,5.79V214.6l6.74,1.72v10H903.73v-10l6.74-1.72V188.51q0-6.67-2.26-9.42t-6.65-2.74a12.43,12.43,0,0,0-6.11,1.43,11.45,11.45,0,0,0-4.22,4.11V214.6l7.19,1.72v10Z"/></g></g></svg>