<?xml version="1.0" encoding="utf-8"?>
<!-- Generator: Adobe Illustrator 13.0.0, SVG Export Plug-In . SVG Version: 6.00 Build 14948)  -->
<!DOCTYPE svg PUBLIC "-//W3C//DTD SVG 1.1//EN" "http://www.w3.org/Graphics/SVG/1.1/DTD/svg11.dtd">
<svg version="1.1" id="Layer_1" xmlns="http://www.w3.org/2000/svg" xmlns:xlink="http://www.w3.org/1999/xlink" x="0px" y="0px"
	 width="427.188px" height="158.875px" viewBox="0 0 427.188 158.875" enable-background="new 0 0 427.188 158.875"
	 xml:space="preserve">
<g>
	<polygon fill="#81A2A3" points="76.732,65.308 76.967,65.137 89.276,74.102 89.973,73.334 136.389,22.246 114.237,22.26 
		95.73,8.732 77.181,22.173 54.274,22.146 47.168,43.926 28.62,57.367 35.759,79.165 28.566,100.945 47.133,114.589 48.539,118.934 
		57.843,108.697 64.874,100.958 57.773,79.039 	"/>
	<polygon fill="#A3BCBE" points="162.718,57.56 144.212,44.041 137.311,22.721 90.09,74.694 96.117,79.084 88.956,101.031 
		97.39,112.712 114.459,136.348 137.017,136.326 144.094,114.527 162.671,101.101 155.623,79.307 	"/>
	<polygon fill="#5E8788" points="50.677,118.07 48.894,120.032 54.135,136.228 77.043,136.253 95.55,149.737 113.503,136.735 
		96.511,113.204 88.138,101.607 65.661,101.579 	"/>
	<polygon fill="#E83E36" points="89.548,75.291 88.734,74.698 76.966,66.126 58.714,79.346 65.495,100.274 65.658,100.778 
		66.388,100.779 87.559,100.805 88.187,100.806 88.376,100.227 95.175,79.389 	"/>
</g>
<g>
	<rect x="0.002" y="0.002" fill="none" width="359.099" height="158.869"/>
	<rect x="0.002" y="0.002" fill="none" width="191.58" height="158.869"/>
	<g>
		<g>
			<polygon fill="none" points="107.175,158.871 114.226,137.154 95.752,123.739 77.284,137.162 84.343,158.875 89.832,158.873 			
				"/>
		</g>
	</g>
	<g>
		<g>
			<polygon fill="none" points="84.334,0.004 77.284,21.72 95.758,35.136 114.226,21.712 107.166,0 101.678,0.001 			"/>
		</g>
	</g>
	<g>
		<g>
			<polygon fill="none" points="191.582,67.928 169.865,60.878 156.449,79.352 169.872,97.819 191.585,90.759 191.583,85.271 			"/>
		</g>
	</g>
	<g>
		<g>
			<polygon fill="none" points="359.099,18.677 337.382,11.627 323.967,30.101 337.39,48.569 359.103,41.509 359.102,36.021 			"/>
		</g>
	</g>
	<g>
		<g>
			<polygon fill="none" points="0.004,90.769 21.721,97.819 35.136,79.347 21.713,60.878 0,67.938 0.001,73.426 			"/>
		</g>
	</g>
</g>
<g>
	<g>
		<g>
			<polygon fill="#E83E36" points="88.341,101.177 95.393,79.461 76.918,66.046 58.451,79.468 65.51,101.181 70.998,101.178 			"/>
		</g>
	</g>
</g>
<path fill="none" d="M301.901,76.987h4.763v4.525h-4.763V76.987z"/>
<path fill="none" d="M197.048,73.912h4.763v4.526h-4.763V73.912z"/>
<path fill="none" d="M191.246,105.446h4.763v4.525h-4.763V105.446z"/>
<path fill="none" d="M194.82,42.384h59.571v4.525H194.82V42.384z"/>
<g>
	<path fill="#E83E36" d="M196.473,107.059c-5.128-6.097-7.694-15.271-7.694-27.53c0-12.259,2.564-21.438,7.694-27.531
		c5.129-6.094,12.378-9.14,21.746-9.14c9.363,0,16.612,3.046,21.743,9.14c5.13,6.093,7.696,15.273,7.696,27.531
		s-2.564,21.434-7.696,27.53c-5.131,6.094-12.378,9.14-21.743,9.14C208.851,116.199,201.602,113.153,196.473,107.059z
		 M229.993,98.895c2.687-3.958,4.026-9.556,4.026-16.784v-5.166c0-7.232-1.341-12.825-4.026-16.787
		c-2.688-3.957-6.611-5.939-11.776-5.939s-9.092,1.982-11.775,5.939c-2.688,3.962-4.027,9.554-4.027,16.787v5.166
		c0,7.229,1.341,12.826,4.027,16.784c2.686,3.959,6.608,5.94,11.775,5.94C223.382,104.835,227.307,102.854,229.993,98.895z"/>
	<path fill="#E83E36" d="M257.365,44.094H280.4c8.951,0,15.927,2.932,20.917,8.783c4.994,5.857,7.489,14.396,7.489,25.621
		c0,11.914-2.479,20.966-7.438,27.164c-4.955,6.201-11.947,9.299-20.968,9.299h-23.034L257.365,44.094L257.365,44.094z
		 M279.162,103.183c5.024,0,8.95-1.873,11.774-5.628c2.82-3.754,4.235-9.248,4.235-16.478v-5.163c0-6.545-1.415-11.521-4.235-14.931
		c-2.824-3.408-6.75-5.115-11.774-5.115h-8.576v47.313L279.162,103.183L279.162,103.183z"/>
	<path fill="#E83E36" d="M335.147,44.094h15.392l22.83,70.866h-13.532l-4.34-13.947h-26.131l-4.236,13.947h-12.809L335.147,44.094z
		 M351.885,89.238l-7.128-23.655c-0.689-2.344-1.38-5.543-2.064-9.606h-0.415c-0.688,4.338-1.379,7.541-2.065,9.606l-7.229,23.655
		H351.885z"/>
	<path fill="#E83E36" d="M379.672,44.094h25.307c7.093,0,12.568,1.968,16.425,5.894c3.854,3.923,5.785,9.053,5.785,15.389
		c0,4.41-0.931,8.281-2.789,11.619c-1.858,3.341-4.458,5.923-7.8,7.748c-3.341,1.827-7.216,2.738-11.621,2.738h-12.085v27.48
		h-13.222V44.094L379.672,44.094z M403.634,75.809c3.17,0,5.612-0.915,7.335-2.741c1.721-1.823,2.584-4.39,2.584-7.694
		c0-2.892-0.882-5.203-2.636-6.923c-1.759-1.719-4.187-2.583-7.283-2.583h-10.741v19.938h10.741V75.809L403.634,75.809z"/>
</g>
<polygon fill="#FFFFFF" points="-2.629,21.246 -3.396,21.246 -3.195,21.869 "/>
<polygon fill="#FFFFFF" points="-63.361,86.602 -64.313,85.284 -63.361,86.602 -51.307,73.334 -63.017,86.223 -63.908,84.99 
	-64.718,85.577 -63.706,86.979 -83.437,108.697 -63.704,86.979 -63.704,86.979 "/>
<polygon fill="#FFFFFF" points="-92.386,120.032 -92.386,120.032 -90.603,118.07 "/>
<polygon fill="#FFFFFF" points="-3.55,20.771 -3.982,21.247 -3.396,21.246 "/>
<polygon fill="#FFFFFF" points="-4.889,22.246 -4.89,22.246 -51.307,73.334 "/>
<polygon fill="#FFFFFF" points="-27.776,136.735 -44.768,113.204 -27.777,136.735 "/>
<rect x="-63.787" y="86.791" transform="matrix(0.6728 -0.7399 0.7399 0.6728 -85.0021 -18.6041)" fill="#FFFFFF" width="0.509" height="0"/>
<polygon fill="#FFFFFF" points="-92.74,118.935 -83.437,108.697 -92.74,118.934 "/>
<polygon fill="#FFFFFF" points="-26.821,136.348 -43.889,112.712 -26.823,136.348 "/>
<polygon fill="#FFFFFF" points="-63.106,87.808 -44.768,113.204 -63.106,87.806 -90.603,118.07 "/>
<polygon fill="#FFFFFF" points="-92.95,119.912 -93.128,119.361 -93.516,119.788 -93.427,120.064 -93.161,120.885 -92.773,120.458 
	"/>
<polygon fill="#FFFFFF" points="-26.46,136.848 -27.078,136.849 -27.483,137.142 -27.334,137.348 -26.918,137.348 -26.38,136.958 
	"/>
<polygon fill="#FFFFFF" points="-63.361,86.602 -63.704,86.979 -63.404,87.394 -63.061,87.017 "/>
<polygon fill="#FFFFFF" points="-62.718,86.639 -63.017,86.224 -63.361,86.602 -63.061,87.017 "/>
<polygon fill="#FFFFFF" points="-63.061,87.017 -62.763,87.429 -62.42,87.051 -62.421,87.051 -62.42,87.051 -62.718,86.639 "/>
<polygon fill="#FFFFFF" points="-63.404,87.394 -63.106,87.806 -62.763,87.429 -63.061,87.017 "/>
</svg>
