<?xml version="1.0" encoding="utf-8"?>
<!-- Generator: Adobe Illustrator 13.0.0, SVG Export Plug-In . SVG Version: 6.00 Build 14948)  -->
<!DOCTYPE svg PUBLIC "-//W3C//DTD SVG 1.1//EN" "http://www.w3.org/Graphics/SVG/1.1/DTD/svg11.dtd">
<svg version="1.1" id="Layer_1" xmlns="http://www.w3.org/2000/svg" xmlns:xlink="http://www.w3.org/1999/xlink" x="0px" y="0px"
	 width="427.188px" height="158.875px" viewBox="0 0 427.188 158.875" enable-background="new 0 0 427.188 158.875"
	 xml:space="preserve">
<g>
	<g>
		<g>
			<rect x="0.002" y="0.002" fill="none" width="359.099" height="158.869"/>
			<rect x="0.002" y="0.002" fill="none" width="191.58" height="158.869"/>
			<g>
				<g>
					<polygon fill="none" points="107.175,158.871 114.226,137.154 95.752,123.739 77.284,137.162 84.343,158.875 89.832,158.873 
											"/>
				</g>
			</g>
			<g>
				<g>
					<polygon fill="none" points="84.334,0.004 77.284,21.72 95.758,35.136 114.226,21.712 107.166,0 101.678,0.001 					"/>
				</g>
			</g>
			<g>
				<g>
					<polygon fill="none" points="191.582,67.928 169.865,60.878 156.449,79.352 169.872,97.819 191.585,90.759 191.583,85.271 
											"/>
				</g>
			</g>
			<g>
				<g>
					<polygon fill="none" points="359.099,18.677 337.382,11.627 323.967,30.101 337.39,48.569 359.103,41.509 359.102,36.021 					
						"/>
				</g>
			</g>
			<g>
				<g>
					<polygon fill="none" points="0.004,90.769 21.721,97.819 35.136,79.347 21.713,60.878 0,67.938 0.001,73.426 					"/>
				</g>
			</g>
		</g>
		<g>
			<g>
				<g>
					<g>
						<polygon fill="#666666" points="125.905,70.332 119.333,79.378 124.26,94.535 125.913,99.621 						"/>
						<polygon fill="#666666" points="126.554,101.351 145.027,114.767 163.494,101.343 156.435,79.632 155.006,79.632 
							150.948,79.635 146.612,79.635 133.605,79.636 						"/>
						<polygon fill="#666666" points="144.66,43.42 137.603,21.708 114.771,21.712 107.721,43.428 113.597,47.695 126.194,56.845 
													"/>
						<polygon fill="#666666" points="84.515,43.25 93.113,43.249 106.816,43.245 95.552,27.752 77.358,21.837 81.397,34.257 
							84.261,43.066 84.671,42.768 						"/>
						<polygon fill="#666666" points="113.944,65.748 80.711,54.962 77.271,65.562 95.743,78.978 						"/>
						<polygon fill="#666666" points="88.909,101.361 97.882,107.875 118.392,79.641 95.96,79.645 						"/>
						<polygon fill="#666666" points="75.135,50.436 77.087,53.125 80.337,54.181 83.537,44.329 						"/>
						<polygon fill="#666666" points="96.068,111.389 96.068,114.849 106.463,114.848 99.709,109.94 98.015,108.71 						"/>
						<polygon fill="#666666" points="107.89,115.146 108.302,115.443 107.794,115.443 108.146,116.531 114.668,136.589 
							125.92,121.119 125.914,102.044 118.344,107.546 						"/>
						<polygon fill="#666666" points="84.335,115.447 77.284,137.162 95.449,150.356 95.456,115.446 						"/>
						<polygon fill="#666666" points="46.461,43.926 27.994,57.347 35.037,79.011 35.073,79.062 57.884,79.055 64.934,57.34 
							61.596,54.916 						"/>
						<polygon fill="#666666" points="34.958,79.953 28,101.373 46.196,114.585 46.193,95.408 						"/>
					</g>
					<polygon points="88.341,101.177 95.393,79.461 76.918,66.046 58.451,79.468 65.51,101.181 70.998,101.178 					"/>
					<g>
						<polygon fill="#333333" points="96.272,27.728 107.276,42.864 114.096,21.86 96.245,27.667 96.285,27.724 						"/>
						<polygon fill="#333333" points="114.79,65.394 114.79,65.395 125.428,68.849 120.032,61.425 108.198,45.134 114.786,65.392 
													"/>
						<polygon fill="#333333" points="126.585,69.687 126.548,69.674 126.502,69.689 126.51,99.548 133.074,79.337 129.608,68.68 
							126.572,69.667 						"/>
						<polygon fill="#333333" points="129.991,67.927 163.389,57.065 145.138,43.813 126.545,57.327 						"/>
						<polygon fill="#333333" points="83.753,43.436 80.829,34.442 76.656,21.602 76.566,21.572 54.161,21.577 74.781,49.955 						
							"/>
						<polygon fill="#333333" points="65.54,57.409 58.969,77.65 76.565,53.421 74.652,50.786 						"/>
						<polygon fill="#333333" points="95.467,111.542 95.467,111.535 66.845,102.238 84.214,114.85 95.472,114.85 95.472,111.542 
													"/>
						<polygon fill="#333333" points="126.552,120.791 126.552,120.835 144.385,115.039 126.511,102.058 126.518,120.801 						"/>
						<polygon fill="#333333" points="46.83,95.753 46.789,95.741 46.792,114.558 64.701,101.541 46.83,95.735 						"/>
						<polygon fill="#333333" points="35.481,79.656 46.499,94.813 57.512,79.651 						"/>
					</g>
					<polygon fill="#999999" points="118.827,79.042 125.709,69.567 114.647,65.975 96.662,79.049 					"/>
					<polygon fill="#999999" points="126.207,68.904 126.501,68.499 126.502,69.062 129.423,68.112 129.423,68.112 129.424,68.112 
						125.941,57.398 122.393,54.821 108.807,44.954 120.514,61.074 					"/>
					<polygon fill="#999999" points="130.177,68.495 133.605,79.038 148.077,79.038 150.948,79.038 156.437,79.035 163.362,57.701 
						130.177,68.494 					"/>
					<polygon fill="#999999" points="95.73,8.115 77.61,21.285 95.767,27.194 113.888,21.302 					"/>
					<polygon fill="#999999" points="53.761,22.042 46.812,43.442 62.234,54.641 65.285,56.857 74.299,50.303 					"/>
					<polygon fill="#999999" points="107.152,43.843 84.321,43.847 80.905,54.365 114.079,65.15 					"/>
					<polygon fill="#999999" points="125.85,101.354 124.686,97.777 118.898,79.975 98.364,108.228 105.709,113.561 
						107.382,114.777 120.295,105.391 					"/>
					<polygon fill="#999999" points="77.048,53.771 59.445,78.007 76.665,65.492 80.144,54.776 					"/>
					<polygon fill="#999999" points="88.46,101.773 70.998,101.775 67.36,101.775 95.641,110.962 97.53,108.358 					"/>
					<polygon fill="#999999" points="115.137,136.97 137.625,136.966 144.558,115.611 126.363,121.523 125.965,122.074 					"/>
					<polygon fill="#999999" points="96.068,115.445 96.063,150.355 114.223,137.155 107.166,115.443 					"/>
					<polygon fill="#999999" points="64.807,100.948 57.997,80.001 46.984,95.16 					"/>
					<polygon fill="#999999" points="65.293,101.846 46.825,115.271 53.884,136.985 76.714,136.979 83.766,115.264 					"/>
				</g>
			</g>
		</g>
		<g>
			<g>
				<g>
					<polygon fill="#E83E36" points="88.341,101.177 95.393,79.461 76.918,66.046 58.451,79.468 65.51,101.181 70.998,101.178 					
						"/>
				</g>
			</g>
		</g>
		<path fill="none" d="M301.901,76.987h4.763v4.525h-4.763V76.987z"/>
		<path fill="none" d="M197.048,73.912h4.763v4.526h-4.763V73.912z"/>
		<path fill="none" d="M191.246,105.446h4.763v4.525h-4.763V105.446z"/>
		<path fill="none" d="M194.82,42.384h59.571v4.525H194.82V42.384z"/>
	</g>
	<g>
		<path fill="#E83E36" d="M196.473,107.059c-5.128-6.097-7.694-15.271-7.694-27.53c0-12.259,2.564-21.438,7.694-27.531
			c5.129-6.094,12.378-9.14,21.746-9.14c9.363,0,16.612,3.046,21.743,9.14c5.13,6.093,7.696,15.273,7.696,27.531
			s-2.564,21.434-7.696,27.53c-5.131,6.094-12.378,9.14-21.743,9.14C208.851,116.199,201.602,113.153,196.473,107.059z
			 M229.993,98.895c2.687-3.958,4.026-9.556,4.026-16.784v-5.166c0-7.232-1.341-12.825-4.026-16.787
			c-2.688-3.957-6.611-5.939-11.776-5.939s-9.092,1.982-11.775,5.939c-2.688,3.962-4.027,9.554-4.027,16.787v5.166
			c0,7.229,1.341,12.826,4.027,16.784c2.686,3.959,6.608,5.94,11.775,5.94C223.382,104.835,227.307,102.854,229.993,98.895z"/>
		<path fill="#E83E36" d="M257.365,44.094H280.4c8.951,0,15.927,2.932,20.917,8.783c4.994,5.857,7.489,14.396,7.489,25.621
			c0,11.914-2.479,20.966-7.438,27.164c-4.955,6.201-11.947,9.299-20.968,9.299h-23.034L257.365,44.094L257.365,44.094z
			 M279.162,103.183c5.024,0,8.95-1.873,11.774-5.628c2.82-3.754,4.235-9.248,4.235-16.478v-5.163
			c0-6.545-1.415-11.521-4.235-14.931c-2.824-3.408-6.75-5.115-11.774-5.115h-8.576v47.313L279.162,103.183L279.162,103.183z"/>
		<path fill="#E83E36" d="M335.147,44.094h15.392l22.83,70.866h-13.532l-4.34-13.947h-26.131l-4.236,13.947h-12.809L335.147,44.094z
			 M351.885,89.238l-7.128-23.655c-0.689-2.344-1.38-5.543-2.064-9.606h-0.415c-0.688,4.338-1.379,7.541-2.065,9.606l-7.229,23.655
			H351.885z"/>
		<path fill="#E83E36" d="M379.672,44.094h25.307c7.093,0,12.568,1.968,16.425,5.894c3.854,3.923,5.785,9.053,5.785,15.389
			c0,4.41-0.931,8.281-2.789,11.619c-1.858,3.341-4.458,5.923-7.8,7.748c-3.341,1.827-7.216,2.738-11.621,2.738h-12.085v27.48
			h-13.222V44.094L379.672,44.094z M403.634,75.809c3.17,0,5.612-0.915,7.335-2.741c1.721-1.823,2.584-4.39,2.584-7.694
			c0-2.892-0.882-5.203-2.636-6.923c-1.759-1.719-4.187-2.583-7.283-2.583h-10.741v19.938h10.741V75.809L403.634,75.809z"/>
	</g>
</g>
</svg>
