<?xml version="1.0" encoding="UTF-8" standalone="no"?>
<svg
   xmlns:dc="http://purl.org/dc/elements/1.1/"
   xmlns:cc="http://creativecommons.org/ns#"
   xmlns:rdf="http://www.w3.org/1999/02/22-rdf-syntax-ns#"
   xmlns:svg="http://www.w3.org/2000/svg"
   xmlns="http://www.w3.org/2000/svg"
   xmlns:sodipodi="http://sodipodi.sourceforge.net/DTD/sodipodi-0.dtd"
   xmlns:inkscape="http://www.inkscape.org/namespaces/inkscape"
   width="802.48523mm"
   height="618.46448mm"
   viewBox="0 0 802.48523 618.46448"
   version="1.1"
   id="svg8"
   inkscape:version="1.0.2 (e86c8708, 2021-01-15)"
   sodipodi:docname="timeline_logos.svg">
  <defs
     id="defs2">
    <marker
       style="overflow:visible"
       id="marker1230"
       refX="0"
       refY="0"
       orient="auto"
       inkscape:stockid="Arrow1Mend"
       inkscape:isstock="true">
      <path
         transform="matrix(-0.4,0,0,-0.4,-4,0)"
         style="fill:#999999;fill-opacity:1;fill-rule:evenodd;stroke:#999999;stroke-width:1pt;stroke-opacity:1"
         d="M 0,0 5,-5 -12.5,0 5,5 Z"
         id="path1228" />
    </marker>
    <marker
       style="overflow:visible"
       id="marker1220"
       refX="0"
       refY="0"
       orient="auto"
       inkscape:stockid="Arrow1Mend"
       inkscape:isstock="true">
      <path
         transform="matrix(-0.4,0,0,-0.4,-4,0)"
         style="fill:#999999;fill-opacity:1;fill-rule:evenodd;stroke:#999999;stroke-width:1pt;stroke-opacity:1"
         d="M 0,0 5,-5 -12.5,0 5,5 Z"
         id="path1218" />
    </marker>
    <marker
       style="overflow:visible"
       id="Arrow1Lend"
       refX="0"
       refY="0"
       orient="auto"
       inkscape:stockid="Arrow1Lend"
       inkscape:isstock="true">
      <path
         transform="matrix(-0.8,0,0,-0.8,-10,0)"
         style="fill:#000000;fill-opacity:1;fill-rule:evenodd;stroke:#000000;stroke-width:1pt;stroke-opacity:1"
         d="M 0,0 5,-5 -12.5,0 5,5 Z"
         id="path856" />
    </marker>
    <marker
       style="overflow:visible"
       id="Arrow1Lend-7"
       refX="0"
       refY="0"
       orient="auto"
       inkscape:stockid="Arrow1Lend"
       inkscape:isstock="true">
      <path
         transform="matrix(-0.8,0,0,-0.8,-10,0)"
         style="fill:#000000;fill-opacity:1;fill-rule:evenodd;stroke:#000000;stroke-width:1pt;stroke-opacity:1"
         d="M 0,0 5,-5 -12.5,0 5,5 Z"
         id="path856-3" />
    </marker>
    <linearGradient
       id="SVGID_5_"
       gradientUnits="userSpaceOnUse"
       x1="72.4254"
       y1="149.66029"
       x2="209.6631"
       y2="149.66029"
       gradientTransform="matrix(0.26458333,0,0,0.26458333,4.1344593e-6,2.3770138e-7)">
      <stop
         offset="0.1343"
         style="stop-color:#4291CC"
         id="stop2246" />
      <stop
         offset="0.2926"
         style="stop-color:#E4EEF5"
         id="stop2248" />
      <stop
         offset="0.8466"
         style="stop-color:#6AB9E8"
         id="stop2250" />
      <stop
         offset="1"
         style="stop-color:#DDEAF4"
         id="stop2252" />
      <stop
         offset="1"
         style="stop-color:#E4EEF5"
         id="stop2254" />
    </linearGradient>
    <linearGradient
       id="SVGID_4_"
       gradientUnits="userSpaceOnUse"
       x1="298.66299"
       y1="138.00549"
       x2="350.76819"
       y2="138.00549"
       gradientTransform="matrix(0.26458333,0,0,0.26458333,4.1344593e-6,2.3770138e-7)">
      <stop
         offset="0.0105"
         style="stop-color:#9DC4DC"
         id="stop2233" />
      <stop
         offset="0.4237"
         style="stop-color:#E4EEF5"
         id="stop2235" />
      <stop
         offset="0.69"
         style="stop-color:#E4EEF5"
         id="stop2237" />
      <stop
         offset="1"
         style="stop-color:#5C9FC8"
         id="stop2239" />
    </linearGradient>
    <linearGradient
       id="SVGID_3_"
       gradientUnits="userSpaceOnUse"
       x1="256.25531"
       y1="124.9966"
       x2="288.49359"
       y2="96.972298"
       gradientTransform="matrix(0.26458333,0,0,0.26458333,4.1344593e-6,2.3770138e-7)">
      <stop
         offset="0"
         style="stop-color:#FFFFFF"
         id="stop2222" />
      <stop
         offset="0.5261"
         style="stop-color:#9DC4DC"
         id="stop2224" />
      <stop
         offset="0.9947"
         style="stop-color:#4291CC"
         id="stop2226" />
    </linearGradient>
    <linearGradient
       id="SVGID_2_"
       gradientUnits="userSpaceOnUse"
       x1="141.37489"
       y1="186.4637"
       x2="96.336304"
       y2="108.4545"
       gradientTransform="matrix(0.26458333,0,0,0.26458333,4.1344593e-6,2.3770138e-7)">
      <stop
         offset="0.0876"
         style="stop-color:#4A94C2"
         id="stop2207" />
      <stop
         offset="0.3457"
         style="stop-color:#E4EEF5"
         id="stop2209" />
      <stop
         offset="0.5514"
         style="stop-color:#E4EEF5"
         id="stop2211" />
      <stop
         offset="0.7463"
         style="stop-color:#E4EEF5"
         id="stop2213" />
      <stop
         offset="0.9214"
         style="stop-color:#4A94C2"
         id="stop2215" />
    </linearGradient>
    <linearGradient
       id="SVGID_1_"
       gradientUnits="userSpaceOnUse"
       x1="167.43469"
       y1="193.7346"
       x2="189.10361"
       y2="156.20309"
       gradientTransform="matrix(0.26458333,0,0,0.26458333,4.1344593e-6,2.3770138e-7)">
      <stop
         offset="0"
         style="stop-color:#4A94C2"
         id="stop2196" />
      <stop
         offset="0.3473"
         style="stop-color:#5C9FC8"
         id="stop2198" />
      <stop
         offset="0.7563"
         style="stop-color:#E8EEF7"
         id="stop2200" />
      <stop
         offset="0.9957"
         style="stop-color:#FFFFFF"
         id="stop2202" />
    </linearGradient>
    <rect
       height="599.99902"
       width="799.87988"
       y="121.88867"
       x="-103"
       id="SVGID_1_-4" />
    <clipPath
       clipPathUnits="userSpaceOnUse"
       id="clipPath3536">
      <path
         style="fill:#e10043;fill-opacity:1;stroke:#000000;stroke-width:0.264583px;stroke-linecap:butt;stroke-linejoin:miter;stroke-opacity:1"
         d="M 53.536579,380.47955 27.50826,539.90302 36.339295,560.35386 285.00272,554.31157 296.15771,538.97344 260.83356,386.05705 Z"
         id="path3538" />
    </clipPath>
  </defs>
  <sodipodi:namedview
     id="base"
     pagecolor="#ffffff"
     bordercolor="#666666"
     borderopacity="1.0"
     inkscape:pageopacity="0.0"
     inkscape:pageshadow="2"
     inkscape:zoom="0.13902649"
     inkscape:cx="1968.2101"
     inkscape:cy="1017.9962"
     inkscape:document-units="mm"
     inkscape:current-layer="layer1"
     inkscape:document-rotation="0"
     showgrid="false"
     inkscape:window-width="914"
     inkscape:window-height="847"
     inkscape:window-x="526"
     inkscape:window-y="25"
     inkscape:window-maximized="0" />
  <metadata
     id="metadata5">
    <rdf:RDF>
      <cc:Work
         rdf:about="">
        <dc:format>image/svg+xml</dc:format>
        <dc:type
           rdf:resource="http://purl.org/dc/dcmitype/StillImage" />
        <dc:title />
      </cc:Work>
    </rdf:RDF>
  </metadata>
  <g
     inkscape:label="Layer 1"
     inkscape:groupmode="layer"
     id="layer1"
     transform="translate(143.0702,216.77745)">
    <g
       id="g1035"
       transform="matrix(0.38138144,0,0,0.38138144,362.67424,220.5392)">
      <g
         id="Layer_1_1_">
        <rect
           id="rect1648"
           x="0.0080000004"
           y="0.0040000002"
           fill="#e82b2a"
           fill-opacity="0"
           width="731.68402"
           height="233.541" />
        <polygon
           id="polygon1580"
           fill="none"
           points="113.604,201.662 123.969,233.553 157.504,233.545 167.859,201.649 140.727,181.944 " />
        <polygon
           id="polygon1582"
           fill="none"
           points="157.504,0.01 123.969,0 113.604,31.893 140.727,51.609 167.859,31.906 " />
        <polygon
           id="polygon1584"
           fill="none"
           points="31.911,89.787 0.012,100.129 0,133.666 31.884,144.045 51.607,116.926 " />
        <polygon
           id="polygon1586"
           fill="none"
           points="281.463,133.666 281.449,100.129 249.55,89.787 229.854,116.926 249.577,144.045 " />
        <g
           id="g1716">
          <g
             id="g1666">
            <path
               id="path1650"
               fill="#010101"
               d="m 303.803,82.27 c -13.222,0 -23.222,-9.314 -23.222,-25.471 0,-16.229 10,-25.473 23.222,-25.473 13.146,0 23.22,9.242 23.22,25.473 -0.001,16.221 -10.075,25.471 -23.22,25.471 z m 0,-41.67 c -7.628,0 -12.592,5.689 -12.592,16.199 0,10.508 4.964,16.197 12.592,16.197 7.604,0 12.591,-5.689 12.591,-16.197 0,-10.51 -4.988,-16.199 -12.591,-16.199 z" />
            <path
               id="path1652"
               fill="#010101"
               d="m 358.428,44.4 h 10.313 v 37.191 h -9.896 v -6.756 h -0.396 c -1.67,4.354 -5.688,7.24 -11.276,7.24 -7.479,0 -12.565,-5.311 -12.597,-13.996 V 44.398 h 10.313 V 66.24 c 0.021,4.389 2.543,7.117 6.438,7.117 3.701,0 7.115,-2.607 7.101,-7.604 z" />
            <path
               id="path1654"
               fill="#010101"
               d="m 396.758,52.148 h -6.996 v 18.021 c 0,2.854 1.429,3.633 3.48,3.633 0.975,0 2.063,-0.242 2.564,-0.34 l 1.621,7.676 c -1.041,0.34 -2.934,0.873 -5.593,0.969 -7.48,0.316 -12.446,-3.291 -12.396,-10.578 V 52.152 h -5.084 v -7.748 h 5.084 V 35.5 h 10.314 v 8.904 h 6.993 z" />
            <path
               id="path1656"
               fill="#010101"
               d="m 404.435,32.004 h 10.313 v 18.645 h 0.313 c 1.38,-3.021 4.354,-6.729 10.581,-6.729 8.158,0 15.062,6.344 15.062,19.129 0,12.445 -6.604,19.152 -15.085,19.152 -6.004,0 -9.129,-3.469 -10.558,-6.564 H 414.6 v 5.957 h -10.168 z m 17.917,41.986 c 5.063,0 7.82,-4.506 7.82,-10.986 0,-6.441 -2.711,-10.871 -7.82,-10.871 -5.013,0 -7.818,4.229 -7.818,10.871 -0.003,6.629 2.855,10.986 7.818,10.986 z" />
            <path
               id="path1658"
               fill="#010101"
               d="m 447.559,44.4 h 9.999 v 6.488 h 0.388 c 1.356,-4.6 4.771,-7.02 8.938,-7.02 1.04,0 2.316,0.145 3.243,0.355 v 9.15 c -0.975,-0.313 -2.936,-0.563 -4.356,-0.563 -4.553,0 -7.896,3.146 -7.896,7.729 V 81.59 h -10.313 z" />
            <path
               id="path1660"
               fill="#010101"
               d="m 472.185,63.166 c 0,-11.479 7.097,-19.25 18.038,-19.25 9.83,0 17.479,6.248 17.479,18.887 v 2.834 H 482.38 v 0.023 c 0,5.545 3.27,8.959 8.425,8.959 3.438,0 6.104,-1.479 7.146,-4.313 l 9.541,0.629 c -1.454,6.902 -7.646,11.381 -16.854,11.381 -11.455,0.004 -18.453,-7.357 -18.453,-19.15 z m 25.807,-3.922 c -0.021,-4.438 -3.118,-7.627 -7.604,-7.627 -4.576,0 -7.797,3.391 -8.018,7.627 z" />
            <path
               id="path1662"
               fill="#010101"
               d="m 512.695,71.205 c 0,-8.313 6.607,-10.773 13.973,-11.451 6.471,-0.631 9.013,-0.945 9.013,-3.344 v -0.146 c 0,-3.051 -2.016,-4.818 -5.521,-4.818 -3.705,0 -5.902,1.816 -6.604,4.285 l -9.539,-0.771 c 1.429,-6.779 7.287,-11.041 16.192,-11.041 8.276,0 15.785,3.729 15.785,12.59 v 25.086 h -9.774 v -5.158 h -0.291 c -1.815,3.465 -5.377,5.859 -10.871,5.859 -7.11,-0.001 -12.363,-3.73 -12.363,-11.091 z m 23.046,-2.906 v -3.947 c -1.229,0.824 -4.916,1.357 -7.168,1.672 -3.633,0.518 -6.022,1.939 -6.022,4.852 0,2.832 2.271,4.311 5.441,4.311 4.533,-0.011 7.749,-2.989 7.749,-6.888 z" />
            <path
               id="path1664"
               fill="#010101"
               d="m 554.005,32.004 h 10.313 v 26.514 h 0.559 l 11.912,-14.113 h 11.848 l -13.808,16.104 14.502,21.09 H 577.252 L 567.103,66.61 564.319,69.79 V 81.6 h -10.313 z" />
          </g>
          <g
             id="g1692">
            <path
               id="path1668"
               fill="#010101"
               d="M 281.455,141.492 V 91.904 h 17.724 c 14.964,0 24.118,9.303 24.118,24.744 0,15.496 -9.154,24.85 -24.269,24.85 z m 17.142,-8.982 c 9.321,0 14.236,-4.797 14.236,-15.861 0,-11.018 -4.915,-15.764 -14.219,-15.764 h -6.686 v 31.625 z" />
            <path
               id="path1670"
               fill="#010101"
               d="m 329.107,131.104 c 0,-8.306 6.61,-10.771 13.973,-11.453 6.472,-0.629 9.013,-0.938 9.013,-3.34 v -0.146 c 0,-3.057 -2.016,-4.818 -5.521,-4.818 -3.705,0 -5.908,1.816 -6.607,4.285 l -9.537,-0.775 c 1.43,-6.771 7.285,-11.037 16.191,-11.037 8.281,0 15.787,3.729 15.787,12.598 V 141.5 h -9.782 v -5.156 h -0.286 c -1.813,3.464 -5.379,5.854 -10.871,5.854 -7.104,-0.004 -12.36,-3.733 -12.36,-11.094 z m 23.049,-2.906 v -3.941 c -1.229,0.824 -4.917,1.354 -7.168,1.672 -3.633,0.508 -6.022,1.938 -6.022,4.842 0,2.834 2.271,4.313 5.442,4.313 4.53,-0.008 7.748,-2.987 7.748,-6.886 z" />
            <path
               id="path1672"
               fill="#010101"
               d="M 390.198,112.047 H 383.2 v 18.017 c 0,2.856 1.435,3.635 3.485,3.635 0.97,0 2.061,-0.236 2.564,-0.342 l 1.617,7.686 c -1.041,0.338 -2.93,0.863 -5.596,0.969 -7.479,0.313 -12.438,-3.293 -12.396,-10.582 v -19.371 h -5.086 v -7.748 h 5.086 V 95.4 h 10.313 v 8.91 h 6.998 v 7.746 h 0.004 v -0.003 z" />
            <path
               id="path1674"
               fill="#010101"
               d="m 395.156,131.104 c 0,-8.306 6.61,-10.771 13.978,-11.453 6.466,-0.629 9.007,-0.938 9.007,-3.34 v -0.146 c 0,-3.057 -2.009,-4.818 -5.521,-4.818 -3.702,0 -5.9,1.816 -6.604,4.285 l -9.54,-0.775 c 1.43,-6.771 7.287,-11.037 16.199,-11.037 8.274,0 15.779,3.729 15.779,12.598 V 141.5 h -9.774 v -5.156 h -0.292 c -1.814,3.464 -5.375,5.854 -10.871,5.854 -7.099,-0.004 -12.361,-3.733 -12.361,-11.094 z m 23.059,-2.906 v -3.941 c -1.235,0.824 -4.916,1.354 -7.168,1.672 -3.639,0.508 -6.028,1.938 -6.028,4.842 0,2.834 2.276,4.313 5.446,4.313 4.525,-0.008 7.75,-2.987 7.75,-6.886 z" />
            <path
               id="path1676"
               fill="#010101"
               d="m 449.782,141.492 17.12,-49.593 h 13.519 l 17.094,49.594 H 486.28 l -3.681,-11.313 h -17.896 l -3.682,11.313 z M 479.959,122 473.855,103.229 h -0.387 L 467.365,122 Z" />
            <path
               id="path1678"
               fill="#010101"
               d="m 513.59,141.492 h -10.313 v -37.191 h 9.83 v 6.563 h 0.438 c 1.672,-4.334 5.666,-7.049 11.188,-7.049 7.748,0 12.834,5.326 12.834,13.997 V 141.5 h -10.313 v -21.846 c 0.021,-4.555 -2.478,-7.266 -6.61,-7.266 -4.164,0 -7.021,2.813 -7.048,7.605 v 21.5 h -0.006 z" />
            <path
               id="path1680"
               fill="#010101"
               d="m 543.929,131.104 c 0,-8.306 6.604,-10.771 13.971,-11.453 6.468,-0.629 9.011,-0.938 9.011,-3.34 v -0.146 c 0,-3.057 -2.011,-4.818 -5.521,-4.818 -3.704,0 -5.906,1.816 -6.607,4.285 l -9.539,-0.775 c 1.435,-6.771 7.287,-11.037 16.197,-11.037 8.279,0 15.784,3.729 15.784,12.598 V 141.5 h -9.78 v -5.156 h -0.291 c -1.813,3.464 -5.375,5.854 -10.873,5.854 -7.097,-0.004 -12.352,-3.733 -12.352,-11.094 z m 23.053,-2.906 v -3.941 c -1.232,0.824 -4.916,1.354 -7.168,1.672 -3.633,0.508 -6.029,1.938 -6.029,4.842 0,2.834 2.277,4.313 5.449,4.313 4.527,-0.008 7.748,-2.987 7.748,-6.886 z" />
            <path
               id="path1682"
               fill="#010101"
               d="M 595.553,141.492 H 585.24 V 91.904 h 10.313 z" />
            <path
               id="path1684"
               fill="#010101"
               d="m 603.668,154.373 2.315,-7.699 c 3.634,1.113 6.229,0.945 7.58,-2.541 l 0.604,-1.573 -13.348,-38.259 h 10.854 l 7.699,27.313 h 0.387 l 7.771,-27.313 h 10.928 l -14.457,41.211 c -2.104,6.005 -6.178,9.929 -13.854,9.929 -2.607,-0.003 -5.004,-0.439 -6.479,-1.068 z" />
            <path
               id="path1686"
               fill="#010101"
               d="m 665.24,115.486 c -0.511,-2.396 -2.641,-4.354 -6.226,-4.354 -3.196,0 -5.714,1.453 -5.688,3.68 -0.021,1.793 1.266,2.98 4.729,3.73 l 6.729,1.354 c 7.219,1.479 10.729,4.697 10.751,10.072 -0.021,7.338 -6.926,12.252 -16.562,12.252 -9.854,0 -15.908,-4.383 -16.877,-11.502 l 10.145,-0.531 c 0.63,3.025 3.076,4.604 6.758,4.604 3.607,0 6.01,-1.572 6.061,-3.774 -0.048,-1.865 -1.525,-3.052 -4.771,-3.705 l -6.438,-1.283 c -7.271,-1.445 -10.773,-5.063 -10.749,-10.631 -0.024,-7.166 6.245,-11.567 15.763,-11.567 9.396,0 14.915,4.231 15.836,11.093 z" />
            <path
               id="path1688"
               fill="#010101"
               d="m 681.656,94.275 c 0,-2.854 2.521,-5.207 5.568,-5.207 3.072,0 5.594,2.354 5.594,5.207 0,2.889 -2.521,5.23 -5.594,5.23 -3.048,0.001 -5.568,-2.347 -5.568,-5.23 z m 0.392,10.024 h 10.313 v 37.188 h -10.313 z" />
            <path
               id="path1690"
               fill="#010101"
               d="m 722.093,115.486 c -0.509,-2.396 -2.645,-4.354 -6.229,-4.354 -3.19,0 -5.717,1.453 -5.688,3.68 -0.021,1.793 1.262,2.98 4.725,3.73 l 6.73,1.354 c 7.215,1.479 10.729,4.697 10.75,10.072 -0.021,7.338 -6.931,12.252 -16.563,12.252 -9.854,0 -15.905,-4.383 -16.877,-11.502 l 10.146,-0.531 c 0.63,3.025 3.069,4.604 6.757,4.604 3.604,0 6.004,-1.572 6.055,-3.774 -0.051,-1.865 -1.521,-3.052 -4.771,-3.705 l -6.44,-1.283 c -7.263,-1.445 -10.771,-5.063 -10.75,-10.631 -0.021,-7.166 6.248,-11.567 15.764,-11.567 9.396,0 14.915,4.231 15.836,11.093 z" />
          </g>
          <g
             id="g1710">
            <path
               id="path1694"
               fill="#010101"
               d="m 281.455,151.808 h 19.563 c 11.26,0 17.771,6.948 17.771,16.805 0,9.902 -6.636,16.707 -18.031,16.707 h -8.814 v 16.078 h -10.479 z m 17.602,25.108 c 6.005,0 8.937,-3.396 8.937,-8.313 0,-4.938 -2.931,-8.229 -8.979,-8.229 h -7.07 v 16.539 z" />
            <path
               id="path1696"
               fill="#010101"
               d="m 335.74,201.396 h -10.313 v -49.59 h 10.313 z" />
            <path
               id="path1698"
               fill="#010101"
               d="m 342.232,191.008 c 0,-8.305 6.608,-10.774 13.971,-11.452 6.473,-0.63 9.008,-0.941 9.008,-3.343 v -0.146 c 0,-3.049 -2.01,-4.813 -5.521,-4.813 -3.705,0 -5.907,1.813 -6.609,4.285 l -9.541,-0.772 c 1.437,-6.781 7.289,-11.043 16.199,-11.043 8.281,0 15.787,3.729 15.787,12.592 V 201.4 h -9.783 v -5.151 h -0.29 c -1.813,3.463 -5.375,5.854 -10.871,5.854 -7.096,-0.004 -12.35,-3.732 -12.35,-11.095 z m 23.049,-2.905 v -3.945 c -1.229,0.822 -4.916,1.354 -7.168,1.676 -3.633,0.51 -6.021,1.938 -6.021,4.844 0,2.834 2.271,4.313 5.44,4.313 4.53,-0.012 7.749,-2.991 7.749,-6.888 z" />
            <path
               id="path1700"
               fill="#010101"
               d="m 403.322,171.953 h -6.998 v 18.014 c 0,2.857 1.436,3.634 3.486,3.634 0.971,0 2.06,-0.24 2.564,-0.338 l 1.618,7.674 c -1.043,0.34 -2.932,0.873 -5.596,0.979 -7.479,0.313 -12.438,-3.293 -12.396,-10.582 V 171.96 h -5.089 v -7.748 H 386 v -8.91 h 10.313 v 8.91 h 6.996 v 7.748 h 0.004 v -0.003 z" />
            <path
               id="path1702"
               fill="#010101"
               d="m 430.029,171.953 h -7.387 v 29.438 h -10.313 v -29.438 h -5.255 v -7.748 h 5.255 v -2.688 c 0,-8.086 5.205,-12.031 12.203,-12.031 3.172,0 6.006,0.631 7.289,1.021 l -1.813,7.748 c -0.823,-0.271 -2.082,-0.53 -3.316,-0.53 -3.024,0 -4.045,1.475 -4.045,3.993 v 2.494 h 7.387 z" />
            <path
               id="path1704"
               fill="#010101"
               d="m 433.516,182.944 c 0,-11.521 7.021,-19.227 18.309,-19.227 11.281,0 18.312,7.701 18.312,19.227 0,11.451 -7.021,19.185 -18.312,19.185 -11.293,-0.006 -18.309,-7.733 -18.309,-19.185 z m 26.127,-0.071 c 0,-6.488 -2.662,-11.283 -7.771,-11.283 -5.204,0 -7.862,4.795 -7.862,11.283 0,6.483 2.658,11.26 7.862,11.26 5.11,-0.002 7.771,-4.77 7.771,-11.26 z" />
            <path
               id="path1706"
               fill="#010101"
               d="m 476.861,164.205 h 10 v 6.481 h 0.387 c 1.354,-4.602 4.771,-7.021 8.938,-7.021 1.04,0 2.323,0.146 3.244,0.36 v 9.146 c -0.972,-0.313 -2.936,-0.557 -4.357,-0.557 -4.553,0 -7.895,3.146 -7.895,7.725 v 21.043 h -10.314 z" />
            <path
               id="path1708"
               fill="#010101"
               d="m 504.729,164.205 h 9.832 v 6.562 h 0.438 c 1.556,-4.382 5.354,-7.045 10.361,-7.045 5.109,0 8.91,2.735 10.101,7.045 h 0.392 c 1.521,-4.261 5.765,-7.045 11.212,-7.045 6.924,0 11.719,4.602 11.719,12.663 v 25.013 H 548.49 v -22.979 c 0,-4.146 -2.469,-6.196 -5.763,-6.196 -3.752,0 -5.956,2.614 -5.956,6.463 v 22.713 h -10 V 178.21 c 0,-3.654 -2.277,-5.98 -5.666,-5.98 -3.438,0 -6.054,2.734 -6.054,6.854 v 22.315 h -10.32 z" />
          </g>
          <path
             id="path1712"
             fill="none"
             d="m 259.576,151.808 v -10.313 h 49.581 v 10.313 z" />
          <path
             id="path1714"
             fill="none"
             d="M 259.574,91.908 V 81.594 h 232.264 v 10.314 z" />
        </g>
        <g
           id="g950">
          <g
             id="g946">
            <polygon
               fill="#e82b2a"
               points="212.918,64.336 202.387,31.925 168.31,31.925 157.779,64.336 185.347,84.365 "
               id="polygon886" />
            <polygon
               opacity="0.6"
               fill="#e82b2a"
               enable-background="new    "
               points="79.094,31.925 68.562,64.336 96.131,84.365 110.073,74.238 "
               id="polygon888" />
            <polygon
               opacity="0.8"
               fill="#e82b2a"
               enable-background="new    "
               points="123.699,64.336 123.701,64.336 113.171,31.925 79.094,31.925 110.073,74.238 123.699,64.337 "
               id="polygon890" />
            <polygon
               fill="#e82b2a"
               points="113.166,201.625 123.697,169.216 96.129,149.187 68.559,169.216 79.089,201.625 "
               id="polygon892" />
            <polygon
               opacity="0.4"
               fill="#e82b2a"
               enable-background="new    "
               points="68.562,64.336 40.991,84.365 51.522,116.776 85.599,116.776 96.129,84.365 "
               id="polygon894" />
            <polygon
               fill="#e82b2a"
               points="157.779,64.336 140.74,41.066 113.171,31.925 123.701,64.336 "
               id="polygon896" />
            <polygon
               opacity="0.8"
               fill="#e82b2a"
               enable-background="new    "
               points="168.31,31.925 140.741,11.895 113.171,31.925 140.74,41.066 "
               id="polygon898" />
            <polygon
               opacity="0.6"
               fill="#e82b2a"
               enable-background="new    "
               points="168.31,31.925 140.74,41.066 157.779,64.336 "
               id="polygon900" />
            <polygon
               opacity="0.8"
               fill="#e82b2a"
               enable-background="new    "
               points="157.777,169.216 157.775,169.216 168.305,201.625 185.344,178.356 185.346,149.187 "
               id="polygon902" />
            <polygon
               opacity="0.6"
               fill="#e82b2a"
               enable-background="new    "
               points="185.346,149.187 185.344,178.356 212.914,169.216 "
               id="polygon904" />
            <polygon
               fill="#e82b2a"
               points="212.914,169.216 185.344,178.356 168.305,201.625 202.383,201.625 "
               id="polygon906" />
            <polygon
               opacity="0.4"
               fill="#e82b2a"
               enable-background="new    "
               points="85.599,116.776 68.56,140.047 96.129,149.187 "
               id="polygon908" />
            <polygon
               opacity="0.6"
               fill="#e82b2a"
               enable-background="new    "
               points="68.559,169.216 96.129,149.187 68.56,140.047 "
               id="polygon910" />
            <polygon
               opacity="0.8"
               fill="#e82b2a"
               enable-background="new    "
               points="68.56,140.047 51.522,116.776 40.99,149.187 68.559,169.216 "
               id="polygon912" />
            <polygon
               opacity="0.6"
               fill="#e82b2a"
               enable-background="new    "
               points="51.522,116.776 68.56,140.047 85.599,116.776 "
               id="polygon914" />
            <polygon
               opacity="0.4"
               fill="#e82b2a"
               enable-background="new    "
               points="140.734,169.216 140.734,221.655 168.304,201.625 157.775,169.216 "
               id="polygon916" />
            <polygon
               opacity="0.8"
               fill="#e82b2a"
               enable-background="new    "
               points="140.734,169.216 123.697,169.216 113.166,201.625 140.734,221.655 "
               id="polygon918" />
            <polygon
               opacity="0.6"
               fill="#e82b2a"
               enable-background="new    "
               points="185.347,84.365 190.708,100.866 240.487,84.365 212.918,64.336 "
               id="polygon920" />
            <polygon
               opacity="0.4"
               fill="#e82b2a"
               enable-background="new    "
               points="240.487,84.365 190.708,100.866 195.877,116.776 229.955,116.776 "
               id="polygon922" />
            <polygon
               opacity="0.8"
               fill="#e82b2a"
               enable-background="new    "
               points="195.877,116.776 194.61,120.679 185.346,149.187 212.914,169.216 240.485,149.187 229.955,116.776 "
               id="polygon924" />
            <polygon
               fill="#e82b2a"
               fill-opacity="0"
               points="140.737,116.776 113.169,96.746 85.599,116.776 96.129,149.187 130.206,149.187 "
               id="polygon926" />
            <polygon
               opacity="0.6"
               fill="#e82b2a"
               points="185.346,149.187 179.872,132.344 174.814,116.776 140.737,116.776 130.206,149.187 143.835,159.088 145.007,159.938 157.775,169.216 "
               id="polygon928" />
            <polygon
               opacity="0.4"
               fill="#e82b2a"
               enable-background="new    "
               points="155.068,106.365 168.308,96.746 157.779,64.339 157.779,64.336 123.701,64.336 118.495,80.358 118.047,81.735 113.171,96.746 140.74,116.776 "
               id="polygon930" />
            <polyline
               opacity="0.8"
               fill="#e82b2a"
               enable-background="new    "
               points="157.777,64.336 185.346,102.645 190.708,100.866      185.347,84.365 157.779,64.336    "
               id="polyline932" />
            <polygon
               opacity="0.6"
               fill="#e82b2a"
               enable-background="new    "
               points="185.346,102.645 185.346,149.187 194.61,120.679 195.877,116.776 190.708,100.866 "
               id="polygon934" />
            <polygon
               fill="#e82b2a"
               points="185.346,102.645 157.777,64.336 168.308,96.746 "
               id="polygon936" />
            <polygon
               opacity="0.4"
               fill="#e82b2a"
               enable-background="new    "
               points="185.346,102.645 174.814,116.776 179.873,132.342 185.346,149.187 "
               id="polygon938" />
            <polygon
               opacity="0.8"
               fill="#e82b2a"
               enable-background="new    "
               points="168.308,96.746 140.737,116.776 174.814,116.776 185.346,102.645 "
               id="polygon940" />
            <polyline
               opacity="0.8"
               fill="#e82b2a"
               enable-background="new    "
               points="118.531,80.245 123.699,64.337 110.073,74.238      96.129,84.365 85.599,116.776 113.169,96.746 118.526,80.262    "
               id="polyline942" />
            <polygon
               opacity="0.8"
               fill="#e82b2a"
               enable-background="new    "
               points="130.206,149.187 96.129,149.187 123.697,169.216 157.775,169.216 143.835,159.088 "
               id="polygon944" />
          </g>
          <path
             fill="#ffffff"
             d="m 230.314,116.872 10.437,-32.104 0.148,-0.46 -0.39,-0.284 L 213.201,64.186 202.622,31.63 H 168.4 l -0.066,-0.047 -27.644,-20.074 -0.223,0.165 -27.417,19.915 -0.058,0.041 H 78.769 l -0.151,0.463 -10.437,32.095 -27.695,20.121 10.451,32.171 0.128,0.393 -0.021,0.065 -10.565,32.493 27.639,20.076 0.063,0.049 0.125,0.387 10.454,32.17 h 34.236 l 27.299,19.839 0.393,0.282 0.232,-0.164 0.158,-0.115 26.973,-19.6 0.332,-0.242 h 34.239 l 10.557,-32.496 0.021,-0.064 0.333,-0.242 27.365,-19.877 z m -37.012,58.516 -7.613,2.523 v -27.863 l 26.333,19.133 z m -79.569,-142.757 16.728,5.545 9.994,3.314 3.675,5.021 12.83,17.529 h -33.02 l -0.079,-0.244 -5.188,-15.96 z m 44.736,3.045 9.183,-3.043 -6.72,20.684 -3.337,10.264 -10.915,-14.902 -5.354,-7.316 z m -39.612,44.787 5.081,-15.642 h 33.507 l 10.356,31.866 -27.11,19.698 -1.604,-1.166 -25.504,-18.531 2.993,-9.208 1.795,-5.528 0.216,-0.665 0.262,-0.811 z m 66.112,4.244 5.203,16.009 -0.399,0.131 -4.084,1.352 -0.231,0.078 -0.149,-0.208 -25.839,-35.892 7.577,5.504 z m -0.063,19.213 v 42.886 l -4.709,-14.488 -4.995,-15.375 2.526,-3.393 z m -16.331,-7.385 -9.692,-29.833 25.379,35.263 -10.277,-3.557 z m -13.325,10.241 13.078,-9.501 5.567,1.928 10.769,3.729 -4.663,6.26 -5.432,7.286 -21.785,0.003 H 141.89 l 7.869,-5.718 z m -24.629,42.354 2.364,-7.285 7.988,-24.583 h 33.51 l 1.082,3.333 3.887,11.965 5.385,16.571 -2.444,1.775 -24.663,17.917 -13.715,-9.958 z m 55.071,-46.109 0.244,-0.081 4.479,-1.486 5.004,15.416 -1.226,3.779 -8.5,26.162 z m -72.568,-5.698 26.902,19.545 0.204,0.149 -0.079,0.244 -10.276,31.625 H 96.367 l -7.229,-22.248 -3.127,-9.622 15.343,-11.146 z m -28.342,19.937 -14.35,19.597 -1.92,2.621 -16.268,-22.218 z m -15.638,22.68 16.272,-22.222 2.518,7.748 7.537,23.198 -21.255,-7.042 z m 60.889,9.731 1.396,1.016 12.13,8.813 5.578,4.052 7.382,5.365 h -32.743 l -26.49,-19.246 z m 28.366,19.639 26.511,-19.262 -0.004,28.278 -16.51,22.543 -10.132,-31.169 -0.076,-0.237 z m -48.143,-94.661 11.959,-8.692 0.698,-0.506 -4.801,14.765 h 0.004 l -0.037,0.116 -0.451,1.377 -4.837,14.886 -23.608,17.153 -2.89,2.099 9.165,-28.202 0.954,-2.938 v -10e-4 l 7.257,-5.272 z m -41.353,93.893 v -27.859 l 7.443,2.467 18.89,6.263 -5.706,4.144 z m 170.926,-83.469 -10.207,31.405 h -33.508 l -0.21,-0.646 -4.754,-14.622 46.014,-15.253 z m -48.917,15.393 -5.154,-15.858 9.037,-6.565 18.077,-13.133 26.72,19.417 z m 21.496,-36.187 -27.107,19.696 -27.11,-19.695 5.313,-16.354 5.044,-15.516 h 33.508 z m -71.711,-51.805 26.718,19.413 -21.73,7.207 -4.992,1.655 -5.303,-1.757 -21.42,-7.103 z m -27.854,19.934 1.259,3.878 9.092,27.994 -13.081,9.505 -30.296,-41.377 z m -33.66,0.457 7.775,10.619 22.517,30.763 -7.196,5.229 -6.195,4.5 L 85.7,76.433 68.973,64.281 Z M 41.406,84.61 68.513,64.913 95.623,84.611 85.267,116.477 H 51.756 Z m 10.204,33.106 16.418,22.426 0.092,0.127 v 11.849 l -0.003,16.423 -26.715,-19.408 z m 61.224,83.61 H 79.326 l -10.356,-31.868 27.113,-19.693 19.279,14.008 7.827,5.687 -9,27.694 z m 27.461,19.655 -26.714,-19.407 10.354,-31.873 h 16.36 z m 0.783,-51.279 h 16.363 l 10.356,31.871 -26.72,19.408 v -51.279 z m 60.974,31.624 H 169.03 l 16.511,-22.545 11.286,-3.742 15.431,-5.116 z m 10.817,-32.502 -11.763,-8.54 -15.349,-11.151 9.177,-28.237 1.179,-3.631 h 33.508 l 10.355,31.868 z"
             id="path948" />
        </g>
      </g>
      <g
         id="Layer_2" />
    </g>
    <g
       id="g3107"
       transform="matrix(2.5959579,0,0,2.5959579,2.6380341,153.08396)">
      <path
         class="st0"
         d="m 80.26664,44.730459 c -0.26722,-0.791104 -0.92604,-1.354668 -1.69333,-1.354668 -0.76729,0 -1.4261,0.560918 -1.69333,1.354668 H 76.10739 L 75.96187,46.156563 75.26337,31.8135 74.91148,31.8161 74.40612,45.254288 74.23414,44.7701 H 73.2446 c -0.126999,-0.246062 -0.383639,-0.41804 -0.679979,-0.41804 -0.29633,0 -0.55298,0.171978 -0.67998,0.41804 h -1.14035 v 0.351896 h 1.0504 0.3466 0.005 c 0,-0.230187 0.18786,-0.418042 0.41804,-0.418042 0.23019,0 0.41805,0.187855 0.41805,0.418042 h 0.0132 0.338669 0.64558 l 0.7038,2.082272 h 0.26458 l 0.1614,-11.31623 0.61383,12.60475 0.34925,0.0079 0.34925,-3.421063 h 0.36512 c 0,0 0.32809,0.0026 0.32809,0.0026 0.15875,-0.79375 0.75141,-1.386417 1.45521,-1.386417 0.70379,0 1.29381,0.59002 1.4552,1.383771 v 0.0026 0 h 0.32809 4.12485 v -0.354541 h -4.21217 z"
         id="path2194"
         style="fill:#004f80;stroke-width:0.264583" />
      <path
         class="st1"
         d="m 55.234422,44.561125 c -0.1323,-0.627063 -1.75948,-1.095376 -2.71198,-0.513291 -0.29369,0.179915 -0.4154,0.394228 -0.59796,0.645582 -0.56092,0.777876 -1.21179,1.203854 -2.5109,2.055814 -0.82814,0.54504 -1.84679,1.21179 -3.32316,1.648353 -0.68263,0.203729 -2.89719,0.830791 -5.42661,0.09525 -0.41804,-0.121708 -0.98689,-0.293687 -1.58485,-0.632353 v 0.381 c 0.13758,0.07673 0.26987,0.153458 0.41539,0.224894 0.8599,0.433917 3.86557,1.899709 7.73907,1.209146 3.72533,-0.661458 6.00075,-2.913062 6.84212,-3.767666 0.56092,-0.566209 1.24883,-0.923395 1.15888,-1.346729 z"
         id="path2205"
         style="fill:url(#SVGID_1_);stroke-width:0.264583" />
      <path
         class="st2"
         d="m 39.078962,47.900167 c -0.3175,-0.179918 -0.64559,-0.402167 -0.96309,-0.693209 -0.32543,-0.298979 -0.51593,-0.547688 -1.1377,-1.436687 -1.35202,-1.928813 -1.95792,-2.857501 -1.95792,-2.857501 -1.67746,-2.571749 -1.4314,-2.114021 -2.1934,-3.320519 -1.25677,-1.987022 -1.29381,-2.233084 -2.54264,-4.156606 -0.69321,-1.068916 -1.38113,-1.846791 -2.31775,-2.838979 -0.44715,-0.473604 -0.93134,-1.013354 -1.77271,-1.68275 -0.25929,-0.209021 -2.11931,-1.227666 -2.14842,-1.161521 -0.0185,0.04763 -0.4736,0.01323 -0.43656,0.02911 0.96573,0.47625 1.72508,0.762 4.50056,4.693708 0.57944,0.820208 1.41288,2.19075 3.06123,4.947708 0.93663,1.566334 1.27265,2.174875 2.00819,3.204105 0.61119,0.857249 1.3626,1.894417 2.46327,2.987145 0.63235,0.627064 1.94469,1.754188 3.58775,2.667 z"
         id="path2218"
         style="fill:url(#SVGID_2_);stroke-width:0.264583" />
      <path
         class="st3"
         d="m 13.210652,43.907604 c 0,0 -4.9688802,-3.418416 -2.2913,-10.077979 1.56898,-3.902605 5.1488,-5.019146 5.1488,-5.019146 0,0 4.18306,-1.481667 8.38993,1.132416 l -2.34156,-0.584729 -2.54794,0.04233 -5.36575,3.86027 -2.00818,5.241397 z"
         id="path2220"
         style="fill:#1d6c9d;stroke-width:0.264583" />
      <path
         class="st4"
         d="M 66.548001,31.630937 65.248902,30.13075 c 0,0 5.762619,-5.230812 13.636618,-1.534584 l -2.81517,-0.735541 -2.38918,0.375708 -1.529299,0.383646 -2.29129,0.780522 -1.41552,0.867832 -1.02923,0.740833 -0.86783,0.621771"
         id="path2229"
         style="fill:url(#SVGID_3_);stroke-width:0.264583" />
      <path
         class="st5"
         d="m 100.33264,42.589979 -2.12725,-1.148292 c 0,0 -1.18533,1.997604 -4.37356,1.997604 l 0.85196,1.359958 h 2.74108 l 1.2118,-0.637645 z"
         id="path2231"
         style="fill:#478cb5;stroke-width:0.264583" />
      <path
         class="st6"
         d="m 79.02575,28.826354 c -0.0503,-0.01852 0.30427,0.216958 0.42862,0.288396 1.59809,0.915458 3.02419,2.643187 3.54807,3.278187 0.84402,1.021292 0.79375,1.195917 2.24631,3.442229 2.36273,3.651251 3.79148,5.201708 4.20687,5.640917 0.71438,0.756708 2.04523,1.973792 2.78077,2.413 0.23548,0.140229 0.56886,0.309563 0.56886,0.309563 0,0 -0.19579,-0.463022 -0.381,-0.87048 C 92.20464,42.84927 91.8845,42.222208 91.52467,41.753895 91.09869,41.19827 90.89496,41.140062 90.12237,40.232542 89.93187,40.010291 89.52177,39.523458 89.1196,38.941375 88.30204,37.756041 88.392,37.425313 87.77817,36.472812 87.06908,35.372145 86.80714,35.59175 85.81231,34.297937 84.82012,33.00677 85.10852,32.821562 84.29625,31.869062 83.32787,30.731354 82.20869,30.159854 81.33821,29.712708 80.25342,29.159729 79.09983,28.852813 79.02575,28.826354 Z"
         id="path2242"
         style="fill:url(#SVGID_4_);stroke-width:0.264583" />
      <path
         class="st7"
         d="m 91.24685,41.965562 c -1.27793,-1.703917 -2.44475,-3.391957 -3.47133,-4.881561 -0.91281,-1.322918 -1.70392,-2.465918 -2.34421,-3.294064 -1.36789,-1.759479 -2.05052,-2.426229 -2.76489,-2.979208 -1.95528,-1.518709 -4.30213,-2.442104 -6.6093,-2.600853 -4.929179,-0.338668 -8.429619,2.762249 -9.387409,3.72004 l -0.248709,-0.248708 c 0.981599,-0.98425 4.579939,-4.169833 9.659938,-3.820583 2.37595,0.164041 4.78895,1.113895 6.79979,2.674937 0.73554,0.5715 1.43404,1.254125 2.82575,3.042708 0.64823,0.833438 1.43933,1.98173 2.35744,3.309939 1.02658,1.486957 2.19075,3.172354 3.46339,4.870978 z"
         id="path2244"
         style="fill:#e4eef5;stroke-width:0.264583" />
      <path
         class="st8"
         d="m 45.238462,50.077687 c -0.28311,0 -0.56886,-0.01058 -0.8599,-0.0344 l -0.0503,-0.0026 c -1.13242,-0.06085 -4.99004,-0.508001 -7.17285,-3.746501 -0.30163,-0.338666 -2.3495,-3.386666 -2.98715,-4.336521 l -2.67494,-4.183062 c 0,0 -2.12725,-4.164542 -5.27314,-6.598708 -0.89165,-0.690563 -1.53194,-1.021292 -2.60615,-1.397 -2.18016,-0.764646 -3.27554,-0.227542 -3.29406,-0.224896 l -1.0504,0.343958 -0.10848,-0.293687 0.16934,-0.04498 c 0.0767,-0.02117 1.03716,-0.48948 2.3786,-0.439208 3.83911,0.150812 6.51669,2.823103 8.52488,5.839353 l 2.05316,3.304647 2.17488,3.500437 c 1.09537,1.635125 2.78871,4.130145 2.95275,4.294188 l 0.0265,0.03175 c 2.09285,3.1115 5.81554,3.542772 6.90827,3.600979 l 0.0608,0.0026 c 6.54315,0.521229 10.64154,-5.124979 10.67329,-5.180541 l 0.0847,-0.153458 0.30692,0.171979 -0.0847,0.153458 c -0.41804,0.74348 -4.37092,5.392208 -10.15206,5.392208 z"
         id="path2257"
         style="fill:url(#SVGID_5_);stroke-width:0.264583" />
      <g
         id="g2263"
         transform="matrix(0.26458333,0,0,0.26458333,1.9414074e-6,7.481958e-7)">
        <path
           class="st9"
           d="m 110.14,147.95 c 4.28,-4.49 8.69,-6.73 13.25,-6.73 1.68,0 3.02,0.39 4.02,1.16 0.99,0.78 1.49,1.93 1.49,3.46 0,3.1 -1.82,5.76 -5.46,7.97 -3.64,2.21 -7.47,3.56 -11.48,4.06 l -1.85,0.23 c -0.28,0.89 -0.48,1.59 -0.58,2.12 -0.11,0.53 -0.16,1.19 -0.16,1.99 0,1.9 0.62,3.38 1.86,4.44 1.24,1.06 2.72,1.59 4.42,1.59 1.62,0 3.34,-0.54 5.15,-1.62 1.04,-0.63 2.54,-1.75 4.5,-3.37 l 0.84,0.74 c -0.97,1.23 -2.36,2.49 -4.18,3.79 -3.22,2.31 -6.45,3.47 -9.68,3.47 -2.29,0 -4.3,-0.81 -6.02,-2.43 -1.73,-1.62 -2.59,-3.94 -2.59,-6.96 -0.01,-4.79 2.15,-9.42 6.47,-13.91 z m 10.49,4.34 c 2.59,-2.29 3.89,-4.57 3.89,-6.83 0,-0.82 -0.19,-1.47 -0.58,-1.95 -0.39,-0.48 -0.96,-0.73 -1.72,-0.73 -1.4,0 -2.78,0.6 -4.13,1.79 -1.35,1.2 -2.56,2.55 -3.64,4.05 -1.14,1.77 -2.05,3.46 -2.72,5.07 -0.37,0.86 -0.76,1.84 -1.17,2.94 4.12,-0.6 7.48,-2.05 10.07,-4.34 z"
           id="path2259" />
        <path
           class="st9"
           d="m 132.22,170.47 5.54,-20.02 c 0.47,-1.69 0.75,-2.72 0.83,-3.08 0.08,-0.36 0.11,-0.74 0.11,-1.16 0,-0.63 -0.18,-1.12 -0.53,-1.48 -0.36,-0.36 -1.05,-0.54 -2.09,-0.54 -0.26,0 -0.51,0.02 -0.76,0.05 -0.25,0.03 -0.52,0.07 -0.83,0.11 v -1.07 c 1.39,-0.22 2.39,-0.38 2.98,-0.49 0.59,-0.11 1.23,-0.24 1.91,-0.39 l 5.76,-1.26 c 0.13,0.09 0.21,0.18 0.26,0.29 l -4.29,13.93 c 2.65,-4.04 4.87,-7.04 6.65,-9 3.13,-3.48 5.93,-5.21 8.41,-5.21 0.96,0 1.78,0.18 2.48,0.55 1.32,0.71 1.99,2 1.99,3.85 0,0.52 -0.05,1.06 -0.16,1.62 -0.11,0.56 -0.25,1.17 -0.42,1.81 l -4.26,15.51 c -0.09,0.32 -0.18,0.72 -0.29,1.18 -0.11,0.46 -0.16,0.79 -0.16,0.99 0,0.32 0.08,0.62 0.23,0.87 0.15,0.26 0.39,0.39 0.72,0.39 0.54,0 1.16,-0.33 1.86,-0.99 0.7,-0.66 1.85,-2.07 3.45,-4.23 l 0.94,0.84 c -1.74,2.4 -3.11,4.08 -4.13,5.05 -1.74,1.71 -3.4,2.56 -4.99,2.56 -0.72,0 -1.41,-0.24 -2.08,-0.73 -0.67,-0.49 -1,-1.37 -1,-2.64 0,-0.37 0.03,-0.76 0.08,-1.17 0.05,-0.41 0.12,-0.77 0.21,-1.07 l 4.13,-15.74 c 0.22,-0.86 0.36,-1.57 0.44,-2.12 0.08,-0.55 0.11,-0.94 0.11,-1.18 0,-0.52 -0.13,-0.97 -0.37,-1.34 -0.25,-0.38 -0.69,-0.57 -1.32,-0.57 -1.64,0 -3.71,1.47 -6.2,4.4 -1.47,1.75 -2.95,3.83 -4.46,6.24 -1.13,1.88 -2.02,3.7 -2.66,5.48 -0.65,1.78 -1.68,5.02 -3.09,9.72 h -5 z"
           id="path2261" />
      </g>
      <g
         id="g2269"
         transform="matrix(0.26458333,0,0,0.26458333,1.9414074e-6,7.481958e-7)">
        <path
           class="st9"
           d="m 174.06,131.57 c 4.08,-3.91 9.1,-5.86 15.06,-5.86 5.98,0 11.01,1.96 15.09,5.89 4.43,4.25 6.64,9.92 6.64,17 0,7.19 -2.29,12.91 -6.87,17.16 -4.1,3.8 -9.06,5.7 -14.87,5.7 -6.22,0 -11.38,-2.11 -15.48,-6.32 -4.17,-4.3 -6.25,-9.81 -6.25,-16.55 0.01,-7.07 2.23,-12.74 6.68,-17.02 z m 4.96,32.5 c 2.75,3.34 6.12,5 10.12,5 3.91,0 7.26,-1.62 10.03,-4.87 2.78,-3.25 4.17,-8.45 4.17,-15.59 0,-7.23 -1.41,-12.46 -4.22,-15.68 -2.81,-3.22 -6.14,-4.83 -9.99,-4.83 -3.98,0 -7.34,1.67 -10.1,5 -2.76,3.34 -4.13,8.5 -4.13,15.5 0,6.98 1.37,12.13 4.12,15.47 z"
           id="path2265" />
        <path
           class="st9"
           d="m 214.06,169.3 c 2.74,-0.28 4.5,-0.9 5.28,-1.86 0.78,-0.96 1.17,-3.19 1.17,-6.68 v -26.92 c 0,-2.39 -0.38,-3.95 -1.13,-4.68 -0.76,-0.72 -2.47,-1.15 -5.15,-1.28 v -1.23 h 13.08 l 15.23,33.04 14.86,-33.04 h 13.18 v 1.23 c -2.46,0.17 -4.05,0.62 -4.76,1.34 -0.71,0.72 -1.07,2.26 -1.07,4.61 v 29.48 c 0,2.42 0.36,3.96 1.07,4.64 0.71,0.68 2.3,1.13 4.76,1.34 v 1.23 h -18.56 v -1.23 c 2.68,-0.22 4.35,-0.7 5,-1.44 0.66,-0.74 0.99,-2.52 0.99,-5.32 v -29.77 l -16.99,37.77 h -0.91 l -16.7,-36.21 v 26.44 c 0,3.62 0.53,5.99 1.59,7.09 0.69,0.71 2.23,1.2 4.63,1.46 v 1.23 h -15.58 v -1.24 z"
           id="path2267" />
      </g>
      <g
         id="g2275"
         transform="matrix(0.26458333,0,0,0.26458333,1.9414074e-6,7.481958e-7)">
        <path
           class="st9"
           d="m 327.61,126.91 c 2.46,0.69 3.83,1.04 4.13,1.04 0.61,0 1.19,-0.17 1.73,-0.5 0.55,-0.34 0.92,-0.86 1.13,-1.58 h 1.35 l 0.6,14.49 h -1.48 c -0.86,-2.88 -1.98,-5.2 -3.37,-6.96 -2.65,-3.32 -6.21,-4.98 -10.68,-4.98 -4.52,0 -8.21,1.79 -11.07,5.36 -2.87,3.57 -4.3,8.49 -4.3,14.74 0,5.76 1.51,10.35 4.52,13.78 3.01,3.43 6.83,5.15 11.45,5.15 3.34,0 6.42,-0.8 9.23,-2.39 1.62,-0.9 3.39,-2.27 5.32,-4.1 l 1.2,1.2 c -1.43,1.81 -3.2,3.39 -5.32,4.76 -3.61,2.31 -7.53,3.47 -11.75,3.47 -6.93,0 -12.43,-2.22 -16.51,-6.65 -3.76,-4.1 -5.64,-9.21 -5.64,-15.34 0,-6.28 1.98,-11.55 5.95,-15.82 4.18,-4.47 9.62,-6.71 16.32,-6.71 2.34,0 4.73,0.35 7.19,1.04 z"
           id="path2271" />
        <path
           class="st9"
           d="m 370.64,126.91 c 2.46,0.69 3.83,1.04 4.13,1.04 0.61,0 1.19,-0.17 1.73,-0.5 0.55,-0.34 0.92,-0.86 1.13,-1.58 h 1.35 l 0.6,14.49 h -1.48 c -0.86,-2.88 -1.98,-5.2 -3.37,-6.96 -2.65,-3.32 -6.21,-4.98 -10.68,-4.98 -4.52,0 -8.21,1.79 -11.07,5.36 -2.87,3.57 -4.3,8.49 -4.3,14.74 0,5.76 1.51,10.35 4.52,13.78 3.01,3.43 6.83,5.15 11.45,5.15 3.34,0 6.42,-0.8 9.23,-2.39 1.62,-0.9 3.39,-2.27 5.32,-4.1 l 1.2,1.2 c -1.43,1.81 -3.2,3.39 -5.32,4.76 -3.61,2.31 -7.53,3.47 -11.75,3.47 -6.93,0 -12.43,-2.22 -16.51,-6.65 -3.76,-4.1 -5.64,-9.21 -5.64,-15.34 0,-6.28 1.98,-11.55 5.95,-15.82 4.18,-4.47 9.62,-6.71 16.32,-6.71 2.34,0 4.74,0.35 7.19,1.04 z"
           id="path2273" />
      </g>
      <path
         class="st9"
         d="m 80.53123,44.730459 c -0.26723,-0.791104 -0.92604,-1.354668 -1.69334,-1.354668 -0.76729,0 -1.4261,0.560918 -1.69333,1.354668 H 76.37198 L 76.22646,46.156563 75.52796,31.8135 75.17606,31.8161 74.67071,45.254288 74.49873,44.7701 h -0.98954 c -0.127,-0.246062 -0.383649,-0.41804 -0.679979,-0.41804 -0.29634,0 -0.55298,0.171978 -0.67998,0.41804 h -1.14036 v 0.351896 h 1.0504 0.3466 0.005 c 0,-0.230187 0.18785,-0.418042 0.41804,-0.418042 0.23018,0 0.418039,0.187855 0.418039,0.418042 h 0.0132 0.33866 0.64559 l 0.70379,2.082272 0.42598,-11.31623 0.61383,12.60475 0.34925,0.0079 0.34925,-3.421063 h 0.36513 c 0,0 0.32808,0.0026 0.32808,0.0026 0.15875,-0.79375 0.75142,-1.386417 1.45521,-1.386417 0.70379,0 1.29381,0.59002 1.45521,1.383771 v 0.0026 0 h 0.32808 4.12485 v -0.35454 H 80.5309 Z"
         id="path2277"
         style="fill:#4291cc;stroke-width:0.264583" />
      <path
         class="st9"
         d="M 77.0546,45.082354"
         id="path2279"
         style="fill:#4291cc;stroke-width:0.264583" />
      <path
         class="st9"
         d="m 20.978812,37.883041 c 0.81756,0.103188 1.33615,0.20373 1.55311,0.301625 0.21695,0.0979 0.32543,0.325439 0.32543,0.679979 0,0.07144 -0.005,0.14023 -0.0106,0.206375 -0.008,0.06615 -0.0185,0.132292 -0.0344,0.195792 l -0.25929,1.087437 c -0.18785,0.812271 -0.3466,1.44198 -0.4736,1.889125 -0.19579,0.709084 -0.36513,1.180042 -0.508,1.418168 -0.21961,0.370416 -0.64294,0.648228 -1.26471,0.833438 -0.62177,0.185207 -1.19592,0.277812 -1.72508,0.277812 -1.51077,0 -2.67494,-0.460376 -3.48986,-1.383771 -0.81491,-0.92075 -1.22237,-2.135187 -1.22237,-3.640667 0,-2.151062 0.5715,-4.214813 1.71185,-6.193896 1.40229,-2.418292 3.40519,-3.931708 5.67796,-3.997853 0.90752,-0.02646 1.59279,-0.0079 2.24631,0.193146 l 0.0265,-0.24871 c -0.40481,-0.134937 -0.78317,-0.230187 -1.13771,-0.288396 -0.46566,-0.07408 -0.87841,-0.111125 -1.24089,-0.111125 -2.86544,0 -5.29432,1.127125 -7.28663,3.37873 -1.78858,2.032 -2.68023,4.228041 -2.68023,6.59077 0,1.793875 0.56621,3.302 1.70127,4.524375 1.29117,1.386418 3.09034,2.079625 5.3975,2.079625 1.1483,0 2.21721,-0.150812 3.19882,-0.449791 0.98425,-0.29898 1.78593,-0.653521 2.4077,-1.063625 l 1.18269,-4.534959 c 0.17198,-0.669394 0.40217,-1.105958 0.69056,-1.309686 0.2884,-0.20373 0.84138,-0.346605 1.65894,-0.425979 v -0.388939 h -6.44525 z"
         id="path2281"
         style="fill:#4291cc;stroke-width:0.264583" />
    </g>
    <path
       inkscape:connector-curvature="0"
       style="clip-rule:evenodd;fill:#e10043;fill-rule:evenodd;stroke-width:0.264583"
       d="m -98.342049,-65.911952 c 8.643011,0 16.127179,6.984069 19.763393,17.158642 -3.100845,-11.094543 -10.781125,-18.948585 -19.763393,-18.948585 -8.982401,0 -16.662551,7.854042 -19.763911,18.949746 3.63595,-10.175734 11.12038,-17.159803 19.763911,-17.159803 z m 0,0"
       id="path903" />
    <path
       inkscape:connector-curvature="0"
       style="clip-rule:evenodd;fill:#e10043;fill-rule:evenodd;stroke-width:0.264583"
       d="m -49.113014,-82.821515 c 34.468438,0 64.315453,4.500243 78.817152,11.056173 -12.366429,-7.148788 -42.995826,-12.209462 -78.817152,-12.209462 -35.822749,0 -66.451496,5.060674 -78.819736,12.210108 14.50041,-6.556576 44.348455,-11.056819 78.819736,-11.056819 z m 0,0"
       id="path905" />
    <path
       inkscape:connector-curvature="0"
       style="clip-rule:evenodd;fill:#e10043;fill-rule:evenodd;stroke-width:0.264583"
       d="m -50.615119,-69.540027 c 9.245171,0 17.250756,8.425844 21.140441,20.700804 -3.316851,-13.384842 -11.53237,-22.860359 -21.140441,-22.860359 -9.608458,0 -17.823847,9.475517 -21.141216,22.861653 3.889298,-12.276254 11.895269,-20.702098 21.141216,-20.702098 z m 0,0"
       id="path907" />
    <path
       inkscape:connector-curvature="0"
       style="clip-rule:evenodd;fill:#e10043;fill-rule:evenodd;stroke-width:0.264583"
       d="m -3.3907413,-65.876553 c 8.4666665,0 15.7982603,7.516852 19.3603163,18.467863 -3.037541,-11.94113 -10.5613701,-20.39449 -19.3603163,-20.39449 -8.7992027,0 -16.3227757,8.45336 -19.3608327,20.395655 3.561797,-10.952176 10.89365,-18.469028 19.3608327,-18.469028 z m 0,0"
       id="path909" />
    <path
       inkscape:connector-curvature="0"
       style="clip-rule:evenodd;fill:#e10043;fill-rule:evenodd;stroke-width:0.264583"
       d="m -65.220169,-83.253399 c -0.226732,0 -0.596347,-0.214329 -0.41044,-0.851242 l 2.678776,-8.928007 c 0.113816,-0.369874 0.223242,-0.686522 0.449972,-0.686522 h 5.29e-4 c 0.226732,0 0.33719,0.305149 0.449844,0.686522 l 2.679166,8.928007 c 0.185904,0.636913 -0.164203,0.851242 -0.390803,0.851242 h -5.457031 z m 0,0"
       id="path911" />
    <path
       inkscape:connector-curvature="0"
       style="clip-rule:evenodd;fill:#e10043;fill-rule:evenodd;stroke-width:0.264583"
       d="m -74.83961,-82.939207 c -0.198048,0 -0.521028,-0.18384 -0.358634,-0.730575 l 2.339781,-7.660902 c 0.09948,-0.317423 0.194948,-0.589113 0.392999,-0.589113 h 5.3e-4 c 0.198051,0 0.294555,0.261871 0.392869,0.589113 l 2.340038,7.660902 c 0.162393,0.546735 -0.143272,0.730575 -0.341323,0.730575 h -4.766246 z m 0,0"
       id="path913" />
    <path
       inkscape:connector-curvature="0"
       style="clip-rule:evenodd;fill:#e10043;fill-rule:evenodd;stroke-width:0.264583"
       d="m -60.34411,-95.745791 c 0,1.279252 -1.03986,2.315234 -2.326603,2.315234 -1.284161,0 -2.323632,-1.035982 -2.323632,-2.315234 0,-1.273953 1.039471,-2.305672 2.323632,-2.305672 1.286743,0 2.326603,1.031719 2.326603,2.305672 z m 0,0"
       id="path915" />
    <path
       inkscape:connector-curvature="0"
       style="clip-rule:evenodd;fill:#e10043;fill-rule:evenodd;stroke-width:0.264583"
       d="m -70.203975,-94.009334 c 0,1.276798 -0.956402,2.30477 -2.138629,2.30477 -1.180031,0 -2.138757,-1.027972 -2.138757,-2.30477 0,-1.267621 0.958466,-2.304766 2.138757,-2.304766 1.182227,0 2.138629,1.037145 2.138629,2.304766 z m 0,0"
       id="path917" />
    <path
       inkscape:connector-curvature="0"
       style="fill:#e10043;stroke-width:0.264583"
       d="m -125.38588,-22.626868 h 3.32538 v -19.795691 h -3.32538 z m 11.88752,-1.072803 c -0.57335,-0.184486 -1.09425,-0.454753 -1.56321,-0.809771 -0.46897,-0.355533 -0.87889,-0.789098 -1.22925,-1.300694 -0.35063,-0.511598 -0.6302,-1.08934 -0.83846,-1.733746 l -1.79058,0.738974 c 0.2651,0.72967 0.60151,1.383379 1.00898,1.96112 0.40721,0.57826 0.89749,1.066086 1.47084,1.463993 0.57309,0.397909 1.2339,0.701249 1.98244,0.909505 0.74827,0.208256 1.59628,0.312642 2.54377,0.312642 1.1746,0 2.2049,-0.149344 3.0909,-0.447516 0.88573,-0.298691 1.62716,-0.7059 2.22402,-1.222147 0.59686,-0.51625 1.04451,-1.117762 1.34294,-1.805059 0.29843,-0.686779 0.44765,-1.42317 0.44765,-2.209684 0,-0.69143 -0.16123,-1.3193 -0.48318,-1.88309 -0.3222,-0.563274 -0.74388,-1.082103 -1.26478,-1.555977 -0.52115,-0.473872 -1.11802,-0.909505 -1.79059,-1.307415 -0.67282,-0.397907 -1.35715,-0.781862 -2.05349,-1.15135 -0.69634,-0.369486 -1.38092,-0.731737 -2.05349,-1.086755 -0.67283,-0.355534 -1.26969,-0.727088 -1.79059,-1.115695 -0.52115,-0.388607 -0.94283,-0.797883 -1.26478,-1.229381 -0.3222,-0.430983 -0.48317,-0.906923 -0.48317,-1.428337 0,-0.369486 0.0782,-0.731737 0.23448,-1.086755 0.15632,-0.355534 0.38835,-0.672828 0.69634,-0.952397 0.30773,-0.279053 0.69634,-0.506428 1.1653,-0.682128 0.46897,-0.175183 1.01609,-0.263035 1.64137,-0.263035 0.701,0 1.33093,0.09767 1.89007,0.291457 0.55888,0.194302 1.05381,0.471289 1.48505,0.831474 0.43098,0.360183 0.80047,0.791165 1.10846,1.292942 0.30773,0.502296 0.56134,1.056783 0.76029,1.662949 l 1.70532,-0.781865 c -0.48317,-1.487247 -1.26723,-2.62413 -2.35192,-3.410643 -1.08495,-0.786001 -2.56509,-1.179256 -4.44095,-1.179256 -1.04231,0 -1.96357,0.134874 -2.76404,0.405143 -0.80072,0.269751 -1.47575,0.641821 -2.02507,1.115176 -0.54958,0.473874 -0.96635,1.035595 -1.25057,1.684134 -0.28422,0.649058 -0.42633,1.352373 -0.42633,2.110468 0,0.758092 0.15632,1.428334 0.46897,2.01073 0.31264,0.582909 0.7223,1.108458 1.22925,1.577681 0.50669,0.468704 1.08714,0.895035 1.74085,1.278991 0.65371,0.383439 1.31917,0.750858 1.99665,1.101225 0.67722,0.350366 1.34294,0.698666 1.99665,1.044381 0.6537,0.346231 1.2339,0.717786 1.74085,1.115693 0.50668,0.397909 0.9166,0.831474 1.22925,1.300181 0.31264,0.46922 0.46896,1.006655 0.46896,1.61282 0,0.502296 -0.11369,0.945161 -0.34106,1.329119 -0.22738,0.383437 -0.52827,0.707967 -0.9024,0.973066 -0.3744,0.265618 -0.80073,0.464571 -1.279,0.596863 -0.47852,0.132807 -0.96415,0.198953 -1.45662,0.198953 -0.64441,0 -1.25303,-0.09198 -1.82612,-0.276984 z m 19.561467,-19.17764 -9.535597,20.250443 h 1.66269 l 3.126428,-6.607865 h 8.483978 l 3.026947,6.607865 h 3.382222 l -9.322427,-20.250443 z m -0.468963,4.533056 3.595388,7.830529 h -7.290252 z m 13.173614,15.717387 h 3.325379 v -9.307959 h 2.330606 l 6.878135,9.307959 h 3.851185 l -7.204986,-9.60665 c 0.719852,-0.170532 1.378469,-0.413927 1.975332,-0.731737 0.596863,-0.317294 1.108459,-0.69143 1.53479,-1.122413 0.426331,-0.430982 0.75538,-0.914156 0.987665,-1.449525 0.232027,-0.535366 0.348171,-1.111043 0.348171,-1.727025 0,-0.748276 -0.151672,-1.437122 -0.454753,-2.067573 -0.303342,-0.629936 -0.753184,-1.174607 -1.350047,-1.634009 -0.596863,-0.459404 -1.342943,-0.817523 -2.238237,-1.073322 -0.895295,-0.255796 -1.939803,-0.383437 -3.133529,-0.383437 h -6.849711 z m 3.325379,-18.559592 h 2.927469 c 0.606165,0 1.165304,0.09973 1.6769,0.298691 0.511598,0.198954 0.95214,0.475941 1.321625,0.831474 0.369486,0.355016 0.658358,0.781347 0.866873,1.278991 0.208256,0.497128 0.312642,1.03973 0.312642,1.626775 0,0.644403 -0.130354,1.227314 -0.390802,1.748213 -0.260708,0.520898 -0.623089,0.964282 -1.087144,1.3286 -0.464312,0.364836 -1.011436,0.646472 -1.641372,0.845428 -0.630195,0.198954 -1.319429,0.298688 -2.067703,0.298688 h -1.918488 z m 15.546853,18.559592 h 3.325378 v -19.795691 h -3.325378 z m 11.979888,-13.585735 c 0.426331,-1.108458 1.008984,-2.051036 1.747957,-2.827734 0.738973,-0.776698 1.605846,-1.37356 2.600616,-1.790589 0.994772,-0.417028 2.06525,-0.625284 3.21169,-0.625284 1.326277,0 2.50114,0.374136 3.524334,1.122412 1.023192,0.748792 1.951559,1.923397 2.785359,3.524332 l 1.435312,-0.966348 c -0.407467,-0.663009 -0.895292,-1.302247 -1.463734,-1.918229 -0.568441,-0.615984 -1.219951,-1.158071 -1.954016,-1.627291 -0.734322,-0.468706 -1.544349,-0.845428 -2.430084,-1.129649 -0.885992,-0.284218 -1.854536,-0.426328 -2.906152,-0.426328 -1.108461,0 -2.150774,0.12764 -3.126425,0.383437 -0.97591,0.255799 -1.873657,0.613918 -2.692987,1.073322 -0.81959,0.459401 -1.556108,1.011306 -2.209814,1.655193 -0.653708,0.644406 -1.20574,1.352892 -1.655585,2.124935 -0.450101,0.772046 -0.795816,1.596287 -1.037405,2.472719 -0.241585,0.876432 -0.362378,1.778701 -0.362378,2.706812 0,0.928624 0.118337,1.828829 0.355274,2.700091 0.236678,0.871784 0.575546,1.689304 1.016088,2.451532 0.440542,0.762743 0.980561,1.46141 1.620057,2.095994 0.639495,0.635106 1.364257,1.177708 2.174285,1.627294 0.810029,0.450101 1.698217,0.800983 2.664565,1.051613 0.966351,0.251147 1.994194,0.376721 3.083793,0.376721 1.13688,0 2.164726,-0.14211 3.08379,-0.426331 0.918808,-0.284218 1.743046,-0.66094 2.472717,-1.129646 0.729414,-0.46922 1.371364,-1.011307 1.925592,-1.627291 0.554231,-0.615982 1.034952,-1.25522 1.442419,-1.918745 l -1.39268,-0.895035 c -0.28422,0.559139 -0.644403,1.111043 -1.080037,1.655712 -0.43589,0.544669 -0.93082,1.032494 -1.48505,1.463477 -0.554231,0.431498 -1.153547,0.781865 -1.797696,1.051615 -0.644403,0.270267 -1.312323,0.405143 -2.003753,0.405143 -1.165302,0 -2.247794,-0.201022 -3.247218,-0.604096 -0.999681,-0.402561 -1.864098,-0.984954 -2.593509,-1.747698 -0.729674,-0.762743 -1.302764,-1.693436 -1.719535,-2.792595 -0.417029,-1.099158 -0.625285,-2.345076 -0.625285,-3.737755 0,-1.392679 0.213167,-2.643251 0.639495,-3.75171 z"
       id="path919" />
    <text
       xml:space="preserve"
       style="font-style:normal;font-variant:normal;font-weight:bold;font-stretch:normal;font-size:11.28890000000000171px;line-height:1.25;font-family:sans-serif;-inkscape-font-specification:'sans-serif, Bold';font-variant-ligatures:normal;font-variant-caps:normal;font-variant-numeric:normal;font-variant-east-asian:normal;word-spacing:0px;stroke-width:0.264583;stroke:none;stroke-opacity:1;fill:#e10043;fill-opacity:1;"
       x="-125.95363"
       y="-1.3946025"
       id="text3364"><tspan
         sodipodi:role="line"
         id="tspan3362"
         x="-125.95363"
         y="-1.3946025"
         style="font-style:normal;font-variant:normal;font-weight:bold;font-stretch:normal;font-size:11.28890000000000171px;font-family:sans-serif;-inkscape-font-specification:'sans-serif, Bold';font-variant-ligatures:normal;font-variant-caps:normal;font-variant-numeric:normal;font-variant-east-asian:normal;stroke-width:0.264583;stroke:none;stroke-opacity:1;fill:#e10043;fill-opacity:1;">Clinical Characterisation Protocol</tspan></text>
    <path
       style="fill:none;stroke:#000000;stroke-width:0.765;stroke-linecap:butt;stroke-linejoin:miter;stroke-miterlimit:4;stroke-dasharray:none;stroke-dashoffset:0;stroke-opacity:1"
       d="m 49.651284,138.13083 v 76.2968"
       id="path3380"
       sodipodi:nodetypes="cc" />
    <path
       style="fill:none;stroke:#000000;stroke-width:0.755959;stroke-linecap:butt;stroke-linejoin:miter;stroke-miterlimit:4;stroke-dasharray:none;stroke-dashoffset:0;stroke-opacity:1"
       d="M -73.615557,124.23388 H -136.34014"
       id="path3406"
       sodipodi:nodetypes="cc" />
    <text
       xml:space="preserve"
       style="font-style:normal;font-variant:normal;font-weight:bold;font-stretch:normal;font-size:9.87778px;line-height:1.25;font-family:sans-serif;-inkscape-font-specification:'sans-serif, Bold';font-variant-ligatures:normal;font-variant-caps:normal;font-variant-numeric:normal;font-variant-east-asian:normal;word-spacing:0px;stroke-width:0.264583"
       x="-119.22298"
       y="115.83955"
       id="text3410"><tspan
         sodipodi:role="line"
         id="tspan3408"
         x="-119.22298"
         y="115.83955"
         style="font-style:normal;font-variant:normal;font-weight:bold;font-stretch:normal;font-size:9.87778px;font-family:sans-serif;-inkscape-font-specification:'sans-serif, Bold';font-variant-ligatures:normal;font-variant-caps:normal;font-variant-numeric:normal;font-variant-east-asian:normal;stroke-width:0.264583">2012</tspan></text>
    <text
       xml:space="preserve"
       style="font-style:normal;font-variant:normal;font-weight:bold;font-stretch:normal;font-size:24.6944px;line-height:1.25;font-family:sans-serif;-inkscape-font-specification:'sans-serif, Bold';font-variant-ligatures:normal;font-variant-caps:normal;font-variant-numeric:normal;font-variant-east-asian:normal;word-spacing:0px;stroke-width:0.264583"
       x="-144.55331"
       y="-198.47369"
       id="text3414"><tspan
         sodipodi:role="line"
         id="tspan3412"
         x="-144.55331"
         y="-198.47369"
         style="font-style:normal;font-variant:normal;font-weight:bold;font-stretch:normal;font-size:24.6944px;font-family:sans-serif;-inkscape-font-specification:'sans-serif, Bold';font-variant-ligatures:normal;font-variant-caps:normal;font-variant-numeric:normal;font-variant-east-asian:normal;stroke-width:0.264583">INFRASTRUCTURE</tspan></text>
    <path
       style="fill:none;stroke:#000000;stroke-width:0.755959;stroke-linecap:butt;stroke-linejoin:miter;stroke-miterlimit:4;stroke-dasharray:none;stroke-dashoffset:0;stroke-opacity:1"
       d="M -7.0603698,124.23388 H -69.784938"
       id="path3446"
       sodipodi:nodetypes="cc" />
    <path
       style="fill:none;stroke:#000000;stroke-width:0.755959;stroke-linecap:butt;stroke-linejoin:miter;stroke-miterlimit:4;stroke-dasharray:none;stroke-dashoffset:0;stroke-opacity:1"
       d="M 59.494804,124.23388 H -3.2297621"
       id="path3448"
       sodipodi:nodetypes="cc" />
    <path
       style="fill:none;stroke:#000000;stroke-width:0.755959;stroke-linecap:butt;stroke-linejoin:miter;stroke-miterlimit:4;stroke-dasharray:none;stroke-dashoffset:0;stroke-opacity:1"
       d="M 126.04995,124.23388 H 63.325371"
       id="path3450"
       sodipodi:nodetypes="cc" />
    <path
       style="fill:none;stroke:#000000;stroke-width:0.755959;stroke-linecap:butt;stroke-linejoin:miter;stroke-miterlimit:4;stroke-dasharray:none;stroke-dashoffset:0;stroke-opacity:1"
       d="m 259.16038,124.23388 h -62.7246"
       id="path3452"
       sodipodi:nodetypes="cc" />
    <path
       style="fill:none;stroke:#000000;stroke-width:0.755959;stroke-linecap:butt;stroke-linejoin:miter;stroke-miterlimit:4;stroke-dasharray:none;stroke-dashoffset:0;stroke-opacity:1"
       d="m 192.60516,124.23388 h -62.7246"
       id="path3454"
       sodipodi:nodetypes="cc" />
    <path
       style="fill:none;stroke:#000000;stroke-width:0.755959;stroke-linecap:butt;stroke-linejoin:miter;stroke-miterlimit:4;stroke-dasharray:none;stroke-dashoffset:0;stroke-opacity:1"
       d="m 325.71552,124.23388 h -62.7246"
       id="path3456"
       sodipodi:nodetypes="cc" />
    <path
       style="fill:none;stroke:#000000;stroke-width:0.755959;stroke-linecap:butt;stroke-linejoin:miter;stroke-miterlimit:4;stroke-dasharray:none;stroke-dashoffset:0;stroke-opacity:1"
       d="m 458.82592,124.23388 h -62.7246"
       id="path3458"
       sodipodi:nodetypes="cc" />
    <path
       style="fill:none;stroke:#000000;stroke-width:0.755959;stroke-linecap:butt;stroke-linejoin:miter;stroke-miterlimit:4;stroke-dasharray:none;stroke-dashoffset:0;stroke-opacity:1"
       d="m 591.93631,124.23388 h -62.7246"
       id="path3460"
       sodipodi:nodetypes="cc" />
    <path
       style="fill:none;stroke:#000000;stroke-width:0.755959;stroke-linecap:butt;stroke-linejoin:miter;stroke-miterlimit:4;stroke-dasharray:none;stroke-dashoffset:0;stroke-opacity:1"
       d="M 392.27071,124.23388 H 329.54612"
       id="path3462"
       sodipodi:nodetypes="cc" />
    <path
       style="fill:none;stroke:#000000;stroke-width:0.755959;stroke-linecap:butt;stroke-linejoin:miter;stroke-miterlimit:4;stroke-dasharray:none;stroke-dashoffset:0;stroke-opacity:1"
       d="m 525.38117,124.23388 h -62.7246"
       id="path3464"
       sodipodi:nodetypes="cc" />
    <text
       xml:space="preserve"
       style="font-style:normal;font-variant:normal;font-weight:bold;font-stretch:normal;font-size:9.87778px;line-height:1.25;font-family:sans-serif;-inkscape-font-specification:'sans-serif, Bold';font-variant-ligatures:normal;font-variant-caps:normal;font-variant-numeric:normal;font-variant-east-asian:normal;word-spacing:0px;stroke-width:0.264583"
       x="13.836753"
       y="115.83955"
       id="text3468"><tspan
         sodipodi:role="line"
         id="tspan3466"
         x="13.836753"
         y="115.83955"
         style="font-style:normal;font-variant:normal;font-weight:bold;font-stretch:normal;font-size:9.87778px;font-family:sans-serif;-inkscape-font-specification:'sans-serif, Bold';font-variant-ligatures:normal;font-variant-caps:normal;font-variant-numeric:normal;font-variant-east-asian:normal;stroke-width:0.264583">2014</tspan></text>
    <text
       xml:space="preserve"
       style="font-style:normal;font-variant:normal;font-weight:bold;font-stretch:normal;font-size:9.87778px;line-height:1.25;font-family:sans-serif;-inkscape-font-specification:'sans-serif, Bold';font-variant-ligatures:normal;font-variant-caps:normal;font-variant-numeric:normal;font-variant-east-asian:normal;word-spacing:0px;stroke-width:0.264583"
       x="413.24261"
       y="115.83955"
       id="text3472"><tspan
         sodipodi:role="line"
         id="tspan3470"
         x="413.24261"
         y="115.83955"
         style="font-style:normal;font-variant:normal;font-weight:bold;font-stretch:normal;font-size:9.87778px;font-family:sans-serif;-inkscape-font-specification:'sans-serif, Bold';font-variant-ligatures:normal;font-variant-caps:normal;font-variant-numeric:normal;font-variant-east-asian:normal;stroke-width:0.264583">2020</tspan></text>
    <path
       style="fill:none;stroke:#000000;stroke-width:0.765;stroke-linecap:butt;stroke-linejoin:miter;stroke-miterlimit:4;stroke-dasharray:none;stroke-dashoffset:0;stroke-opacity:1"
       d="m 416.1859,138.13083 v 76.2968"
       id="path3486"
       sodipodi:nodetypes="cc" />
    <path
       style="fill:none;stroke:#000000;stroke-width:0.765;stroke-linecap:butt;stroke-linejoin:miter;stroke-miterlimit:4;stroke-dasharray:none;stroke-dashoffset:0;stroke-opacity:1"
       d="M -106.45289,16.422468 V 92.719226"
       id="path3488"
       sodipodi:nodetypes="cc" />
    <rect
       style="fill:#ffffff;fill-opacity:1;stroke-width:0.765;stop-color:#000000"
       id="rect4235"
       width="0"
       height="13.342595"
       x="626.44452"
       y="347.2627" />
  </g>
  <style
     id="style823">
        .st9{fill:#4291cc}
    </style>
</svg>
