<?xml version="1.0" encoding="UTF-8" standalone="no"?>
<svg
   xmlns:dc="http://purl.org/dc/elements/1.1/"
   xmlns:cc="http://creativecommons.org/ns#"
   xmlns:rdf="http://www.w3.org/1999/02/22-rdf-syntax-ns#"
   xmlns:svg="http://www.w3.org/2000/svg"
   xmlns="http://www.w3.org/2000/svg"
   xmlns:sodipodi="http://sodipodi.sourceforge.net/DTD/sodipodi-0.dtd"
   xmlns:inkscape="http://www.inkscape.org/namespaces/inkscape"
   version="1.1"
   id="Layer_1"
   x="0px"
   y="0px"
   width="200.42"
   height="210.72501"
   viewBox="0 0 200.42 210.72501"
   enable-background="new 0 0 732.385 233.553"
   xml:space="preserve"
   sodipodi:docname="icon.svg"
   inkscape:version="1.0.2 (e86c8708, 2021-01-15)"><metadata
   id="metadata945"><rdf:RDF><cc:Work
       rdf:about=""><dc:format>image/svg+xml</dc:format><dc:type
         rdf:resource="http://purl.org/dc/dcmitype/StillImage" /><dc:title></dc:title></cc:Work></rdf:RDF></metadata><defs
   id="defs943">
	
	
	
	
	
	
	

		
		
	</defs><sodipodi:namedview
   pagecolor="#ffffff"
   bordercolor="#666666"
   borderopacity="1"
   objecttolerance="10"
   gridtolerance="10"
   guidetolerance="10"
   inkscape:pageopacity="0"
   inkscape:pageshadow="2"
   inkscape:window-width="1440"
   inkscape:window-height="847"
   id="namedview941"
   showgrid="false"
   inkscape:zoom="0.99669485"
   inkscape:cx="268.13799"
   inkscape:cy="103.19948"
   inkscape:window-x="0"
   inkscape:window-y="25"
   inkscape:window-maximized="0"
   inkscape:current-layer="Layer_1" />
<rect
   id="rect1648"
   x="-40.471001"
   y="-11.505"
   fill="#e82b2a"
   fill-opacity="0"
   width="731.68402"
   height="233.541" /><polygon
   id="polygon1580"
   fill="none"
   points="157.504,233.545 167.859,201.649 140.727,181.944 113.604,201.662 123.969,233.553 "
   transform="translate(-40.479,-11.509)" /><polygon
   id="polygon1582"
   fill="none"
   points="113.604,31.893 140.727,51.609 167.859,31.906 157.504,0.01 123.969,0 "
   transform="translate(-40.479,-11.509)" /><polygon
   id="polygon1584"
   fill="none"
   points="0,133.666 31.884,144.045 51.607,116.926 31.911,89.787 0.012,100.129 "
   transform="translate(-40.479,-11.509)" /><polygon
   id="polygon1586"
   fill="none"
   points="249.55,89.787 229.854,116.926 249.577,144.045 281.463,133.666 281.449,100.129 "
   transform="translate(-40.479,-11.509)" /><g
   id="g932"
   transform="translate(-40.479,-11.509)">
			<polygon
   fill="#e82b2a"
   points="185.347,84.365 212.918,64.336 202.387,31.925 168.31,31.925 157.779,64.336 "
   id="polygon872" />
			<polygon
   opacity="0.6"
   fill="#e82b2a"
   enable-background="new    "
   points="110.073,74.238 79.094,31.925 68.562,64.336 96.131,84.365 "
   id="polygon874" />
			<polygon
   opacity="0.8"
   fill="#e82b2a"
   enable-background="new    "
   points="79.094,31.925 110.073,74.238 123.699,64.337 123.699,64.336 123.701,64.336 113.171,31.925 "
   id="polygon876" />
			<polygon
   fill="#e82b2a"
   points="79.089,201.625 113.166,201.625 123.697,169.216 96.129,149.187 68.559,169.216 "
   id="polygon878" />
			<polygon
   opacity="0.4"
   fill="#e82b2a"
   enable-background="new    "
   points="96.129,84.365 68.562,64.336 40.991,84.365 51.522,116.776 85.599,116.776 "
   id="polygon880" />
			<polygon
   fill="#e82b2a"
   points="123.701,64.336 157.779,64.336 140.74,41.066 113.171,31.925 "
   id="polygon882" />
			<polygon
   opacity="0.8"
   fill="#e82b2a"
   enable-background="new    "
   points="140.74,41.066 168.31,31.925 140.741,11.895 113.171,31.925 "
   id="polygon884" />
			<polygon
   opacity="0.6"
   fill="#e82b2a"
   enable-background="new    "
   points="168.31,31.925 140.74,41.066 157.779,64.336 "
   id="polygon886" />
			<polygon
   opacity="0.8"
   fill="#e82b2a"
   enable-background="new    "
   points="185.346,149.187 157.777,169.216 157.775,169.216 168.305,201.625 185.344,178.356 "
   id="polygon888" />
			<polygon
   opacity="0.6"
   fill="#e82b2a"
   enable-background="new    "
   points="185.346,149.187 185.344,178.356 212.914,169.216 "
   id="polygon890" />
			<polygon
   fill="#e82b2a"
   points="202.383,201.625 212.914,169.216 185.344,178.356 168.305,201.625 "
   id="polygon892" />
			<polygon
   opacity="0.4"
   fill="#e82b2a"
   enable-background="new    "
   points="85.599,116.776 68.56,140.047 96.129,149.187 "
   id="polygon894" />
			<polygon
   opacity="0.6"
   fill="#e82b2a"
   enable-background="new    "
   points="68.559,169.216 96.129,149.187 68.56,140.047 "
   id="polygon896" />
			<polygon
   opacity="0.8"
   fill="#e82b2a"
   enable-background="new    "
   points="68.559,169.216 68.56,140.047 51.522,116.776 40.99,149.187 "
   id="polygon898" />
			<polygon
   opacity="0.6"
   fill="#e82b2a"
   enable-background="new    "
   points="51.522,116.776 68.56,140.047 85.599,116.776 "
   id="polygon900" />
			<polygon
   opacity="0.4"
   fill="#e82b2a"
   enable-background="new    "
   points="157.775,169.216 140.734,169.216 140.734,221.655 168.304,201.625 "
   id="polygon902" />
			<polygon
   opacity="0.8"
   fill="#e82b2a"
   enable-background="new    "
   points="140.734,221.655 140.734,169.216 123.697,169.216 113.166,201.625 "
   id="polygon904" />
			<polygon
   opacity="0.6"
   fill="#e82b2a"
   enable-background="new    "
   points="212.918,64.336 185.347,84.365 190.708,100.866 240.487,84.365 "
   id="polygon906" />
			<polygon
   opacity="0.4"
   fill="#e82b2a"
   enable-background="new    "
   points="229.955,116.776 240.487,84.365 190.708,100.866 195.877,116.776 "
   id="polygon908" />
			<polygon
   opacity="0.8"
   fill="#e82b2a"
   enable-background="new    "
   points="212.914,169.216 240.485,149.187 229.955,116.776 195.877,116.776 194.61,120.679 185.346,149.187 "
   id="polygon910" />
			<polygon
   fill="#e82b2a"
   fill-opacity="0"
   points="130.206,149.187 140.737,116.776 113.169,96.746 85.599,116.776 96.129,149.187 "
   id="polygon912" />
			<polygon
   opacity="0.6"
   fill="#e82b2a"
   points="140.737,116.776 130.206,149.187 143.835,159.088 145.007,159.938 157.775,169.216 185.346,149.187 179.872,132.344 174.814,116.776 "
   id="polygon914" />
			<polygon
   opacity="0.4"
   fill="#e82b2a"
   enable-background="new    "
   points="157.779,64.336 123.701,64.336 118.495,80.358 118.047,81.735 113.171,96.746 140.74,116.776 155.068,106.365 168.308,96.746 157.779,64.339 "
   id="polygon916" />
			<polyline
   opacity="0.8"
   fill="#e82b2a"
   enable-background="new    "
   points="157.777,64.336 185.346,102.645 190.708,100.866      185.347,84.365 157.779,64.336    "
   id="polyline918" />
			<polygon
   opacity="0.6"
   fill="#e82b2a"
   enable-background="new    "
   points="190.708,100.866 185.346,102.645 185.346,149.187 194.61,120.679 195.877,116.776 "
   id="polygon920" />
			<polygon
   fill="#e82b2a"
   points="185.346,102.645 157.777,64.336 168.308,96.746 "
   id="polygon922" />
			<polygon
   opacity="0.4"
   fill="#e82b2a"
   enable-background="new    "
   points="185.346,149.187 185.346,102.645 174.814,116.776 179.873,132.342 "
   id="polygon924" />
			<polygon
   opacity="0.8"
   fill="#e82b2a"
   enable-background="new    "
   points="185.346,102.645 168.308,96.746 140.737,116.776 174.814,116.776 "
   id="polygon926" />
			<polyline
   opacity="0.8"
   fill="#e82b2a"
   enable-background="new    "
   points="118.531,80.245 123.699,64.337 110.073,74.238      96.129,84.365 85.599,116.776 113.169,96.746 118.526,80.262    "
   id="polyline928" />
			<polygon
   opacity="0.8"
   fill="#e82b2a"
   enable-background="new    "
   points="143.835,159.088 130.206,149.187 96.129,149.187 123.697,169.216 157.775,169.216 "
   id="polygon930" />
		</g><path
   fill="#ffffff"
   d="m 189.835,105.363 10.437,-32.104 0.148,-0.46 -0.39,-0.284 L 172.722,52.677 162.143,20.121 H 127.921 L 127.855,20.074 100.211,0 99.988,0.165 72.571,20.08 72.513,20.121 H 38.29 L 38.139,20.584 27.702,52.679 0.007,72.8 l 10.451,32.171 0.128,0.393 -0.021,0.065 L 0,137.922 l 27.639,20.076 0.063,0.049 0.125,0.387 10.454,32.17 h 34.236 l 27.299,19.839 0.393,0.282 0.232,-0.164 0.158,-0.115 26.973,-19.6 0.332,-0.242 h 34.239 l 10.557,-32.496 0.021,-0.064 0.333,-0.242 27.365,-19.877 z m -37.012,58.516 -7.613,2.523 v -27.863 l 26.333,19.133 z M 73.254,21.122 l 16.728,5.545 9.994,3.314 3.675,5.021 12.83,17.529 h -33.02 l -0.079,-0.244 -5.188,-15.96 z m 44.736,3.045 9.183,-3.043 -6.72,20.684 -3.337,10.264 -10.915,-14.902 -5.354,-7.316 z M 78.378,68.954 83.459,53.312 h 33.507 l 10.356,31.866 -27.11,19.698 -1.604,-1.166 -25.504,-18.531 2.993,-9.208 1.795,-5.528 0.216,-0.665 0.262,-0.811 z m 66.112,4.244 5.203,16.009 -0.399,0.131 -4.084,1.352 -0.231,0.078 -0.149,-0.208 -25.839,-35.892 7.577,5.504 z m -0.063,19.213 v 42.886 l -4.709,-14.488 -4.995,-15.375 2.526,-3.393 z m -16.331,-7.385 -9.692,-29.833 25.379,35.263 -10.277,-3.557 z m -13.325,10.241 13.078,-9.501 5.567,1.928 10.769,3.729 -4.663,6.26 -5.432,7.286 -21.785,0.003 h -10.894 l 7.869,-5.718 z m -24.629,42.354 2.364,-7.285 7.988,-24.583 h 33.51 l 1.082,3.333 3.887,11.965 5.385,16.571 -2.444,1.775 -24.663,17.917 -13.715,-9.958 z m 55.071,-46.109 0.244,-0.081 4.479,-1.486 5.004,15.416 -1.226,3.779 -8.5,26.162 z m -72.568,-5.698 26.902,19.545 0.204,0.149 -0.079,0.244 -10.276,31.625 H 55.888 l -7.229,-22.248 -3.127,-9.622 15.343,-11.146 z m -28.342,19.937 -14.35,19.597 -1.92,2.621 -16.268,-22.218 z m -15.638,22.68 16.272,-22.222 2.518,7.748 7.537,23.198 -21.255,-7.042 z m 60.889,9.731 1.396,1.016 12.13,8.813 5.578,4.052 7.382,5.365 H 83.297 l -26.49,-19.246 z m 28.366,19.639 26.511,-19.262 -0.004,28.278 -16.51,22.543 -10.132,-31.169 -0.076,-0.237 z M 69.777,63.14 81.736,54.448 82.434,53.942 77.633,68.707 h 0.004 l -0.037,0.116 -0.451,1.377 -4.837,14.886 -23.608,17.153 -2.89,2.099 9.165,-28.202 0.954,-2.938 v -10e-4 l 7.257,-5.272 z m -41.353,93.893 v -27.859 l 7.443,2.467 18.89,6.263 -5.706,4.144 z M 199.35,73.564 189.143,104.969 h -33.508 l -0.21,-0.646 -4.754,-14.622 46.014,-15.253 z m -48.917,15.393 -5.154,-15.858 9.037,-6.565 18.077,-13.133 26.72,19.417 z m 21.496,-36.187 -27.107,19.696 -27.11,-19.695 5.313,-16.354 5.044,-15.516 h 33.508 z m -71.711,-51.805 26.718,19.413 -21.73,7.207 -4.992,1.655 -5.303,-1.757 -21.42,-7.103 z m -27.854,19.934 1.259,3.878 9.092,27.994 -13.081,9.505 -30.296,-41.377 z m -33.66,0.457 7.775,10.619 22.517,30.763 -7.196,5.229 -6.195,4.5 L 45.221,64.924 28.494,52.772 Z M 0.927,73.101 28.034,53.404 55.144,73.102 44.788,104.968 H 11.277 Z m 10.204,33.106 16.418,22.426 0.092,0.127 v 11.849 L 27.638,157.032 0.923,137.624 Z m 61.224,83.61 H 38.847 l -10.356,-31.868 27.113,-19.693 19.279,14.008 7.827,5.687 -9,27.694 z m 27.461,19.655 -26.714,-19.407 10.354,-31.873 h 16.36 z m 0.783,-51.279 h 16.363 l 10.356,31.871 -26.72,19.408 v -51.279 z m 60.974,31.624 h -33.022 l 16.511,-22.545 11.286,-3.742 15.431,-5.116 z m 10.817,-32.502 -11.763,-8.54 -15.349,-11.151 9.177,-28.237 1.179,-3.631 h 33.508 l 10.355,31.868 z"
   id="path934" />
<g
   id="Layer_2"
   transform="translate(-40.479,-11.509)">
</g>
</svg>
